<svg width="17" height="34" viewBox="0 0 17 34" fill="none" xmlns="http://www.w3.org/2000/svg">
<path d="M2.03223 29.1188H1.78223V29.3688V30.7039C1.78223 31.166 2.10893 31.5488 2.52226 31.8015C2.94404 32.0594 3.50657 32.2175 4.09869 32.2175H13.1365C13.7286 32.2175 14.2911 32.0594 14.7129 31.8015C15.1262 31.5488 15.4529 31.166 15.4529 30.7039V29.3688V29.1188H15.2029H2.03223Z" stroke="#262F56" stroke-width="0.5"/>
<path d="M16.485 17.4649L16.485 17.4632L0.786405 17.1466C0.762062 17.2225 0.75 17.3011 0.75 17.3799V19.1747V28.8528V30.7038C0.75 31.4348 1.15165 32.077 1.75968 32.5276C2.36785 32.9783 3.1959 33.25 4.09863 33.25H13.1364C14.039 33.25 14.867 32.9783 15.4752 32.5276C16.0833 32.077 16.485 31.4348 16.485 30.7038V28.8528V19.1747L16.485 17.4649ZM4.71373 4.86155L0.786543 17.1462L16.2119 17.3124L16.4508 17.2387L16.4508 17.2385L12.6058 4.77168C12.9001 4.49 13.0877 4.09464 13.0877 3.6517V2.3095C13.0877 1.4493 12.3884 0.75 11.5282 0.75H5.69115C4.83095 0.75 4.13165 1.4493 4.13165 2.3095V3.65206C4.13165 4.14315 4.36133 4.5771 4.71373 4.86155ZM5.66382 2.3095C5.66382 2.30598 5.6654 2.2988 5.67294 2.29126C5.68044 2.28375 5.68756 2.28217 5.69115 2.28217H11.5286C11.5321 2.28217 11.5393 2.28375 11.5468 2.29129C11.5543 2.29879 11.5559 2.30591 11.5559 2.3095V3.65206C11.5559 3.65558 11.5543 3.66275 11.5468 3.67029C11.5393 3.6778 11.5322 3.67939 11.5286 3.67939H5.69115C5.68763 3.67939 5.68046 3.6778 5.67292 3.67027C5.66541 3.66277 5.66382 3.65565 5.66382 3.65206V2.3095ZM2.28217 17.4992L6.2104 5.2112H11.1379L14.9525 17.5797V18.4081H2.28217V17.4992ZM14.9525 28.0862H2.28217V19.9406H14.9525V28.0862ZM13.136 31.7175H4.09863C3.58997 31.7175 3.11926 31.5805 2.78301 31.3749C2.4383 31.1641 2.28217 30.9151 2.28217 30.7038V29.6188H14.9525V30.7038C14.9525 30.9149 14.7964 31.164 14.4516 31.3748C14.1154 31.5804 13.6447 31.7175 13.136 31.7175Z" fill="#262F56" stroke="#262F56" stroke-width="0.5"/>
</svg>
