<svg width="34" height="34" viewBox="0 0 34 34" fill="none" xmlns="http://www.w3.org/2000/svg">
<path fill-rule="evenodd" clip-rule="evenodd" d="M30.17 10.894C29.593 11.556 28.694 12.223 27.544 12.81C27.209 12.981 27 13.323 27 13.7V30C27 30.543 26.543 30.999 26 31H8C7.457 30.999 7 30.543 7 30V13.7C7 13.323 6.791 12.981 6.456 12.81C5.306 12.223 4.407 11.556 3.831 10.894C3.251 10.226 3.001 9.606 3 9C3.001 8.362 3.281 7.693 3.934 6.981C4.904 5.921 6.692 4.888 8.98 4.166C11.267 3.438 14.046 2.999 17 3C20.938 2.997 24.568 3.783 27.13 4.981C28.41 5.577 29.418 6.277 30.066 6.981C30.719 7.693 30.999 8.362 31 9C30.999 9.606 30.749 10.226 30.17 10.894ZM25.626 2.26C23.117 1.462 20.151 1.001 17 1C12.798 1.003 8.928 1.817 6.025 3.169C4.573 3.848 3.357 4.661 2.464 5.625C1.576 6.582 0.999001 7.738 1 9C0.999001 10.194 1.519 11.294 2.324 12.21C3.017 13 4 13.683 5 14.286V30C5 31.657 6.343 33 8 33H26C27.657 33 29 31.657 29 30V14.286C30 13.683 30.983 13 31.676 12.21C32.481 11.294 33.001 10.194 33 9C33.001 7.738 32.424 6.582 31.536 5.625C30.195 4.182 28.135 3.063 25.626 2.26Z" fill="#262F56"/>
<path d="M27.544 12.81L27.3167 12.3647L27.3167 12.3647L27.544 12.81ZM26 31V31.5L26.0009 31.5L26 31ZM8 31L7.99908 31.5H8V31ZM6.456 12.81L6.68332 12.3647L6.68332 12.3647L6.456 12.81ZM3.831 10.894L3.45346 11.2218L3.4538 11.2222L3.831 10.894ZM3 9L2.5 8.99922L2.5 9.00082L3 9ZM3.934 6.981L4.30249 7.31896L4.30287 7.31855L3.934 6.981ZM8.98 4.166L9.13047 4.64282L9.13166 4.64244L8.98 4.166ZM17 3L16.9998 3.5L17.0004 3.5L17 3ZM27.13 4.981L26.9182 5.43393L26.9189 5.43427L27.13 4.981ZM30.066 6.981L30.4345 6.64304L30.4339 6.64238L30.066 6.981ZM31 9L31.5 9.00082L31.5 8.99922L31 9ZM17 1L17.0002 0.5L16.9996 0.5L17 1ZM6.025 3.169L5.81391 2.71574L5.8132 2.71608L6.025 3.169ZM2.464 5.625L2.83052 5.96509L2.8308 5.96479L2.464 5.625ZM1 9L1.5 9.00042L1.5 8.9996L1 9ZM2.324 12.21L2.69988 11.8803L2.69958 11.8799L2.324 12.21ZM5 14.286H5.5V14.0036L5.25819 13.8578L5 14.286ZM29 14.286L28.7418 13.8578L28.5 14.0036V14.286H29ZM31.676 12.21L31.3004 11.8799L31.3001 11.8803L31.676 12.21ZM33 9L32.5 8.9996V9.00042L33 9ZM31.536 5.625L31.9025 5.28491L31.9023 5.28463L31.536 5.625ZM29.7931 10.5655C29.2706 11.1649 28.4297 11.7965 27.3167 12.3647L27.7713 13.2553C28.9583 12.6495 29.9154 11.9471 30.5469 11.2225L29.7931 10.5655ZM27.3167 12.3647C26.8138 12.6214 26.5 13.1357 26.5 13.7H27.5C27.5 13.5103 27.6042 13.3406 27.7713 13.2553L27.3167 12.3647ZM26.5 13.7V30H27.5V13.7H26.5ZM26.5 30C26.5 30.266 26.2675 30.4995 25.9991 30.5L26.0009 31.5C26.8185 31.4985 27.5 30.82 27.5 30H26.5ZM26 30.5H8V31.5H26V30.5ZM8.00092 30.5C7.73251 30.4995 7.5 30.266 7.5 30H6.5C6.5 30.82 7.18149 31.4985 7.99908 31.5L8.00092 30.5ZM7.5 30V13.7H6.5V30H7.5ZM7.5 13.7C7.5 13.1357 7.18622 12.6214 6.68332 12.3647L6.22868 13.2553C6.39578 13.3406 6.5 13.5103 6.5 13.7H7.5ZM6.68332 12.3647C5.57018 11.7965 4.72955 11.165 4.20821 10.5658L3.4538 11.2222C4.08445 11.947 5.04182 12.6495 6.22868 13.2553L6.68332 12.3647ZM4.20855 10.5662C3.68363 9.96163 3.50075 9.45321 3.5 8.99918L2.5 9.00082C2.50125 9.75879 2.81837 10.4904 3.45346 11.2218L4.20855 10.5662ZM3.5 9.00078C3.50075 8.52254 3.70691 7.96836 4.30249 7.31896L3.56551 6.64304C2.8551 7.41764 2.50125 8.20146 2.5 8.99922L3.5 9.00078ZM4.30287 7.31855C5.19063 6.34842 6.88645 5.35094 9.13047 4.64282L8.82954 3.68918C6.49756 4.42506 4.61738 5.49358 3.56514 6.64345L4.30287 7.31855ZM9.13166 4.64244C11.3656 3.93135 14.093 3.49902 16.9998 3.5L17.0002 2.5C13.999 2.49898 11.1684 2.94465 8.82834 3.68956L9.13166 4.64244ZM17.0004 3.5C20.8792 3.49704 24.4344 4.27248 26.9182 5.43393L27.3418 4.52807C24.7016 3.29352 20.9968 2.49696 16.9996 2.5L17.0004 3.5ZM26.9189 5.43427C28.1603 6.01226 29.1075 6.678 29.6981 7.31962L30.4339 6.64238C29.7285 5.876 28.6597 5.14174 27.3411 4.52773L26.9189 5.43427ZM29.6975 7.31896C30.2931 7.96836 30.4993 8.52254 30.5 9.00078L31.5 8.99922C31.4988 8.20146 31.1449 7.41764 30.4345 6.64304L29.6975 7.31896ZM30.5 8.99918C30.4993 9.45331 30.3163 9.96184 29.7922 10.5665L30.5478 11.2215C31.1817 10.4902 31.4988 9.75869 31.5 9.00082L30.5 8.99918ZM25.7775 1.78352C23.2154 0.968601 20.1979 0.501015 17.0002 0.5L16.9998 1.5C20.1041 1.50099 23.0186 1.9554 25.4745 2.73648L25.7775 1.78352ZM16.9996 0.5C12.7391 0.503042 8.79472 1.32751 5.81391 2.71574L6.23609 3.62225C9.06128 2.30649 12.8569 1.50296 17.0004 1.5L16.9996 0.5ZM5.8132 2.71608C4.32286 3.413 3.04701 4.25988 2.0972 5.28521L2.8308 5.96479C3.66699 5.06212 4.82314 4.283 6.2368 3.62192L5.8132 2.71608ZM2.09748 5.28491C1.14928 6.30679 0.498875 7.57883 0.500002 9.0004L1.5 8.9996C1.49913 7.89717 2.00272 6.85721 2.83052 5.96509L2.09748 5.28491ZM0.500002 8.99958C0.498875 10.3449 1.08514 11.5577 1.94843 12.5401L2.69958 11.8799C1.95287 11.0303 1.49913 10.0431 1.5 9.00042L0.500002 8.99958ZM1.94813 12.5397C2.69389 13.3899 3.73173 14.1051 4.74181 14.7142L5.25819 13.8578C4.26828 13.2609 3.34012 12.6101 2.69988 11.8803L1.94813 12.5397ZM4.5 14.286V30H5.5V14.286H4.5ZM4.5 30C4.5 31.9331 6.06686 33.5 8 33.5V32.5C6.61914 32.5 5.5 31.3809 5.5 30H4.5ZM8 33.5H26V32.5H8V33.5ZM26 33.5C27.9331 33.5 29.5 31.9331 29.5 30H28.5C28.5 31.3809 27.3809 32.5 26 32.5V33.5ZM29.5 30V14.286H28.5V30H29.5ZM29.2582 14.7142C30.2683 14.1051 31.3061 13.3899 32.0519 12.5397L31.3001 11.8803C30.6599 12.6101 29.7317 13.2609 28.7418 13.8578L29.2582 14.7142ZM32.0516 12.5401C32.9149 11.5577 33.5011 10.3449 33.5 8.99958L32.5 9.00042C32.5009 10.0431 32.0471 11.0303 31.3004 11.8799L32.0516 12.5401ZM33.5 9.0004C33.5011 7.57883 32.8507 6.30679 31.9025 5.28491L31.1695 5.96509C31.9973 6.85721 32.5009 7.89717 32.5 8.9996L33.5 9.0004ZM31.9023 5.28463C30.4803 3.75454 28.3306 2.6006 25.7784 1.78379L25.4736 2.73621C27.9394 3.5254 29.9097 4.60946 31.1697 5.96537L31.9023 5.28463Z" fill="#262F56"/>
<path fill-rule="evenodd" clip-rule="evenodd" d="M21.293 7.29301L11.293 17.293C10.902 17.683 10.902 18.317 11.293 18.707C11.683 19.098 12.317 19.098 12.707 18.707L22.707 8.70701C23.098 8.31701 23.098 7.68301 22.707 7.29301C22.317 6.90201 21.683 6.90201 21.293 7.29301Z" fill="#262F56"/>
<path d="M21.293 7.29301L11.293 17.293C10.902 17.683 10.902 18.317 11.293 18.707C11.683 19.098 12.317 19.098 12.707 18.707L22.707 8.70701C23.098 8.31701 23.098 7.68301 22.707 7.29301C22.317 6.90201 21.683 6.90201 21.293 7.29301" stroke="#262F56"/>
<path fill-rule="evenodd" clip-rule="evenodd" d="M21.293 15.293L11.293 25.293C10.902 25.683 10.902 26.317 11.293 26.707C11.683 27.098 12.317 27.098 12.707 26.707L22.707 16.707C23.098 16.317 23.098 15.683 22.707 15.293C22.317 14.902 21.683 14.902 21.293 15.293Z" fill="#262F56"/>
<path d="M21.293 15.293L11.293 25.293C10.902 25.683 10.902 26.317 11.293 26.707C11.683 27.098 12.317 27.098 12.707 26.707L22.707 16.707C23.098 16.317 23.098 15.683 22.707 15.293C22.317 14.902 21.683 14.902 21.293 15.293" stroke="#262F56"/>
</svg>
