<svg width="351" height="128" viewBox="0 0 351 128" fill="none" xmlns="http://www.w3.org/2000/svg">
<circle cx="184.5" cy="57.5" r="44.5" fill="#F5C242"/>
<path opacity="0.34" d="M188.89 79.4539H185.761V126.948H188.89V79.4539Z" fill="#333333"/>
<path d="M209.439 79.4539H185.761V126.948H209.439V79.4539Z" fill="white" stroke="#170E10" stroke-width="2.30107" stroke-miterlimit="10" stroke-linecap="round" stroke-linejoin="round"/>
<path d="M189.627 116.593H206.171" stroke="#260005" stroke-width="1.38064" stroke-miterlimit="10" stroke-linejoin="round"/>
<path d="M189.627 110.61H206.171" stroke="#260005" stroke-width="1.38064" stroke-miterlimit="10" stroke-linejoin="round"/>
<path d="M189.627 104.628H206.171" stroke="#260005" stroke-width="1.38064" stroke-miterlimit="10" stroke-linejoin="round"/>
<path d="M189.627 98.6448H206.171" stroke="#260005" stroke-width="1.38064" stroke-miterlimit="10" stroke-linejoin="round"/>
<path d="M189.627 92.6621H206.171" stroke="#260005" stroke-width="1.38064" stroke-miterlimit="10" stroke-linejoin="round"/>
<path d="M189.627 86.6792H206.171" stroke="#260005" stroke-width="1.38064" stroke-miterlimit="10" stroke-linejoin="round"/>
<path opacity="0.69" d="M155.295 60.6772H152.211V126.948H155.295V60.6772Z" fill="#333333"/>
<path opacity="0.69" d="M139.486 12.746H136.541C135.022 12.746 133.78 13.9885 133.78 15.5073V23.7911H136.725V15.5073C136.725 13.9885 137.968 12.746 139.486 12.746Z" fill="#333333"/>
<path d="M144.848 22.196L141.909 21.2354C140.341 20.723 138.654 20.7076 137.077 21.1914L133.803 22.196V15.5073C133.803 13.9885 135.045 12.746 136.564 12.746H142.086C143.605 12.746 144.848 13.9885 144.848 15.5073V22.196Z" stroke="#170E10" stroke-width="2.30107" stroke-miterlimit="10" stroke-linecap="round" stroke-linejoin="round"/>
<path d="M139.417 12.815V2" stroke="#170E10" stroke-width="2.30107" stroke-miterlimit="10" stroke-linecap="round" stroke-linejoin="round"/>
<path d="M273.569 126.948H279" stroke="#170E10" stroke-width="2.30107" stroke-miterlimit="10" stroke-linecap="round" stroke-linejoin="round"/>
<path d="M223.061 126.948H269.635" stroke="#170E10" stroke-width="2.30107" stroke-miterlimit="10" stroke-linecap="round" stroke-linejoin="round"/>
<path d="M215.353 126.948H217.424" stroke="#170E10" stroke-width="2.30107" stroke-miterlimit="10" stroke-linecap="round" stroke-linejoin="round"/>
<path d="M101.795 126.948H212.016" stroke="#170E10" stroke-width="2.30107" stroke-miterlimit="10" stroke-linecap="round" stroke-linejoin="round"/>
<path d="M96.3185 126.948H98.2514" stroke="#170E10" stroke-width="2.30107" stroke-miterlimit="10" stroke-linecap="round" stroke-linejoin="round"/>
<path d="M76.4371 126.948H92.4756" stroke="#170E10" stroke-width="2.30107" stroke-miterlimit="10" stroke-linecap="round" stroke-linejoin="round"/>
<path opacity="0.69" d="M129.062 39.3003H126.439V126.948H129.062V39.3003Z" fill="#333333"/>
<path d="M152.211 39.3003H126.439V126.948H152.211V39.3003Z" fill="white" stroke="#170E10" stroke-width="2.30107" stroke-miterlimit="10" stroke-linecap="round" stroke-linejoin="round"/>
<path d="M130.904 107.849H147.702" stroke="#170E10" stroke-width="1.38064" stroke-miterlimit="10" stroke-linejoin="round"/>
<path d="M130.903 110.61H147.701" stroke="#170E10" stroke-width="1.38064" stroke-miterlimit="10" stroke-linejoin="round"/>
<path d="M130.904 100.025H147.702" stroke="#170E10" stroke-width="1.38064" stroke-miterlimit="10" stroke-linejoin="round"/>
<path d="M130.903 102.787H147.701" stroke="#170E10" stroke-width="1.38064" stroke-miterlimit="10" stroke-linejoin="round"/>
<path d="M130.904 92.2018H147.702" stroke="#170E10" stroke-width="1.38064" stroke-miterlimit="10" stroke-linejoin="round"/>
<path d="M130.903 94.9631H147.701" stroke="#170E10" stroke-width="1.38064" stroke-miterlimit="10" stroke-linejoin="round"/>
<path d="M130.904 84.3782H147.702" stroke="#170E10" stroke-width="1.38064" stroke-miterlimit="10" stroke-linejoin="round"/>
<path d="M130.903 87.1395H147.701" stroke="#170E10" stroke-width="1.38064" stroke-miterlimit="10" stroke-linejoin="round"/>
<path d="M130.904 76.5546H147.702" stroke="#170E10" stroke-width="1.38064" stroke-miterlimit="10" stroke-linejoin="round"/>
<path d="M130.903 79.3159H147.701" stroke="#170E10" stroke-width="1.38064" stroke-miterlimit="10" stroke-linejoin="round"/>
<path d="M130.904 68.731H147.702" stroke="#170E10" stroke-width="1.38064" stroke-miterlimit="10" stroke-linejoin="round"/>
<path d="M130.903 71.4922H147.701" stroke="#170E10" stroke-width="1.38064" stroke-miterlimit="10" stroke-linejoin="round"/>
<path d="M130.904 60.9073H147.702" stroke="#170E10" stroke-width="1.38064" stroke-miterlimit="10" stroke-linejoin="round"/>
<path d="M130.903 63.6686H147.701" stroke="#170E10" stroke-width="1.38064" stroke-miterlimit="10" stroke-linejoin="round"/>
<path d="M130.904 53.0836H147.702" stroke="#170E10" stroke-width="1.38064" stroke-miterlimit="10" stroke-linejoin="round"/>
<path d="M130.903 55.845H147.701" stroke="#170E10" stroke-width="1.38064" stroke-miterlimit="10" stroke-linejoin="round"/>
<path d="M130.904 45.26H147.702" stroke="#170E10" stroke-width="1.38064" stroke-miterlimit="10" stroke-linejoin="round"/>
<path d="M130.903 48.0214H147.701" stroke="#170E10" stroke-width="1.38064" stroke-miterlimit="10" stroke-linejoin="round"/>
<path opacity="0.69" d="M140.821 21.0298C140.338 20.9377 139.831 20.8917 139.325 20.8917C134.631 20.8917 130.811 24.7115 130.811 29.4057V39.3003H133.803V29.4057C133.803 25.2177 136.817 21.7431 140.821 21.0298Z" fill="#333333"/>
<path d="M147.839 39.3003H130.811V29.4057C130.811 24.7115 134.631 20.8917 139.325 20.8917C144.019 20.8917 147.839 24.7115 147.839 29.4057V39.3003Z" fill="white" stroke="#170E10" stroke-width="2.30107" stroke-miterlimit="10" stroke-linecap="round" stroke-linejoin="round"/>
<path d="M186.267 60.6772H152.211V126.948H186.267V60.6772Z" fill="white" stroke="#170E10" stroke-width="2.30107" stroke-miterlimit="10" stroke-linecap="round" stroke-linejoin="round"/>
<path d="M187.51 56.0751H152.211V60.6772H187.51V56.0751Z" fill="white" stroke="#170E10" stroke-width="2.30107" stroke-miterlimit="10" stroke-linecap="round" stroke-linejoin="round"/>
<path d="M144.848 115.097H133.803V126.948H144.848V115.097Z" fill="white"/>
<path opacity="0.34" d="M144.848 115.558H133.803V117.974H144.848V115.558Z" fill="#333333"/>
<path opacity="0.34" d="M136.357 117.974H133.803V126.948H136.357V117.974Z" fill="#333333"/>
<path d="M144.848 115.097H133.803V126.948H144.848V115.097Z" stroke="#170E10" stroke-width="2.30107" stroke-miterlimit="10" stroke-linecap="round" stroke-linejoin="round"/>
<path d="M180.606 114.062V117.514" stroke="#170E10" stroke-width="2.30107" stroke-miterlimit="10" stroke-linejoin="round"/>
<path d="M176.004 114.062V117.514" stroke="#170E10" stroke-width="2.30107" stroke-miterlimit="10" stroke-linejoin="round"/>
<path d="M171.402 114.062V117.514" stroke="#170E10" stroke-width="2.30107" stroke-miterlimit="10" stroke-linejoin="round"/>
<path d="M166.8 114.062V117.514" stroke="#170E10" stroke-width="2.30107" stroke-miterlimit="10" stroke-linejoin="round"/>
<path d="M162.198 114.062V117.514" stroke="#170E10" stroke-width="2.30107" stroke-miterlimit="10" stroke-linejoin="round"/>
<path d="M157.596 114.062V117.514" stroke="#170E10" stroke-width="2.30107" stroke-miterlimit="10" stroke-linejoin="round"/>
<path d="M180.606 104.858V108.309" stroke="#170E10" stroke-width="2.30107" stroke-miterlimit="10" stroke-linejoin="round"/>
<path d="M176.004 104.858V108.309" stroke="#170E10" stroke-width="2.30107" stroke-miterlimit="10" stroke-linejoin="round"/>
<path d="M171.402 104.858V108.309" stroke="#170E10" stroke-width="2.30107" stroke-miterlimit="10" stroke-linejoin="round"/>
<path d="M166.8 104.858V108.309" stroke="#170E10" stroke-width="2.30107" stroke-miterlimit="10" stroke-linejoin="round"/>
<path d="M162.198 104.858V108.309" stroke="#170E10" stroke-width="2.30107" stroke-miterlimit="10" stroke-linejoin="round"/>
<path d="M157.596 104.858V108.309" stroke="#170E10" stroke-width="2.30107" stroke-miterlimit="10" stroke-linejoin="round"/>
<path d="M180.606 95.6534V99.105" stroke="#170E10" stroke-width="2.30107" stroke-miterlimit="10" stroke-linejoin="round"/>
<path d="M176.004 95.6534V99.105" stroke="#170E10" stroke-width="2.30107" stroke-miterlimit="10" stroke-linejoin="round"/>
<path d="M171.402 95.6534V99.105" stroke="#170E10" stroke-width="2.30107" stroke-miterlimit="10" stroke-linejoin="round"/>
<path d="M166.8 95.6534V99.105" stroke="#170E10" stroke-width="2.30107" stroke-miterlimit="10" stroke-linejoin="round"/>
<path d="M162.198 95.6534V99.105" stroke="#170E10" stroke-width="2.30107" stroke-miterlimit="10" stroke-linejoin="round"/>
<path d="M157.596 95.6534V99.105" stroke="#170E10" stroke-width="2.30107" stroke-miterlimit="10" stroke-linejoin="round"/>
<path d="M180.606 86.4491V89.9007" stroke="#170E10" stroke-width="2.30107" stroke-miterlimit="10" stroke-linejoin="round"/>
<path d="M176.004 86.4491V89.9007" stroke="#170E10" stroke-width="2.30107" stroke-miterlimit="10" stroke-linejoin="round"/>
<path d="M171.402 86.4491V89.9007" stroke="#170E10" stroke-width="2.30107" stroke-miterlimit="10" stroke-linejoin="round"/>
<path d="M166.8 86.4491V89.9007" stroke="#170E10" stroke-width="2.30107" stroke-miterlimit="10" stroke-linejoin="round"/>
<path d="M162.198 86.4491V89.9007" stroke="#170E10" stroke-width="2.30107" stroke-miterlimit="10" stroke-linejoin="round"/>
<path d="M157.596 86.4491V89.9007" stroke="#170E10" stroke-width="2.30107" stroke-miterlimit="10" stroke-linejoin="round"/>
<path d="M180.606 77.2449V80.6965" stroke="#170E10" stroke-width="2.30107" stroke-miterlimit="10" stroke-linejoin="round"/>
<path d="M176.004 77.2449V80.6965" stroke="#170E10" stroke-width="2.30107" stroke-miterlimit="10" stroke-linejoin="round"/>
<path d="M171.402 77.2449V80.6965" stroke="#170E10" stroke-width="2.30107" stroke-miterlimit="10" stroke-linejoin="round"/>
<path d="M166.8 77.2449V80.6965" stroke="#170E10" stroke-width="2.30107" stroke-miterlimit="10" stroke-linejoin="round"/>
<path d="M162.198 77.2449V80.6965" stroke="#170E10" stroke-width="2.30107" stroke-miterlimit="10" stroke-linejoin="round"/>
<path d="M157.596 77.2449V80.6965" stroke="#170E10" stroke-width="2.30107" stroke-miterlimit="10" stroke-linejoin="round"/>
<path d="M180.606 68.0406V71.4922" stroke="#170E10" stroke-width="2.30107" stroke-miterlimit="10" stroke-linejoin="round"/>
<path d="M176.004 68.0406V71.4922" stroke="#170E10" stroke-width="2.30107" stroke-miterlimit="10" stroke-linejoin="round"/>
<path d="M171.402 68.0406V71.4922" stroke="#170E10" stroke-width="2.30107" stroke-miterlimit="10" stroke-linejoin="round"/>
<path d="M166.8 68.0406V71.4922" stroke="#170E10" stroke-width="2.30107" stroke-miterlimit="10" stroke-linejoin="round"/>
<path d="M162.198 68.0406V71.4922" stroke="#170E10" stroke-width="2.30107" stroke-miterlimit="10" stroke-linejoin="round"/>
<path d="M157.596 68.0408V71.4924" stroke="#170E10" stroke-width="2.30107" stroke-miterlimit="10" stroke-linejoin="round"/>
<path opacity="0.69" d="M176.234 113.671H162.083V116.754H176.234V113.671Z" fill="#333333"/>
<path opacity="0.69" d="M164.844 116.777H162.083V126.948H164.844V116.777Z" fill="#333333"/>
<path d="M176.234 113.671H162.083V126.948H176.234V113.671Z" stroke="#170E10" stroke-width="2.30107" stroke-miterlimit="10" stroke-linecap="round" stroke-linejoin="round"/>
<path opacity="0.53" d="M114.566 60.6772H112.242V126.948H114.566V60.6772Z" fill="#333333"/>
<path d="M126.186 60.6772H112.242V126.948H126.186V60.6772Z" stroke="#170E10" stroke-width="2.30107" stroke-miterlimit="10" stroke-linecap="round" stroke-linejoin="round"/>
<path d="M116.177 104.858V108.309" stroke="#260005" stroke-width="0.920427" stroke-miterlimit="10" stroke-linejoin="round"/>
<path opacity="0.36" d="M116.176 109.46V110.84" stroke="#FF99AA" stroke-width="0.920427" stroke-miterlimit="10" stroke-linejoin="round"/>
<path d="M119.167 104.858V108.309" stroke="#260005" stroke-width="0.920427" stroke-miterlimit="10" stroke-linejoin="round"/>
<path opacity="0.36" d="M119.167 109.46V110.84" stroke="#FF99AA" stroke-width="0.920427" stroke-miterlimit="10" stroke-linejoin="round"/>
<path d="M122.159 104.858V108.309" stroke="#260005" stroke-width="0.920427" stroke-miterlimit="10" stroke-linejoin="round"/>
<path opacity="0.36" d="M122.159 109.46V110.84" stroke="#FF99AA" stroke-width="0.920427" stroke-miterlimit="10" stroke-linejoin="round"/>
<path d="M116.177 94.733V98.1846" stroke="#260005" stroke-width="0.920427" stroke-miterlimit="10" stroke-linejoin="round"/>
<path opacity="0.36" d="M116.176 99.3351V100.716" stroke="#FF99AA" stroke-width="0.920427" stroke-miterlimit="10" stroke-linejoin="round"/>
<path d="M119.167 94.7329V98.1845" stroke="#260005" stroke-width="0.920427" stroke-miterlimit="10" stroke-linejoin="round"/>
<path opacity="0.36" d="M119.167 99.3351V100.716" stroke="#FF99AA" stroke-width="0.920427" stroke-miterlimit="10" stroke-linejoin="round"/>
<path d="M122.159 94.7329V98.1845" stroke="#260005" stroke-width="0.920427" stroke-miterlimit="10" stroke-linejoin="round"/>
<path opacity="0.36" d="M122.159 99.3351V100.716" stroke="#FF99AA" stroke-width="0.920427" stroke-miterlimit="10" stroke-linejoin="round"/>
<path d="M116.177 84.6083V88.0599" stroke="#260005" stroke-width="0.920427" stroke-miterlimit="10" stroke-linejoin="round"/>
<path opacity="0.36" d="M116.176 89.2104V90.5911" stroke="#FF99AA" stroke-width="0.920427" stroke-miterlimit="10" stroke-linejoin="round"/>
<path d="M119.167 84.6083V88.0599" stroke="#260005" stroke-width="0.920427" stroke-miterlimit="10" stroke-linejoin="round"/>
<path opacity="0.36" d="M119.167 89.2104V90.5911" stroke="#FF99AA" stroke-width="0.920427" stroke-miterlimit="10" stroke-linejoin="round"/>
<path d="M122.159 84.6083V88.0599" stroke="#260005" stroke-width="0.920427" stroke-miterlimit="10" stroke-linejoin="round"/>
<path opacity="0.36" d="M122.159 89.2104V90.5911" stroke="#FF99AA" stroke-width="0.920427" stroke-miterlimit="10" stroke-linejoin="round"/>
<path d="M116.177 74.484V77.9356" stroke="#260005" stroke-width="0.920427" stroke-miterlimit="10" stroke-linejoin="round"/>
<path opacity="0.36" d="M116.176 79.0857V80.4663" stroke="#FF99AA" stroke-width="0.920427" stroke-miterlimit="10" stroke-linejoin="round"/>
<path d="M119.167 74.4835V77.9351" stroke="#260005" stroke-width="0.920427" stroke-miterlimit="10" stroke-linejoin="round"/>
<path opacity="0.36" d="M119.167 79.0858V80.4665" stroke="#FF99AA" stroke-width="0.920427" stroke-miterlimit="10" stroke-linejoin="round"/>
<path d="M122.159 74.4835V77.9351" stroke="#260005" stroke-width="0.920427" stroke-miterlimit="10" stroke-linejoin="round"/>
<path opacity="0.36" d="M122.159 79.0858V80.4665" stroke="#FF99AA" stroke-width="0.920427" stroke-miterlimit="10" stroke-linejoin="round"/>
<path d="M116.177 64.3589V67.8105" stroke="#260005" stroke-width="0.920427" stroke-miterlimit="10" stroke-linejoin="round"/>
<path opacity="0.36" d="M116.176 68.9611V70.3417" stroke="#FF99AA" stroke-width="0.920427" stroke-miterlimit="10" stroke-linejoin="round"/>
<path d="M119.168 64.3589V67.8105" stroke="#260005" stroke-width="0.920427" stroke-miterlimit="10" stroke-linejoin="round"/>
<path opacity="0.36" d="M119.167 68.9611V70.3417" stroke="#FF99AA" stroke-width="0.920427" stroke-miterlimit="10" stroke-linejoin="round"/>
<path d="M122.159 64.3589V67.8105" stroke="#260005" stroke-width="0.920427" stroke-miterlimit="10" stroke-linejoin="round"/>
<path opacity="0.36" d="M122.159 68.9611V70.3417" stroke="#FF99AA" stroke-width="0.920427" stroke-miterlimit="10" stroke-linejoin="round"/>
<path d="M121.699 115.903H117.097V126.948H121.699V115.903Z" fill="white"/>
<path d="M121.699 115.903H117.097V126.948H121.699V115.903Z" stroke="#170E10" stroke-width="2.30107" stroke-miterlimit="10" stroke-linecap="round" stroke-linejoin="round"/>
<path d="M182.217 45.26V55.5458" stroke="#170E10" stroke-width="1.84085" stroke-miterlimit="10" stroke-linecap="round" stroke-linejoin="round"/>
<path d="M179.985 47.4H184.587" stroke="#170E10" stroke-width="1.84085" stroke-miterlimit="10" stroke-linecap="round" stroke-linejoin="round"/>
<path d="M178.489 50.3915H186.267" stroke="#170E10" stroke-width="1.84085" stroke-miterlimit="10" stroke-linecap="round" stroke-linejoin="round"/>
<path d="M248.488 126.948V86.219" stroke="#170E10" stroke-width="2.30107" stroke-miterlimit="10" stroke-linecap="round" stroke-linejoin="round"/>
<path d="M239.744 88.5661V86.219" stroke="#170E10" stroke-width="2.30107" stroke-miterlimit="10" stroke-linecap="round" stroke-linejoin="round"/>
<path d="M239.744 86.2191C239.744 83.803 241.7 81.847 244.116 81.847C246.532 81.847 248.488 83.803 248.488 86.2191" stroke="#170E10" stroke-width="2.30107" stroke-miterlimit="10" stroke-linecap="round" stroke-linejoin="round"/>
<path d="M243.771 92.7311H235.717L239.744 88.0599L243.771 92.7311Z" stroke="#170E10" stroke-width="2.30107" stroke-miterlimit="10" stroke-linecap="round" stroke-linejoin="round"/>
<path d="M106.857 126.948V86.6792" stroke="#170E10" stroke-width="2.30107" stroke-miterlimit="10" stroke-linecap="round" stroke-linejoin="round"/>
<path d="M98.1133 88.7272V86.6792" stroke="#170E10" stroke-width="2.30107" stroke-miterlimit="10" stroke-linecap="round" stroke-linejoin="round"/>
<path d="M98.1133 86.6793C98.1133 84.2632 100.069 82.3073 102.485 82.3073C104.901 82.3073 106.857 84.2632 106.857 86.6793" stroke="#170E10" stroke-width="2.30107" stroke-miterlimit="10" stroke-linecap="round" stroke-linejoin="round"/>
<path d="M102.14 93.1913H94.0863L98.1132 88.5201L102.14 93.1913Z" fill="white"/>
<path d="M102.14 93.1913H94.0863L98.1132 88.5201L102.14 93.1913Z" stroke="#170E10" stroke-width="2.30107" stroke-miterlimit="10" stroke-linecap="round" stroke-linejoin="round"/>
<path opacity="0.53" d="M79.0374 105.732C79.0374 99.2201 82.466 93.8356 86.9531 92.8231C86.4468 92.7081 85.9406 92.639 85.4344 92.639C80.234 92.639 76 98.5067 76 105.732C76 112.957 80.234 118.825 85.4344 118.825C85.9636 118.825 86.4699 118.756 86.9531 118.641C82.443 117.629 79.0374 112.244 79.0374 105.732Z" fill="#333333"/>
<path d="M85.8715 118.825C91.082 118.825 95.3059 112.963 95.3059 105.732C95.3059 98.501 91.082 92.639 85.8715 92.639C80.661 92.639 76.4371 98.501 76.4371 105.732C76.4371 112.963 80.661 118.825 85.8715 118.825Z" stroke="#170E10" stroke-width="2.30107" stroke-miterlimit="10" stroke-linecap="round" stroke-linejoin="round"/>
<path d="M86.2166 113.418L88.9318 110.725" stroke="#170E10" stroke-width="2.30107" stroke-miterlimit="10" stroke-linecap="round" stroke-linejoin="round"/>
<path d="M85.8713 109.322L82.995 106.606" stroke="#170E10" stroke-width="2.30107" stroke-miterlimit="10" stroke-linecap="round" stroke-linejoin="round"/>
<path opacity="0.53" d="M186.704 113.602C186.704 109.782 188.683 106.583 191.306 105.847C190.938 105.755 190.547 105.686 190.156 105.686C186.98 105.686 184.403 109.23 184.403 113.602C184.403 117.974 186.98 121.517 190.156 121.517C190.547 121.517 190.938 121.471 191.306 121.356C188.683 120.62 186.704 117.421 186.704 113.602Z" fill="#333333"/>
<path d="M190.156 121.517C193.333 121.517 195.908 117.973 195.908 113.602C195.908 109.23 193.333 105.686 190.156 105.686C186.979 105.686 184.403 109.23 184.403 113.602C184.403 117.973 186.979 121.517 190.156 121.517Z" fill="white" stroke="#170E10" stroke-width="2.30107" stroke-miterlimit="10" stroke-linecap="round" stroke-linejoin="round"/>
<path opacity="0.53" d="M230.471 116.846C227.088 117.053 220.921 113.763 221.796 105.594C223.084 99.013 225.707 93.6515 228.653 92.0638C228.515 92.0408 228.4 92.0408 228.262 92.0408C224.58 91.9948 221.128 98.1156 219.586 106.054C218.712 114.223 224.902 117.514 228.262 117.306C229.067 117.353 230.01 117.214 230.977 116.846C230.793 116.869 230.632 116.869 230.471 116.846Z" fill="#333333"/>
<path d="M236.936 106.054C237.811 114.223 231.621 117.514 228.261 117.306C224.879 117.514 218.712 114.223 219.586 106.054C221.151 98.1385 224.58 92.0177 228.261 92.0407C231.92 92.0177 235.372 98.1385 236.936 106.054Z" stroke="#170E10" stroke-width="2.30107" stroke-miterlimit="10" stroke-linecap="round" stroke-linejoin="round"/>
<path d="M228.261 111.83L231.161 108.931" stroke="#170E10" stroke-width="2.30107" stroke-miterlimit="10" stroke-linecap="round" stroke-linejoin="round"/>
<path d="M228.262 106.814L225.086 103.638" stroke="#170E10" stroke-width="2.30107" stroke-miterlimit="10" stroke-linecap="round" stroke-linejoin="round"/>
<path d="M190.156 116.018V117.33V118.365V126.58" stroke="#170E10" stroke-width="2.30107" stroke-miterlimit="10" stroke-linecap="round" stroke-linejoin="round"/>
<path d="M228.261 100.831V126.948" stroke="#170E10" stroke-width="2.30107" stroke-miterlimit="10" stroke-linecap="round" stroke-linejoin="round"/>
<path d="M86.2166 103.247V126.948" stroke="#170E10" stroke-width="2.30107" stroke-miterlimit="10" stroke-linecap="round" stroke-linejoin="round"/>
<path opacity="0.53" d="M253.067 104.996C253.067 98.3227 256.68 92.8002 261.351 92.0178C260.983 91.9488 260.592 91.9258 260.2 91.9258C255 91.9258 250.766 97.7935 250.766 105.019C250.766 112.244 255 118.112 260.2 118.112C260.592 118.112 260.983 118.066 261.351 118.02C256.68 117.191 253.067 111.669 253.067 104.996Z" fill="#333333"/>
<path d="M260.2 118.089C265.411 118.089 269.635 112.227 269.635 104.996C269.635 97.7647 265.411 91.9027 260.2 91.9027C254.99 91.9027 250.766 97.7647 250.766 104.996C250.766 112.227 254.99 118.089 260.2 118.089Z" stroke="#170E10" stroke-width="2.30107" stroke-miterlimit="10" stroke-linecap="round" stroke-linejoin="round"/>
<path d="M260.568 113.832L263.261 111.14" stroke="#170E10" stroke-width="2.30107" stroke-miterlimit="10" stroke-linecap="round" stroke-linejoin="round"/>
<path d="M260.2 109.713L257.324 107.021" stroke="#170E10" stroke-width="2.30107" stroke-miterlimit="10" stroke-linecap="round" stroke-linejoin="round"/>
<path d="M260.568 103.638V126.856" stroke="#170E10" stroke-width="2.30107" stroke-miterlimit="10" stroke-linecap="round" stroke-linejoin="round"/>
<path d="M136.725 30.9244V39.3003" stroke="#170E10" stroke-width="1.38064" stroke-miterlimit="10" stroke-linejoin="round"/>
<path d="M141.718 30.9244V39.3003" stroke="#170E10" stroke-width="1.38064" stroke-miterlimit="10" stroke-linejoin="round"/>
<path opacity="0.55" d="M85.8024 98.99C86.2472 98.99 86.6078 98.6294 86.6078 98.1846C86.6078 97.7399 86.2472 97.3793 85.8024 97.3793C85.3576 97.3793 84.9971 97.7399 84.9971 98.1846C84.9971 98.6294 85.3576 98.99 85.8024 98.99Z" fill="white"/>
<path opacity="0.55" d="M90.7727 107.964C91.3445 107.964 91.8081 107.501 91.8081 106.929C91.8081 106.357 91.3445 105.893 90.7727 105.893C90.2008 105.893 89.7372 106.357 89.7372 106.929C89.7372 107.501 90.2008 107.964 90.7727 107.964Z" fill="white"/>
<path opacity="0.53" d="M89.9672 102.488C90.5391 102.488 91.0027 102.024 91.0027 101.452C91.0027 100.88 90.5391 100.417 89.9672 100.417C89.3954 100.417 88.9318 100.88 88.9318 101.452C88.9318 102.024 89.3954 102.488 89.9672 102.488Z" fill="#333333"/>
<path opacity="0.53" d="M82.9953 103.546C83.4147 103.546 83.7547 103.206 83.7547 102.787C83.7547 102.367 83.4147 102.027 82.9953 102.027C82.5759 102.027 82.236 102.367 82.236 102.787C82.236 103.206 82.5759 103.546 82.9953 103.546Z" fill="#333333"/>
<path opacity="0.55" d="M189.443 110.449C189.748 110.449 189.995 110.202 189.995 109.897C189.995 109.592 189.748 109.345 189.443 109.345C189.138 109.345 188.89 109.592 188.89 109.897C188.89 110.202 189.138 110.449 189.443 110.449Z" fill="white"/>
<path opacity="0.53" d="M192.779 112.865C193.211 112.865 193.562 112.515 193.562 112.083C193.562 111.651 193.211 111.301 192.779 111.301C192.347 111.301 191.997 111.651 191.997 112.083C191.997 112.515 192.347 112.865 192.779 112.865Z" fill="#333333"/>
<path opacity="0.55" d="M227.916 99.1971C228.221 99.1971 228.469 98.9498 228.469 98.6448C228.469 98.3398 228.221 98.0925 227.916 98.0925C227.611 98.0925 227.364 98.3398 227.364 98.6448C227.364 98.9498 227.611 99.1971 227.916 99.1971Z" fill="white"/>
<path opacity="0.55" d="M232.449 105.87C232.882 105.87 233.232 105.52 233.232 105.088C233.232 104.656 232.882 104.305 232.449 104.305C232.017 104.305 231.667 104.656 231.667 105.088C231.667 105.52 232.017 105.87 232.449 105.87Z" fill="white"/>
<path opacity="0.53" d="M231.253 101.613C231.685 101.613 232.035 101.263 232.035 100.831C232.035 100.399 231.685 100.048 231.253 100.048C230.821 100.048 230.471 100.399 230.471 100.831C230.471 101.263 230.821 101.613 231.253 101.613Z" fill="#333333"/>
<path opacity="0.53" d="M225.086 110.127C225.518 110.127 225.868 109.777 225.868 109.345C225.868 108.913 225.518 108.562 225.086 108.562C224.654 108.562 224.304 108.913 224.304 109.345C224.304 109.777 224.654 110.127 225.086 110.127Z" fill="#333333"/>
<path opacity="0.55" d="M263.698 102.396C264.295 102.396 264.779 101.911 264.779 101.314C264.779 100.717 264.295 100.233 263.698 100.233C263.101 100.233 262.616 100.717 262.616 101.314C262.616 101.911 263.101 102.396 263.698 102.396Z" fill="white"/>
<path opacity="0.53" d="M263.238 107.78C263.67 107.78 264.02 107.43 264.02 106.998C264.02 106.566 263.67 106.215 263.238 106.215C262.806 106.215 262.456 106.566 262.456 106.998C262.456 107.43 262.806 107.78 263.238 107.78Z" fill="#333333"/>
<path opacity="0.53" d="M259.51 99.6112C259.942 99.6112 260.292 99.2609 260.292 98.8289C260.292 98.3968 259.942 98.0465 259.51 98.0465C259.078 98.0465 258.728 98.3968 258.728 98.8289C258.728 99.2609 259.078 99.6112 259.51 99.6112Z" fill="#333333"/>
<path d="M225.431 126.948C225.431 124.302 227.571 122.185 230.194 122.185C232.818 122.185 234.958 124.325 234.958 126.948H225.431Z" stroke="#170E10" stroke-width="2.30107" stroke-miterlimit="10" stroke-linecap="round" stroke-linejoin="round"/>
<path opacity="0.53" d="M239.629 120.229C239.191 120.137 238.754 120.091 238.294 120.091C234.497 120.091 231.437 123.151 231.437 126.948H234.083C234.106 123.611 236.476 120.827 239.629 120.229Z" fill="#333333"/>
<path d="M231.46 126.948C231.46 123.151 234.52 120.091 238.317 120.091C242.114 120.091 245.174 123.151 245.174 126.948H231.46Z" stroke="#170E10" stroke-width="2.30107" stroke-miterlimit="10" stroke-linecap="round" stroke-linejoin="round"/>
<path d="M63.8793 125.759H60.5172V120.054C61.6547 119.866 62.7245 119.388 63.6229 118.665C64.5213 117.943 65.218 117.001 65.6455 115.93C66.073 114.859 66.2168 113.696 66.0631 112.554C65.9094 111.411 65.4633 110.327 64.768 109.408C65.0464 108.476 65.0753 107.488 64.8519 106.542C64.6284 105.596 64.1605 104.726 63.4949 104.017C63.7481 103.453 63.8791 102.842 63.8793 102.224C63.8793 101.035 63.407 99.895 62.5663 99.0543C61.7257 98.2137 60.5855 97.7414 59.3965 97.7414C58.2076 97.7414 57.0674 98.2137 56.2268 99.0543C55.3861 99.895 54.9138 101.035 54.9138 102.224C54.914 102.842 55.045 103.453 55.2982 104.017C54.633 104.726 54.1653 105.596 53.9419 106.542C53.7185 107.488 53.7472 108.475 54.0251 109.407C53.3292 110.326 52.8826 111.41 52.7286 112.553C52.5745 113.696 52.7182 114.859 53.1458 115.93C53.5734 117.001 54.2703 117.943 55.1691 118.666C56.0678 119.389 57.138 119.867 58.2759 120.054V121.424L56.6565 120.343C56.534 120.262 56.3967 120.205 56.2523 120.176C56.1079 120.148 55.9593 120.148 55.815 120.177C55.6706 120.206 55.5334 120.263 55.4111 120.344C55.2887 120.426 55.1837 120.531 55.1021 120.654C55.0204 120.776 54.9636 120.914 54.935 121.058C54.9064 121.202 54.9065 121.351 54.9354 121.495C54.9642 121.64 55.0212 121.777 55.103 121.899C55.1849 122.022 55.2901 122.127 55.4125 122.208L58.2759 124.117V125.759H49.3103V69.7241H52.6724C52.9696 69.7241 53.2547 69.6061 53.4649 69.3959C53.675 69.1857 53.7931 68.9007 53.7931 68.6034V64.1207C53.7931 63.8235 53.675 63.5384 53.4649 63.3282C53.2547 63.1181 52.9696 63 52.6724 63H16.8103C16.5131 63 16.2281 63.1181 16.0179 63.3282C15.8077 63.5384 15.6897 63.8235 15.6897 64.1207V68.6034C15.6897 68.9007 15.8077 69.1857 16.0179 69.3959C16.2281 69.6061 16.5131 69.7241 16.8103 69.7241H20.1724V125.759H12.3276V123.416C13.4651 123.228 14.5348 122.75 15.4332 122.028C16.3317 121.305 17.0283 120.363 17.4558 119.292C17.8833 118.221 18.0272 117.058 17.8735 115.916C17.7197 114.773 17.2736 113.69 16.5784 112.77C16.8563 111.839 16.885 110.851 16.6616 109.906C16.4382 108.96 15.9705 108.09 15.3053 107.382C15.5588 106.817 15.6898 106.205 15.6897 105.586C15.6897 104.397 15.2174 103.257 14.3767 102.416C13.536 101.576 12.3958 101.103 11.2069 101.103C10.018 101.103 8.87779 101.576 8.03711 102.416C7.19643 103.257 6.72414 104.397 6.72414 105.586C6.72433 106.204 6.85533 106.815 7.10853 107.379C6.44331 108.087 5.97562 108.958 5.75221 109.903C5.5288 110.849 5.5575 111.837 5.83543 112.768C5.1396 113.687 4.69305 114.771 4.53902 115.914C4.385 117.057 4.52872 118.22 4.95627 119.291C5.38383 120.362 6.08072 121.305 6.97946 122.028C7.8782 122.75 8.94833 123.229 10.0862 123.416V125.759H1.12069C0.823464 125.759 0.538412 125.877 0.328242 126.087C0.118072 126.297 0 126.582 0 126.879C0 127.177 0.118072 127.462 0.328242 127.672C0.538412 127.882 0.823464 128 1.12069 128H63.8793C64.1765 128 64.4616 127.882 64.6718 127.672C64.8819 127.462 65 127.177 65 126.879C65 126.582 64.8819 126.297 64.6718 126.087C64.4616 125.877 64.1765 125.759 63.8793 125.759ZM54.9138 113.431C54.9175 112.303 55.3488 111.218 56.1208 110.395C56.2695 110.235 56.368 110.034 56.404 109.818C56.4401 109.602 56.4121 109.38 56.3236 109.18C56.0139 108.487 55.9514 107.708 56.1466 106.973C56.3418 106.239 56.7828 105.594 57.3961 105.146C57.6339 104.967 57.7911 104.702 57.8331 104.408C57.8752 104.113 57.7986 103.815 57.6203 103.577C57.3198 103.19 57.1562 102.714 57.1552 102.224C57.1552 101.63 57.3913 101.06 57.8117 100.639C58.232 100.219 58.8021 99.9828 59.3965 99.9828C59.991 99.9828 60.5611 100.219 60.9814 100.639C61.4018 101.06 61.6379 101.63 61.6379 102.224C61.6355 102.711 61.4724 103.184 61.174 103.569C60.9956 103.807 60.9191 104.106 60.9611 104.4C61.0031 104.694 61.1603 104.96 61.3981 105.138C62.0117 105.586 62.4529 106.231 62.6479 106.966C62.8429 107.7 62.78 108.479 62.4695 109.172C62.3811 109.373 62.3533 109.594 62.3896 109.81C62.4258 110.026 62.5245 110.227 62.6734 110.387C63.206 110.952 63.5816 111.646 63.7629 112.4C63.9442 113.155 63.9249 113.944 63.7069 114.689C63.4889 115.434 63.0798 116.109 62.5203 116.646C61.9607 117.184 61.2702 117.566 60.5172 117.755V114.552C60.5172 114.254 60.3992 113.969 60.189 113.759C59.9788 113.549 59.6938 113.431 59.3965 113.431C59.0993 113.431 58.8143 113.549 58.6041 113.759C58.3939 113.969 58.2759 114.254 58.2759 114.552V117.755C57.3164 117.507 56.466 116.948 55.8577 116.166C55.2495 115.384 54.9175 114.422 54.9138 113.431ZM6.72414 116.793C6.7278 115.665 7.15912 114.58 7.93112 113.757C8.08005 113.597 8.17873 113.396 8.21498 113.18C8.25123 112.964 8.22345 112.743 8.13509 112.542C7.82461 111.849 7.76162 111.07 7.95663 110.335C8.15164 109.601 8.59284 108.956 9.20647 108.508C9.44425 108.33 9.60144 108.064 9.64348 107.77C9.68551 107.476 9.60894 107.177 9.4306 106.939C9.13014 106.552 8.96656 106.076 8.96552 105.586C8.96552 104.992 9.20166 104.422 9.622 104.001C10.0423 103.581 10.6124 103.345 11.2069 103.345C11.8013 103.345 12.3715 103.581 12.7918 104.001C13.2121 104.422 13.4483 104.992 13.4483 105.586C13.4458 106.073 13.2827 106.546 12.9843 106.931C12.806 107.169 12.7294 107.468 12.7714 107.762C12.8135 108.056 12.9707 108.322 13.2084 108.5C13.8221 108.948 14.2633 109.593 14.4583 110.328C14.6533 111.062 14.5903 111.841 14.2798 112.534C14.1915 112.735 14.1637 112.957 14.1999 113.172C14.2362 113.388 14.3349 113.589 14.4838 113.749C15.0164 114.314 15.392 115.008 15.5733 115.763C15.7546 116.517 15.7353 117.306 15.5173 118.051C15.2993 118.796 14.8902 119.471 14.3306 120.009C13.7711 120.546 13.0805 120.928 12.3276 121.117V117.914C12.3276 117.617 12.2095 117.332 11.9993 117.121C11.7892 116.911 11.5041 116.793 11.2069 116.793C10.9097 116.793 10.6246 116.911 10.4144 117.121C10.2043 117.332 10.0862 117.617 10.0862 117.914V121.117C9.12673 120.869 8.27639 120.31 7.66809 119.528C7.0598 118.746 6.72785 117.784 6.72414 116.793ZM17.931 65.2414H51.5517V67.4828H17.931V65.2414ZM32.5 125.759V119.034H36.9828V125.759H32.5ZM39.2241 125.759V117.914C39.2241 117.617 39.1061 117.332 38.8959 117.121C38.6857 116.911 38.4007 116.793 38.1034 116.793H31.3793C31.0821 116.793 30.797 116.911 30.5869 117.121C30.3767 117.332 30.2586 117.617 30.2586 117.914V125.759H22.4138V69.7241H47.069V125.759H39.2241Z" fill="black"/>
<path d="M32.5001 94.3793H25.776C25.4787 94.3793 25.1937 94.4973 24.9835 94.7075C24.7733 94.9177 24.6553 95.2027 24.6553 95.5V102.224C24.6553 102.521 24.7733 102.806 24.9835 103.017C25.1937 103.227 25.4787 103.345 25.776 103.345H32.5001C32.7973 103.345 33.0824 103.227 33.2925 103.017C33.5027 102.806 33.6208 102.521 33.6208 102.224V95.5C33.6208 95.2027 33.5027 94.9177 33.2925 94.7075C33.0824 94.4973 32.7973 94.3793 32.5001 94.3793ZM31.3794 101.103H26.8967V96.6207H31.3794V101.103Z" fill="black"/>
<path d="M43.7071 94.3793H36.983C36.6858 94.3793 36.4007 94.4973 36.1905 94.7075C35.9804 94.9177 35.8623 95.2027 35.8623 95.5V102.224C35.8623 102.521 35.9804 102.806 36.1905 103.017C36.4007 103.227 36.6858 103.345 36.983 103.345H43.7071C44.0044 103.345 44.2894 103.227 44.4996 103.017C44.7098 102.806 44.8278 102.521 44.8278 102.224V95.5C44.8278 95.2027 44.7098 94.9177 44.4996 94.7075C44.2894 94.4973 44.0044 94.3793 43.7071 94.3793ZM42.5864 101.103H38.1037V96.6207H42.5864V101.103Z" fill="black"/>
<path d="M32.5001 83.1724H25.776C25.4787 83.1724 25.1937 83.2904 24.9835 83.5006C24.7733 83.7108 24.6553 83.9958 24.6553 84.2931V91.0172C24.6553 91.3144 24.7733 91.5995 24.9835 91.8096C25.1937 92.0198 25.4787 92.1379 25.776 92.1379H32.5001C32.7973 92.1379 33.0824 92.0198 33.2925 91.8096C33.5027 91.5995 33.6208 91.3144 33.6208 91.0172V84.2931C33.6208 83.9958 33.5027 83.7108 33.2925 83.5006C33.0824 83.2904 32.7973 83.1724 32.5001 83.1724ZM31.3794 89.8965H26.8967V85.4137H31.3794V89.8965Z" fill="black"/>
<path d="M43.7071 83.1724H36.983C36.6858 83.1724 36.4007 83.2904 36.1905 83.5006C35.9804 83.7108 35.8623 83.9958 35.8623 84.2931V91.0172C35.8623 91.3144 35.9804 91.5995 36.1905 91.8096C36.4007 92.0198 36.6858 92.1379 36.983 92.1379H43.7071C44.0044 92.1379 44.2894 92.0198 44.4996 91.8096C44.7098 91.5995 44.8278 91.3144 44.8278 91.0172V84.2931C44.8278 83.9958 44.7098 83.7108 44.4996 83.5006C44.2894 83.2904 44.0044 83.1724 43.7071 83.1724ZM42.5864 89.8965H38.1037V85.4137H42.5864V89.8965Z" fill="black"/>
<path d="M32.5001 105.586H25.776C25.4787 105.586 25.1937 105.704 24.9835 105.914C24.7733 106.125 24.6553 106.41 24.6553 106.707V113.431C24.6553 113.728 24.7733 114.013 24.9835 114.223C25.1937 114.434 25.4787 114.552 25.776 114.552H32.5001C32.7973 114.552 33.0824 114.434 33.2925 114.223C33.5027 114.013 33.6208 113.728 33.6208 113.431V106.707C33.6208 106.41 33.5027 106.125 33.2925 105.914C33.0824 105.704 32.7973 105.586 32.5001 105.586ZM31.3794 112.31H26.8967V107.828H31.3794V112.31Z" fill="black"/>
<path d="M43.7071 105.586H36.983C36.6858 105.586 36.4007 105.704 36.1905 105.914C35.9804 106.125 35.8623 106.41 35.8623 106.707V113.431C35.8623 113.728 35.9804 114.013 36.1905 114.223C36.4007 114.434 36.6858 114.552 36.983 114.552H43.7071C44.0044 114.552 44.2894 114.434 44.4996 114.223C44.7098 114.013 44.8278 113.728 44.8278 113.431V106.707C44.8278 106.41 44.7098 106.125 44.4996 105.914C44.2894 105.704 44.0044 105.586 43.7071 105.586ZM42.5864 112.31H38.1037V107.828H42.5864V112.31Z" fill="black"/>
<path d="M32.5001 71.9656H25.776C25.4787 71.9656 25.1937 72.0836 24.9835 72.2938C24.7733 72.504 24.6553 72.789 24.6553 73.0863V79.8104C24.6553 80.1076 24.7733 80.3927 24.9835 80.6029C25.1937 80.813 25.4787 80.9311 25.776 80.9311H32.5001C32.7973 80.9311 33.0824 80.813 33.2925 80.6029C33.5027 80.3927 33.6208 80.1076 33.6208 79.8104V73.0863C33.6208 72.789 33.5027 72.504 33.2925 72.2938C33.0824 72.0836 32.7973 71.9656 32.5001 71.9656ZM31.3794 78.6897H26.8967V74.207H31.3794V78.6897Z" fill="black"/>
<path d="M43.7071 71.9656H36.983C36.6858 71.9656 36.4007 72.0836 36.1905 72.2938C35.9804 72.504 35.8623 72.789 35.8623 73.0863V79.8104C35.8623 80.1076 35.9804 80.3927 36.1905 80.6029C36.4007 80.813 36.6858 80.9311 36.983 80.9311H43.7071C44.0044 80.9311 44.2894 80.813 44.4996 80.6029C44.7098 80.3927 44.8278 80.1076 44.8278 79.8104V73.0863C44.8278 72.789 44.7098 72.504 44.4996 72.2938C44.2894 72.0836 44.0044 71.9656 43.7071 71.9656ZM42.5864 78.6897H38.1037V74.207H42.5864V78.6897Z" fill="black"/>
<path d="M59.3966 112.31C59.6938 112.31 59.9788 112.192 60.189 111.982C60.3992 111.772 60.5173 111.487 60.5173 111.19V110.069C60.5173 109.772 60.3992 109.487 60.189 109.276C59.9788 109.066 59.6938 108.948 59.3966 108.948C59.0993 108.948 58.8143 109.066 58.6041 109.276C58.394 109.487 58.2759 109.772 58.2759 110.069V111.19C58.2759 111.487 58.394 111.772 58.6041 111.982C58.8143 112.192 59.0993 112.31 59.3966 112.31Z" fill="black"/>
<path d="M50.4312 77.569C50.4312 78.7579 50.9034 79.8981 51.7441 80.7388C52.5848 81.5795 53.725 82.0517 54.9139 82.0517H62.7587C62.9572 82.0521 63.1516 81.9957 63.3191 81.8892C64.1872 81.6309 64.9392 81.0801 65.4473 80.3303C65.9554 79.5805 66.1884 78.678 66.1067 77.7759C66.025 76.8739 65.6337 76.0279 64.9991 75.3816C64.3645 74.7354 63.5258 74.3286 62.6254 74.2305C62.4082 73.3631 61.9359 72.5808 61.2696 71.9846C60.6033 71.3883 59.7736 71.0055 58.8875 70.8856C58.0015 70.7657 57.0998 70.9142 56.299 71.3118C55.4982 71.7095 54.835 72.3381 54.395 73.1165C53.304 73.2451 52.2979 73.7693 51.5674 74.5899C50.8369 75.4104 50.4326 76.4704 50.4312 77.569ZM54.8747 75.3276L55.0405 75.3455C55.2853 75.3616 55.5285 75.297 55.733 75.1616C55.9374 75.0262 56.0918 74.8274 56.1724 74.5958C56.3421 74.0986 56.6816 73.6771 57.1313 73.4056C57.5811 73.134 58.1121 73.0297 58.6312 73.1111C59.1502 73.1925 59.6238 73.4544 59.9689 73.8505C60.3139 74.2467 60.5081 74.7519 60.5174 75.2772C60.5174 75.3041 60.5174 75.3321 60.5118 75.3534C60.507 75.5222 60.5404 75.6899 60.6096 75.844C60.6788 75.9981 60.7819 76.1346 60.9112 76.2432C61.0405 76.3518 61.1927 76.4298 61.3564 76.4714C61.5201 76.5129 61.6911 76.5169 61.8566 76.483C62.1005 76.438 62.3513 76.4465 62.5916 76.508C62.8319 76.5694 63.056 76.6823 63.2483 76.8389C63.4407 76.9954 63.5968 77.1919 63.7057 77.4147C63.8147 77.6375 63.874 77.8814 63.8794 78.1293C63.8795 78.5169 63.7457 78.8925 63.5006 79.1927C63.2556 79.4929 62.9143 79.6992 62.5346 79.7767C62.4922 79.7857 62.4503 79.7969 62.4091 79.8104H54.9139C54.3195 79.8156 53.7473 79.5844 53.3233 79.1678C52.8993 78.7511 52.6581 78.1831 52.6529 77.5886C52.6477 76.9941 52.8789 76.422 53.2955 75.998C53.7122 75.5739 54.2802 75.3328 54.8747 75.3276Z" fill="black"/>
<path d="M7.84496 94.3793H15.6898C15.8882 94.3796 16.0827 94.3232 16.2501 94.2168C17.1182 93.9584 17.8702 93.4076 18.3784 92.6578C18.8865 91.908 19.1195 91.0055 19.0378 90.1035C18.9561 89.2014 18.5647 88.3554 17.9301 87.7091C17.2955 87.0629 16.4568 86.6561 15.5564 86.558C15.3392 85.6906 14.867 84.9083 14.2007 84.3121C13.5344 83.7159 12.7046 83.3331 11.8186 83.2131C10.9325 83.0932 10.0309 83.2417 9.23007 83.6393C8.42925 84.037 7.76604 84.6656 7.32608 85.444C6.19007 85.5767 5.14774 86.1385 4.41245 87.0146C3.67715 87.8906 3.30452 89.0146 3.37083 90.1564C3.43713 91.2982 3.93736 92.3715 4.76911 93.1565C5.60087 93.9416 6.70123 94.379 7.84496 94.3793ZM7.80573 87.6551L7.97159 87.6731C8.21631 87.6891 8.45954 87.6245 8.664 87.4891C8.86845 87.3537 9.02284 87.1549 9.10349 86.9233C9.27312 86.4261 9.61266 86.0046 10.0624 85.7331C10.5121 85.4615 11.0432 85.3573 11.5622 85.4386C12.0812 85.52 12.5549 85.7819 12.8999 86.1781C13.2449 86.5742 13.4391 87.0794 13.4484 87.6047C13.4484 87.6316 13.4484 87.6596 13.4428 87.6809C13.438 87.8497 13.4715 88.0175 13.5406 88.1715C13.6098 88.3256 13.7129 88.4621 13.8422 88.5707C13.9715 88.6793 14.1238 88.7573 14.2875 88.7989C14.4512 88.8404 14.6222 88.8444 14.7876 88.8106C15.0315 88.7655 15.2823 88.774 15.5226 88.8355C15.7629 88.8969 15.987 89.0098 16.1794 89.1664C16.3718 89.3229 16.5278 89.5194 16.6368 89.7422C16.7458 89.965 16.805 90.2089 16.8105 90.4568C16.8106 90.8444 16.6767 91.22 16.4317 91.5202C16.1866 91.8204 15.8453 92.0268 15.4656 92.1043C15.4232 92.1132 15.3813 92.1245 15.3401 92.1379H7.84496C7.25051 92.1431 6.67834 91.9119 6.25432 91.4953C5.8303 91.0786 5.58917 90.5106 5.58397 89.9161C5.57876 89.3217 5.80992 88.7495 6.22658 88.3255C6.64324 87.9015 7.21128 87.6603 7.80573 87.6551Z" fill="black"/>
<path d="M347.879 125.759H344.517V120.054C345.655 119.866 346.724 119.388 347.623 118.665C348.521 117.943 349.218 117.001 349.645 115.93C350.073 114.859 350.217 113.696 350.063 112.554C349.909 111.411 349.463 110.327 348.768 109.408C349.046 108.476 349.075 107.488 348.852 106.542C348.628 105.596 348.161 104.726 347.495 104.017C347.748 103.453 347.879 102.842 347.879 102.224C347.879 101.035 347.407 99.895 346.566 99.0543C345.726 98.2137 344.585 97.7414 343.397 97.7414C342.208 97.7414 341.067 98.2137 340.227 99.0543C339.386 99.895 338.914 101.035 338.914 102.224C338.914 102.842 339.045 103.453 339.298 104.017C338.633 104.726 338.165 105.596 337.942 106.542C337.718 107.488 337.747 108.475 338.025 109.407C337.329 110.326 336.883 111.41 336.729 112.553C336.575 113.696 336.718 114.859 337.146 115.93C337.573 117.001 338.27 117.943 339.169 118.666C340.068 119.389 341.138 119.867 342.276 120.054V121.424L340.656 120.343C340.534 120.262 340.397 120.205 340.252 120.176C340.108 120.148 339.959 120.148 339.815 120.177C339.671 120.206 339.533 120.263 339.411 120.344C339.289 120.426 339.184 120.531 339.102 120.654C339.02 120.776 338.964 120.914 338.935 121.058C338.906 121.202 338.907 121.351 338.935 121.495C338.964 121.64 339.021 121.777 339.103 121.899C339.185 122.022 339.29 122.127 339.412 122.208L342.276 124.117V125.759H333.31V69.7241H336.672C336.97 69.7241 337.255 69.6061 337.465 69.3959C337.675 69.1857 337.793 68.9007 337.793 68.6034V64.1207C337.793 63.8235 337.675 63.5384 337.465 63.3282C337.255 63.1181 336.97 63 336.672 63H300.81C300.513 63 300.228 63.1181 300.018 63.3282C299.808 63.5384 299.69 63.8235 299.69 64.1207V68.6034C299.69 68.9007 299.808 69.1857 300.018 69.3959C300.228 69.6061 300.513 69.7241 300.81 69.7241H304.172V125.759H296.328V123.416C297.465 123.228 298.535 122.75 299.433 122.028C300.332 121.305 301.028 120.363 301.456 119.292C301.883 118.221 302.027 117.058 301.873 115.916C301.72 114.773 301.274 113.69 300.578 112.77C300.856 111.839 300.885 110.851 300.662 109.906C300.438 108.96 299.97 108.09 299.305 107.382C299.559 106.817 299.69 106.205 299.69 105.586C299.69 104.397 299.217 103.257 298.377 102.416C297.536 101.576 296.396 101.103 295.207 101.103C294.018 101.103 292.878 101.576 292.037 102.416C291.196 103.257 290.724 104.397 290.724 105.586C290.724 106.204 290.855 106.815 291.109 107.379C290.443 108.087 289.976 108.958 289.752 109.903C289.529 110.849 289.557 111.837 289.835 112.768C289.14 113.687 288.693 114.771 288.539 115.914C288.385 117.057 288.529 118.22 288.956 119.291C289.384 120.362 290.081 121.305 290.979 122.028C291.878 122.75 292.948 123.229 294.086 123.416V125.759H285.121C284.823 125.759 284.538 125.877 284.328 126.087C284.118 126.297 284 126.582 284 126.879C284 127.177 284.118 127.462 284.328 127.672C284.538 127.882 284.823 128 285.121 128H347.879C348.177 128 348.462 127.882 348.672 127.672C348.882 127.462 349 127.177 349 126.879C349 126.582 348.882 126.297 348.672 126.087C348.462 125.877 348.177 125.759 347.879 125.759ZM338.914 113.431C338.917 112.303 339.349 111.218 340.121 110.395C340.27 110.235 340.368 110.034 340.404 109.818C340.44 109.602 340.412 109.38 340.324 109.18C340.014 108.487 339.951 107.708 340.147 106.973C340.342 106.239 340.783 105.594 341.396 105.146C341.634 104.967 341.791 104.702 341.833 104.408C341.875 104.113 341.799 103.815 341.62 103.577C341.32 103.19 341.156 102.714 341.155 102.224C341.155 101.63 341.391 101.06 341.812 100.639C342.232 100.219 342.802 99.9828 343.397 99.9828C343.991 99.9828 344.561 100.219 344.981 100.639C345.402 101.06 345.638 101.63 345.638 102.224C345.635 102.711 345.472 103.184 345.174 103.569C344.996 103.807 344.919 104.106 344.961 104.4C345.003 104.694 345.16 104.96 345.398 105.138C346.012 105.586 346.453 106.231 346.648 106.966C346.843 107.7 346.78 108.479 346.469 109.172C346.381 109.373 346.353 109.594 346.39 109.81C346.426 110.026 346.525 110.227 346.673 110.387C347.206 110.952 347.582 111.646 347.763 112.4C347.944 113.155 347.925 113.944 347.707 114.689C347.489 115.434 347.08 116.109 346.52 116.646C345.961 117.184 345.27 117.566 344.517 117.755V114.552C344.517 114.254 344.399 113.969 344.189 113.759C343.979 113.549 343.694 113.431 343.397 113.431C343.099 113.431 342.814 113.549 342.604 113.759C342.394 113.969 342.276 114.254 342.276 114.552V117.755C341.316 117.507 340.466 116.948 339.858 116.166C339.249 115.384 338.918 114.422 338.914 113.431ZM290.724 116.793C290.728 115.665 291.159 114.58 291.931 113.757C292.08 113.597 292.179 113.396 292.215 113.18C292.251 112.964 292.223 112.743 292.135 112.542C291.825 111.849 291.762 111.07 291.957 110.335C292.152 109.601 292.593 108.956 293.206 108.508C293.444 108.33 293.601 108.064 293.643 107.77C293.686 107.476 293.609 107.177 293.431 106.939C293.13 106.552 292.967 106.076 292.966 105.586C292.966 104.992 293.202 104.422 293.622 104.001C294.042 103.581 294.612 103.345 295.207 103.345C295.801 103.345 296.371 103.581 296.792 104.001C297.212 104.422 297.448 104.992 297.448 105.586C297.446 106.073 297.283 106.546 296.984 106.931C296.806 107.169 296.729 107.468 296.771 107.762C296.813 108.056 296.971 108.322 297.208 108.5C297.822 108.948 298.263 109.593 298.458 110.328C298.653 111.062 298.59 111.841 298.28 112.534C298.191 112.735 298.164 112.957 298.2 113.172C298.236 113.388 298.335 113.589 298.484 113.749C299.016 114.314 299.392 115.008 299.573 115.763C299.755 116.517 299.735 117.306 299.517 118.051C299.299 118.796 298.89 119.471 298.331 120.009C297.771 120.546 297.081 120.928 296.328 121.117V117.914C296.328 117.617 296.21 117.332 295.999 117.121C295.789 116.911 295.504 116.793 295.207 116.793C294.91 116.793 294.625 116.911 294.414 117.121C294.204 117.332 294.086 117.617 294.086 117.914V121.117C293.127 120.869 292.276 120.31 291.668 119.528C291.06 118.746 290.728 117.784 290.724 116.793ZM301.931 65.2414H335.552V67.4828H301.931V65.2414ZM316.5 125.759V119.034H320.983V125.759H316.5ZM323.224 125.759V117.914C323.224 117.617 323.106 117.332 322.896 117.121C322.686 116.911 322.401 116.793 322.103 116.793H315.379C315.082 116.793 314.797 116.911 314.587 117.121C314.377 117.332 314.259 117.617 314.259 117.914V125.759H306.414V69.7241H331.069V125.759H323.224Z" fill="black"/>
<path d="M316.5 94.3793H309.776C309.479 94.3793 309.194 94.4973 308.984 94.7075C308.773 94.9177 308.655 95.2027 308.655 95.5V102.224C308.655 102.521 308.773 102.806 308.984 103.017C309.194 103.227 309.479 103.345 309.776 103.345H316.5C316.797 103.345 317.082 103.227 317.293 103.017C317.503 102.806 317.621 102.521 317.621 102.224V95.5C317.621 95.2027 317.503 94.9177 317.293 94.7075C317.082 94.4973 316.797 94.3793 316.5 94.3793ZM315.379 101.103H310.897V96.6207H315.379V101.103Z" fill="black"/>
<path d="M327.707 94.3793H320.983C320.686 94.3793 320.401 94.4973 320.191 94.7075C319.98 94.9177 319.862 95.2027 319.862 95.5V102.224C319.862 102.521 319.98 102.806 320.191 103.017C320.401 103.227 320.686 103.345 320.983 103.345H327.707C328.004 103.345 328.289 103.227 328.5 103.017C328.71 102.806 328.828 102.521 328.828 102.224V95.5C328.828 95.2027 328.71 94.9177 328.5 94.7075C328.289 94.4973 328.004 94.3793 327.707 94.3793ZM326.586 101.103H322.104V96.6207H326.586V101.103Z" fill="black"/>
<path d="M316.5 83.1724H309.776C309.479 83.1724 309.194 83.2904 308.984 83.5006C308.773 83.7108 308.655 83.9958 308.655 84.2931V91.0172C308.655 91.3144 308.773 91.5995 308.984 91.8096C309.194 92.0198 309.479 92.1379 309.776 92.1379H316.5C316.797 92.1379 317.082 92.0198 317.293 91.8096C317.503 91.5995 317.621 91.3144 317.621 91.0172V84.2931C317.621 83.9958 317.503 83.7108 317.293 83.5006C317.082 83.2904 316.797 83.1724 316.5 83.1724ZM315.379 89.8965H310.897V85.4137H315.379V89.8965Z" fill="black"/>
<path d="M327.707 83.1724H320.983C320.686 83.1724 320.401 83.2904 320.191 83.5006C319.98 83.7108 319.862 83.9958 319.862 84.2931V91.0172C319.862 91.3144 319.98 91.5995 320.191 91.8096C320.401 92.0198 320.686 92.1379 320.983 92.1379H327.707C328.004 92.1379 328.289 92.0198 328.5 91.8096C328.71 91.5995 328.828 91.3144 328.828 91.0172V84.2931C328.828 83.9958 328.71 83.7108 328.5 83.5006C328.289 83.2904 328.004 83.1724 327.707 83.1724ZM326.586 89.8965H322.104V85.4137H326.586V89.8965Z" fill="black"/>
<path d="M316.5 105.586H309.776C309.479 105.586 309.194 105.704 308.984 105.914C308.773 106.125 308.655 106.41 308.655 106.707V113.431C308.655 113.728 308.773 114.013 308.984 114.223C309.194 114.434 309.479 114.552 309.776 114.552H316.5C316.797 114.552 317.082 114.434 317.293 114.223C317.503 114.013 317.621 113.728 317.621 113.431V106.707C317.621 106.41 317.503 106.125 317.293 105.914C317.082 105.704 316.797 105.586 316.5 105.586ZM315.379 112.31H310.897V107.828H315.379V112.31Z" fill="black"/>
<path d="M327.707 105.586H320.983C320.686 105.586 320.401 105.704 320.191 105.914C319.98 106.125 319.862 106.41 319.862 106.707V113.431C319.862 113.728 319.98 114.013 320.191 114.223C320.401 114.434 320.686 114.552 320.983 114.552H327.707C328.004 114.552 328.289 114.434 328.5 114.223C328.71 114.013 328.828 113.728 328.828 113.431V106.707C328.828 106.41 328.71 106.125 328.5 105.914C328.289 105.704 328.004 105.586 327.707 105.586ZM326.586 112.31H322.104V107.828H326.586V112.31Z" fill="black"/>
<path d="M316.5 71.9656H309.776C309.479 71.9656 309.194 72.0836 308.984 72.2938C308.773 72.504 308.655 72.789 308.655 73.0863V79.8104C308.655 80.1076 308.773 80.3927 308.984 80.6029C309.194 80.813 309.479 80.9311 309.776 80.9311H316.5C316.797 80.9311 317.082 80.813 317.293 80.6029C317.503 80.3927 317.621 80.1076 317.621 79.8104V73.0863C317.621 72.789 317.503 72.504 317.293 72.2938C317.082 72.0836 316.797 71.9656 316.5 71.9656ZM315.379 78.6897H310.897V74.207H315.379V78.6897Z" fill="black"/>
<path d="M327.707 71.9656H320.983C320.686 71.9656 320.401 72.0836 320.191 72.2938C319.98 72.504 319.862 72.789 319.862 73.0863V79.8104C319.862 80.1076 319.98 80.3927 320.191 80.6029C320.401 80.813 320.686 80.9311 320.983 80.9311H327.707C328.004 80.9311 328.289 80.813 328.5 80.6029C328.71 80.3927 328.828 80.1076 328.828 79.8104V73.0863C328.828 72.789 328.71 72.504 328.5 72.2938C328.289 72.0836 328.004 71.9656 327.707 71.9656ZM326.586 78.6897H322.104V74.207H326.586V78.6897Z" fill="black"/>
<path d="M343.397 112.31C343.694 112.31 343.979 112.192 344.189 111.982C344.399 111.772 344.517 111.487 344.517 111.19V110.069C344.517 109.772 344.399 109.487 344.189 109.276C343.979 109.066 343.694 108.948 343.397 108.948C343.099 108.948 342.814 109.066 342.604 109.276C342.394 109.487 342.276 109.772 342.276 110.069V111.19C342.276 111.487 342.394 111.772 342.604 111.982C342.814 112.192 343.099 112.31 343.397 112.31Z" fill="black"/>
<path d="M334.431 77.569C334.431 78.7579 334.903 79.8981 335.744 80.7388C336.585 81.5795 337.725 82.0517 338.914 82.0517H346.759C346.957 82.0521 347.152 81.9957 347.319 81.8892C348.187 81.6309 348.939 81.0801 349.447 80.3303C349.955 79.5805 350.188 78.678 350.107 77.7759C350.025 76.8739 349.634 76.0279 348.999 75.3816C348.364 74.7354 347.526 74.3286 346.625 74.2305C346.408 73.3631 345.936 72.5808 345.27 71.9846C344.603 71.3883 343.774 71.0055 342.888 70.8856C342.001 70.7657 341.1 70.9142 340.299 71.3118C339.498 71.7095 338.835 72.3381 338.395 73.1165C337.304 73.2451 336.298 73.7693 335.567 74.5899C334.837 75.4104 334.433 76.4704 334.431 77.569ZM338.875 75.3276L339.041 75.3455C339.285 75.3616 339.528 75.297 339.733 75.1616C339.937 75.0262 340.092 74.8274 340.172 74.5958C340.342 74.0986 340.682 73.6771 341.131 73.4056C341.581 73.134 342.112 73.0297 342.631 73.1111C343.15 73.1925 343.624 73.4544 343.969 73.8505C344.314 74.2467 344.508 74.7519 344.517 75.2772C344.517 75.3041 344.517 75.3321 344.512 75.3534C344.507 75.5222 344.54 75.6899 344.61 75.844C344.679 75.9981 344.782 76.1346 344.911 76.2432C345.041 76.3518 345.193 76.4298 345.356 76.4714C345.52 76.5129 345.691 76.5169 345.857 76.483C346.1 76.438 346.351 76.4465 346.592 76.508C346.832 76.5694 347.056 76.6823 347.248 76.8389C347.441 76.9954 347.597 77.1919 347.706 77.4147C347.815 77.6375 347.874 77.8814 347.879 78.1293C347.88 78.5169 347.746 78.8925 347.501 79.1927C347.256 79.4929 346.914 79.6992 346.535 79.7767C346.492 79.7857 346.45 79.7969 346.409 79.8104H338.914C338.319 79.8156 337.747 79.5844 337.323 79.1678C336.899 78.7511 336.658 78.1831 336.653 77.5886C336.648 76.9941 336.879 76.422 337.296 75.998C337.712 75.5739 338.28 75.3328 338.875 75.3276Z" fill="black"/>
<path d="M291.845 94.3793H299.69C299.888 94.3796 300.083 94.3232 300.25 94.2168C301.118 93.9584 301.87 93.4076 302.378 92.6578C302.886 91.908 303.119 91.0055 303.038 90.1035C302.956 89.2014 302.565 88.3554 301.93 87.7091C301.296 87.0629 300.457 86.6561 299.556 86.558C299.339 85.6906 298.867 84.9083 298.201 84.3121C297.534 83.7159 296.705 83.3331 295.819 83.2131C294.933 83.0932 294.031 83.2417 293.23 83.6393C292.429 84.037 291.766 84.6656 291.326 85.444C290.19 85.5767 289.148 86.1385 288.412 87.0146C287.677 87.8906 287.305 89.0146 287.371 90.1564C287.437 91.2982 287.937 92.3715 288.769 93.1565C289.601 93.9416 290.701 94.379 291.845 94.3793ZM291.806 87.6551L291.972 87.6731C292.216 87.6891 292.46 87.6245 292.664 87.4891C292.868 87.3537 293.023 87.1549 293.103 86.9233C293.273 86.4261 293.613 86.0046 294.062 85.7331C294.512 85.4615 295.043 85.3573 295.562 85.4386C296.081 85.52 296.555 85.7819 296.9 86.1781C297.245 86.5742 297.439 87.0794 297.448 87.6047C297.448 87.6316 297.448 87.6596 297.443 87.6809C297.438 87.8497 297.471 88.0175 297.541 88.1715C297.61 88.3256 297.713 88.4621 297.842 88.5707C297.972 88.6793 298.124 88.7573 298.287 88.7989C298.451 88.8404 298.622 88.8444 298.788 88.8106C299.032 88.7655 299.282 88.774 299.523 88.8355C299.763 88.8969 299.987 89.0098 300.179 89.1664C300.372 89.3229 300.528 89.5194 300.637 89.7422C300.746 89.965 300.805 90.2089 300.81 90.4568C300.811 90.8444 300.677 91.22 300.432 91.5202C300.187 91.8204 299.845 92.0268 299.466 92.1043C299.423 92.1132 299.381 92.1245 299.34 92.1379H291.845C291.251 92.1431 290.678 91.9119 290.254 91.4953C289.83 91.0786 289.589 90.5106 289.584 89.9161C289.579 89.3217 289.81 88.7495 290.227 88.3255C290.643 87.9015 291.211 87.6603 291.806 87.6551Z" fill="black"/>
</svg>
