<svg width="24" height="22" viewBox="0 0 24 22" fill="none" xmlns="http://www.w3.org/2000/svg">
<path d="M18.8042 13.7938L16.3409 13.5453C16.0512 13.5152 15.7576 13.5435 15.4822 13.6281C15.2067 13.7128 14.9565 13.8515 14.7504 14.0338L12.9659 15.611C10.2128 14.3734 7.97507 12.3957 6.57488 9.96239L8.36903 8.37668C8.78605 8.00811 8.98971 7.49382 8.92182 6.97097L8.64057 4.81097C8.58559 4.39283 8.35855 4.00717 8.00267 3.72741C7.64679 3.44765 7.18693 3.29332 6.71065 3.29382H5.03288C3.93699 3.29382 3.02537 4.09954 3.09325 5.06811C3.60725 12.3881 10.2311 18.2338 18.5036 18.6881C19.5994 18.7481 20.5111 17.9424 20.5111 16.9738V15.491C20.5208 14.6252 19.7837 13.8967 18.8042 13.7938Z" fill="black"/>
</svg>
