<svg width="212" height="200" viewBox="0 0 212 200" fill="none" xmlns="http://www.w3.org/2000/svg">
<g clip-path="url(#clip0)">
<path d="M211.582 198.946H68.8031V199.561H211.582V198.946Z" fill="#3F3D56"/>
<path d="M184.936 94.227C185.211 94.5499 185.415 94.9269 185.535 95.3337C185.655 95.7405 185.688 96.1679 185.632 96.5882C185.576 97.0086 185.432 97.4126 185.211 97.774C184.989 98.1353 184.693 98.4461 184.344 98.6861L169.567 108.831L163.061 113.169C162.691 113.415 162.243 113.515 161.804 113.45C161.364 113.384 160.965 113.157 160.684 112.813C160.52 112.613 160.402 112.379 160.337 112.129C160.272 111.878 160.262 111.616 160.308 111.361C160.355 111.106 160.456 110.865 160.604 110.653C160.753 110.441 160.946 110.264 161.17 110.134L167.472 106.474L178.471 95.9993L171.401 88.4049L176.638 84.4768L184.936 94.227Z" fill="#A0616A"/>
<path d="M150.189 189.751H146.574L144.427 159.897L153.593 159.635L150.189 189.751Z" fill="#A0616A"/>
<path d="M150.45 199.44C149.487 199.88 148.679 196.316 147.866 197.115C145.592 199.35 142.11 199.836 139.075 198.861L140.137 198.849C139.954 198.79 139.785 198.695 139.64 198.568C139.495 198.442 139.376 198.288 139.293 198.115C139.209 197.941 139.161 197.753 139.152 197.561C139.144 197.369 139.174 197.177 139.241 196.996C139.322 196.781 139.454 196.588 139.626 196.435C139.798 196.282 140.004 196.172 140.228 196.117L142.646 195.512L146.443 188.834L150.32 188.572C151.184 189.674 151.787 190.957 152.084 192.326C152.38 193.694 152.363 195.112 152.032 196.473C151.681 197.909 151.138 199.126 150.45 199.44Z" fill="#2F2E41"/>
<path d="M174.255 189.751H170.641L168.494 159.897L177.921 158.064L174.255 189.751Z" fill="#A0616A"/>
<path d="M174.517 199.44C173.553 199.88 172.746 196.316 171.933 197.115C169.659 199.35 166.177 199.836 163.142 198.861L164.204 198.849C164.021 198.79 163.852 198.695 163.706 198.568C163.561 198.442 163.443 198.288 163.359 198.115C163.276 197.941 163.228 197.753 163.219 197.561C163.21 197.369 163.24 197.177 163.308 196.996C163.389 196.781 163.521 196.588 163.693 196.435C163.864 196.282 164.071 196.172 164.294 196.117L166.713 195.512L170.51 188.834L174.648 188.31L174.753 188.481C175.553 189.771 176.068 191.216 176.266 192.72C176.463 194.225 176.337 195.754 175.896 197.206C175.552 198.309 175.083 199.182 174.517 199.44Z" fill="#2F2E41"/>
<path d="M178.354 85.1521C175.03 85.6146 172.729 87.4349 171.791 91.0662L165.681 79.7853C165.319 79.0684 165.227 78.245 165.423 77.4658C165.618 76.6867 166.088 76.0042 166.746 75.5432C167.444 75.054 168.303 74.8502 169.146 74.9737C169.99 75.0972 170.754 75.5385 171.283 76.2074L178.354 85.1521Z" fill="#7966FE"/>
<path d="M184.756 156.754C169.901 163.327 154.697 164.136 139.19 159.897C144.853 137.934 151.539 118.074 151.498 101.761L166.687 100.451L169.025 104.159C174.574 112.955 178.404 122.724 180.312 132.948L184.756 156.754Z" fill="#2F2E41"/>
<path d="M159.878 67.9786C164.217 67.9786 167.734 64.4613 167.734 60.1224C167.734 55.7835 164.217 52.2661 159.878 52.2661C155.539 52.2661 152.022 55.7835 152.022 60.1224C152.022 64.4613 155.539 67.9786 159.878 67.9786Z" fill="#A0616A"/>
<path d="M168.52 74.0017L158.831 74.5255L157.259 65.8835L165.115 64.5743L168.52 74.0017Z" fill="#A0616A"/>
<path d="M167.472 101.761L156.857 102.06L151.498 102.808C148.867 94.1183 146.653 85.4484 152.022 78.1918L158.307 71.9068L167.734 71.645L167.859 71.7163C169.356 72.5741 170.517 73.9163 171.149 75.5218C171.781 77.1273 171.848 78.9002 171.337 80.5486C168.998 88.151 167.495 95.3302 167.472 101.761Z" fill="#7966FE"/>
<path d="M151.236 126.115L150.578 135.114C150.542 135.596 150.334 136.049 149.991 136.39C149.648 136.73 149.194 136.936 148.712 136.968C148.434 136.986 148.155 136.947 147.894 136.852C147.632 136.756 147.393 136.608 147.192 136.415C146.991 136.222 146.832 135.99 146.726 135.733C146.619 135.475 146.568 135.198 146.575 134.92L146.784 126.115L153.331 101.237L153.593 86.0481L160.925 85.7862L160.402 103.332L151.236 126.115Z" fill="#A0616A"/>
<path d="M161.711 87.0956C158.602 85.8314 155.699 86.2548 153.069 88.9287L153.429 76.1045C153.475 75.3025 153.808 74.5438 154.367 73.9673C154.926 73.3908 155.675 73.0352 156.475 72.9656C157.324 72.8917 158.17 73.1454 158.838 73.6747C159.507 74.204 159.947 74.9688 160.07 75.8125L161.711 87.0956Z" fill="#7966FE"/>
<path d="M176.507 95.0828H152.415C158.035 80.2 159.847 66.3546 152.415 54.4921C152.542 50.9292 157.112 47.8404 160.661 48.1817C164.852 48.5847 170.484 51.6647 171.27 55.8015L176.507 95.0828Z" fill="#2F2E41"/>
<path d="M99.7253 47.5275H98.6264V17.4234C98.6264 15.1353 98.1757 12.8697 97.3001 10.7558C96.4245 8.64184 95.1411 6.7211 93.5232 5.10318C91.9052 3.48527 89.9845 2.20187 87.8706 1.32626C85.7567 0.450657 83.491 -6.85674e-06 81.2029 0H17.4234C15.1354 -5.05232e-06 12.8697 0.450662 10.7558 1.32627C8.64187 2.20188 6.72112 3.48527 5.10321 5.10319C3.48529 6.72111 2.20189 8.64185 1.32628 10.7558C0.450666 12.8697 -2.52619e-06 15.1353 0 17.4234V182.577C-1.80442e-06 184.865 0.450666 187.13 1.32628 189.244C2.20189 191.358 3.48529 193.279 5.10321 194.897C6.72112 196.515 8.64187 197.798 10.7558 198.674C12.8697 199.549 15.1354 200 17.4234 200H81.2029C83.491 200 85.7567 199.549 87.8706 198.674C89.9845 197.798 91.9052 196.515 93.5232 194.897C95.1411 193.279 96.4245 191.358 97.3001 189.244C98.1757 187.13 98.6264 184.865 98.6264 182.577V68.956H99.7253V47.5275Z" fill="#3F3D56"/>
<path d="M81.9059 4.53302H73.5806C73.9634 5.47167 74.1095 6.49007 74.0061 7.49851C73.9027 8.50694 73.5528 9.47447 72.9874 10.3158C72.4219 11.1572 71.6582 11.8466 70.7636 12.3233C69.8689 12.8001 68.8708 13.0494 67.8571 13.0495H31.3186C30.3049 13.0494 29.3067 12.8001 28.4121 12.3233C27.5174 11.8466 26.7537 11.1572 26.1883 10.3158C25.6228 9.47447 25.273 8.50695 25.1696 7.49851C25.0661 6.49007 25.2123 5.47167 25.5951 4.53302H17.8192C16.1105 4.53302 14.4186 4.86957 12.8399 5.52346C11.2613 6.17735 9.82688 7.13578 8.61864 8.34402C7.4104 9.55226 6.45197 10.9866 5.79807 12.5653C5.14418 14.1439 4.80762 15.8359 4.80762 17.5446V182.455C4.80762 184.164 5.14417 185.856 5.79807 187.435C6.45196 189.013 7.41039 190.448 8.61863 191.656C9.82688 192.864 11.2613 193.823 12.8399 194.477C14.4186 195.131 16.1105 195.467 17.8192 195.467H81.9059C83.6146 195.467 85.3066 195.131 86.8852 194.477C88.4639 193.823 89.8982 192.864 91.1065 191.656C92.3147 190.448 93.2732 189.013 93.9271 187.435C94.581 185.856 94.9175 184.164 94.9175 182.455V17.5446C94.9175 14.0937 93.5466 10.7842 91.1065 8.34401C88.6663 5.90387 85.3568 4.53301 81.9059 4.53302Z" fill="white"/>
<path d="M36.1222 100.37C38.8541 100.37 41.0688 98.1549 41.0688 95.423C41.0688 92.6911 38.8541 90.4764 36.1222 90.4764C33.3903 90.4764 31.1757 92.6911 31.1757 95.423C31.1757 98.1549 33.3903 100.37 36.1222 100.37Z" fill="#7966FE"/>
<path d="M38.5955 95.0108H36.5344V92.9498H35.71V95.0108H33.6489V95.8353H35.71V97.8963H36.5344V95.8353H38.5955V95.0108Z" fill="white"/>
<path d="M62.229 100.37C64.9609 100.37 67.1756 98.1549 67.1756 95.423C67.1756 92.6911 64.9609 90.4764 62.229 90.4764C59.4971 90.4764 57.2825 92.6911 57.2825 95.423C57.2825 98.1549 59.4971 100.37 62.229 100.37Z" fill="#7966FE"/>
<path d="M64.7024 95.8352V95.0107H59.7558V95.8352H64.7024Z" fill="white"/>
<path d="M83.6642 30.2932H16.0612V88.2779H83.6642V30.2932Z" fill="#E6E6E6"/>
<path d="M52.384 37.5248H47.0417C46.8538 37.5248 46.6737 37.5994 46.5408 37.7322C46.408 37.8651 46.3334 38.0452 46.3334 38.2331V40.578C46.3334 40.7658 46.408 40.946 46.5408 41.0788C46.6737 41.2116 46.8538 41.2863 47.0417 41.2863H47.927V44.7998H51.4987V41.2863H52.384C52.5719 41.2863 52.752 41.2116 52.8848 41.0788C53.0177 40.946 53.0923 40.7658 53.0923 40.578V38.2331C53.0923 38.0452 53.0177 37.8651 52.8848 37.7322C52.752 37.5994 52.5719 37.5248 52.384 37.5248Z" fill="#7966FE"/>
<path d="M57.7349 58.9854C54.463 54.1979 52.7904 48.4976 52.9566 42.7013C52.9596 42.5675 52.9162 42.4369 52.8338 42.3315C52.7514 42.2261 52.635 42.1525 52.5045 42.1232V41.11H46.8623V42.1091H46.7845C46.7085 42.1092 46.6332 42.1243 46.563 42.1535C46.4928 42.1827 46.429 42.2254 46.3754 42.2792C46.3217 42.3331 46.2791 42.3969 46.2501 42.4672C46.2211 42.5375 46.2062 42.6128 46.2063 42.6888C46.2063 42.7029 46.2069 42.7169 46.2079 42.731C46.6524 48.9272 45.1514 54.4839 41.705 59.401C41.5066 59.6836 41.4053 60.0229 41.4162 60.3679L42.0332 79.4519C42.048 79.8776 42.2266 80.2811 42.5318 80.5782C42.837 80.8753 43.2452 81.043 43.6711 81.0464H56.4329C56.8637 81.0429 57.2761 80.8713 57.5822 80.5682C57.8883 80.2652 58.064 79.8545 58.0718 79.4238L58.3096 60.8948C58.3166 60.2147 58.1161 59.5486 57.7349 58.9854Z" fill="#3F3D56"/>
<path opacity="0.2" d="M51.2702 38.2888C51.2702 38.6941 51.1092 39.0828 50.8226 39.3693C50.5361 39.6559 50.1474 39.8169 49.7421 39.8169C49.3368 39.8169 48.9481 39.6559 48.6616 39.3693C48.375 39.0828 48.214 38.6941 48.214 38.2888" fill="black"/>
<path d="M55.7146 65.3245H54.1692C54.0217 64.3672 53.5364 63.4942 52.8012 62.8636C52.0659 62.233 51.1292 61.8863 50.1606 61.8863C49.1919 61.8863 48.2552 62.233 47.5199 62.8636C46.7847 63.4942 46.2994 64.3672 46.1519 65.3245H44.6064C44.442 65.3245 44.2795 65.3601 44.1301 65.4288C43.9807 65.4974 43.8479 65.5976 43.7408 65.7224C43.6338 65.8472 43.555 65.9937 43.5098 66.1518C43.4646 66.3099 43.4542 66.4759 43.4792 66.6384L45.1578 77.5494H54.7966L56.8355 66.6752C56.8664 66.5105 56.8606 66.341 56.8186 66.1788C56.7765 66.0166 56.6992 65.8656 56.5922 65.7367C56.4852 65.6077 56.3511 65.5039 56.1994 65.4327C56.0477 65.3615 55.8822 65.3245 55.7146 65.3245V65.3245Z" fill="#7966FE"/>
<path d="M36.1222 181.988C38.8541 181.988 41.0688 179.773 41.0688 177.041C41.0688 174.309 38.8541 172.095 36.1222 172.095C33.3903 172.095 31.1757 174.309 31.1757 177.041C31.1757 179.773 33.3903 181.988 36.1222 181.988Z" fill="#7966FE"/>
<path d="M38.5955 176.629H36.5344V174.568H35.71V176.629H33.6489V177.454H35.71V179.515H36.5344V177.454H38.5955V176.629Z" fill="white"/>
<path d="M62.229 181.988C64.9609 181.988 67.1756 179.773 67.1756 177.041C67.1756 174.309 64.9609 172.095 62.229 172.095C59.4971 172.095 57.2825 174.309 57.2825 177.041C57.2825 179.773 59.4971 181.988 62.229 181.988Z" fill="#7966FE"/>
<path d="M64.7024 177.453V176.629H59.7558V177.453H64.7024Z" fill="white"/>
<path d="M83.6642 111.911H16.0612V169.896H83.6642V111.911Z" fill="#E6E6E6"/>
<path d="M63.1711 153.105L63.2084 153.105C64.4813 153.115 65.7278 152.742 66.7853 152.034C67.8428 151.325 68.6623 150.315 69.1369 149.134C70.6323 145.353 70.9824 141.215 70.1437 137.237C69.3049 133.258 67.3144 129.614 64.4199 126.758C61.5254 123.902 57.8549 121.961 53.8653 121.176C49.8757 120.391 45.7433 120.797 41.9827 122.344C38.2222 123.89 34.9995 126.508 32.7161 129.873C30.4326 133.237 29.1892 137.199 29.1408 141.264C29.0923 145.33 30.2409 149.321 32.4435 152.738C34.6461 156.156 37.8054 158.851 41.528 160.486C42.685 160.998 43.9698 161.149 45.214 160.918C46.4581 160.688 47.6035 160.086 48.4999 159.193C50.4226 157.26 52.7089 155.727 55.2269 154.682C57.7449 153.637 60.4449 153.101 63.1711 153.105Z" fill="white"/>
<path d="M52.5243 146.831C56.3044 146.831 59.3687 143.766 59.3687 139.986C59.3687 136.206 56.3044 133.142 52.5243 133.142C48.7443 133.142 45.6799 136.206 45.6799 139.986C45.6799 143.766 48.7443 146.831 52.5243 146.831Z" fill="#F9A825"/>
</g>
<defs>
<clipPath id="clip0">
<rect width="211.582" height="200" fill="white"/>
</clipPath>
</defs>
</svg>
