<svg width="276" height="200" viewBox="0 0 276 200" fill="none" xmlns="http://www.w3.org/2000/svg">
<g clip-path="url(#clip0)">
<path d="M118.092 187.042C169.743 187.042 211.614 145.172 211.614 93.5212C211.614 41.8709 169.743 0 118.092 0C66.4421 0 24.5712 41.8709 24.5712 93.5212C24.5712 145.172 66.4421 187.042 118.092 187.042Z" fill="#F2F2F2"/>
<path d="M37.1076 200C57.6016 200 74.2152 197.342 74.2152 194.063C74.2152 190.784 57.6016 188.126 37.1076 188.126C16.6136 188.126 0 190.784 0 194.063C0 197.342 16.6136 200 37.1076 200Z" fill="#F2F2F2"/>
<path d="M218.132 193.965C249.843 193.965 275.549 189.852 275.549 184.778C275.549 179.704 249.843 175.591 218.132 175.591C186.422 175.591 160.716 179.704 160.716 184.778C160.716 189.852 186.422 193.965 218.132 193.965Z" fill="#F2F2F2"/>
<path d="M205.376 96.476C205.376 96.476 205.864 98.1054 203.094 99.5718C200.324 101.038 199.51 106.578 202.768 108.208C206.027 109.837 207.005 111.955 205.376 113.422C203.746 114.888 200.813 118.799 204.724 119.777C208.634 120.754 209.123 122.71 207.983 123.524C206.842 124.339 210.59 122.058 210.59 122.058C210.59 122.058 211.241 125.968 214.663 124.991C218.085 124.013 227.699 105.438 222.81 102.831C217.922 100.224 205.376 96.476 205.376 96.476Z" fill="#2F2E41"/>
<path d="M211.281 112.21C211.281 112.21 212.972 118.125 210.014 118.548C208.178 118.834 206.439 119.559 204.943 120.661L210.436 127.844H220.577L226.916 121.506C226.916 121.506 218.465 115.167 220.155 111.365C221.845 107.562 211.281 112.21 211.281 112.21Z" fill="#FFB9B9"/>
<path opacity="0.1" d="M211.281 112.21C211.281 112.21 212.972 118.125 210.014 118.548C208.178 118.834 206.439 119.559 204.943 120.661L210.436 127.844H220.577L226.916 121.506C226.916 121.506 218.465 115.167 220.155 111.365C221.845 107.562 211.281 112.21 211.281 112.21Z" fill="black"/>
<path d="M213.817 185.733L223.535 189.114L230.296 189.536L229.874 183.62L215.929 179.496L213.817 185.733Z" fill="#FFB9B9"/>
<path d="M226.282 184.465C226.282 184.465 226.282 190.381 227.127 190.381C227.972 190.381 239.381 189.114 242.761 190.381C246.142 191.649 251.212 187.001 248.677 184.465C246.142 181.93 242.006 178.127 239.426 178.972C236.846 179.817 226.282 181.93 226.282 181.93V184.465Z" fill="#575A89"/>
<path d="M195.224 178.972C195.224 178.972 190.154 189.114 193.534 189.959C196.915 190.804 200.718 189.536 201.14 189.114C201.563 188.691 207.478 187.001 208.324 187.846C209.169 188.691 209.169 184.466 209.169 184.466L195.224 178.972Z" fill="#575A89"/>
<path d="M199.45 165.028C199.45 165.028 191.422 176.015 197.337 178.972C203.253 181.93 231.564 181.93 233.677 178.972C235.789 176.015 236.634 166.718 233.677 165.873C230.719 165.028 199.45 165.028 199.45 165.028Z" fill="#2F2E41"/>
<path opacity="0.2" d="M199.45 165.028C199.45 165.028 191.422 176.015 197.337 178.972C203.253 181.93 231.564 181.93 233.677 178.972C235.789 176.015 236.634 166.718 233.677 165.873C230.719 165.028 199.45 165.028 199.45 165.028Z" fill="black"/>
<path d="M214.662 115.167C220.029 115.167 224.38 110.816 224.38 105.449C224.38 100.081 220.029 95.7302 214.662 95.7302C209.294 95.7302 204.943 100.081 204.943 105.449C204.943 110.816 209.294 115.167 214.662 115.167Z" fill="#FFB9B9"/>
<path d="M199.45 120.661L207.901 118.97C207.901 118.97 210.014 125.731 216.775 124.464C223.535 123.196 225.225 118.97 225.225 118.97C225.225 118.97 230.296 121.083 230.719 121.083C231.141 121.083 236.634 123.196 236.634 124.464C236.634 125.731 230.296 138.408 230.296 138.408L231.141 161.225L199.873 160.38L201.985 137.985L199.45 120.661Z" fill="#6C63FF"/>
<path d="M194.802 131.647C194.802 131.647 192.267 154.042 193.957 155.732C195.647 157.422 202.408 162.07 202.408 162.07V157L199.027 150.662L202.408 135.872L194.802 131.647Z" fill="#FFB9B9"/>
<path d="M238.536 131.013C238.536 131.013 237.057 154.042 237.057 154.887C237.057 155.732 233.254 158.69 231.986 158.69C230.719 158.69 229.874 156.577 229.874 156.577L232.831 153.197L230.719 135.872L238.536 131.013Z" fill="#FFB9B9"/>
<path d="M234.522 163.338C234.522 163.338 253.536 152.774 253.959 163.338C254.381 173.902 244.24 178.127 244.24 178.127C244.24 178.127 218.042 185.983 216.986 183.112C215.929 180.24 213.817 175.592 215.507 175.169C217.197 174.747 219.31 173.902 220.155 174.747C221 175.592 231.564 168.409 231.564 168.409L234.522 163.338Z" fill="#2F2E41"/>
<path opacity="0.2" d="M243.395 162.07C243.395 162.07 239.592 163.761 238.325 165.028C237.057 166.296 231.564 168.409 231.564 168.409" stroke="black" stroke-width="2" stroke-miterlimit="10"/>
<path d="M201.985 121.506L199.45 120.661C199.45 120.661 190.154 130.379 193.112 132.915C196.07 135.45 197.76 136.295 198.605 137.14C199.45 137.985 203.675 138.408 203.675 138.408L201.985 121.506Z" fill="#6C63FF"/>
<path d="M232.831 123.618L236.634 124.464C236.634 124.464 239.592 130.802 240.437 131.647C241.282 132.492 239.17 132.069 237.902 133.76C236.634 135.45 235.367 138.408 232.831 138.408C230.296 138.408 226.916 134.182 226.916 134.182L232.831 123.618Z" fill="#6C63FF"/>
<path d="M200.295 167.141C200.295 167.141 184.238 155.732 178.745 164.183C173.252 172.634 202.408 184.043 206.633 185.733C210.859 187.423 214.662 189.114 214.662 189.114C214.662 189.114 218.465 179.818 218.465 178.127C218.465 176.437 215.507 176.437 214.662 176.437C213.817 176.437 210.014 175.592 209.169 174.324C208.324 173.057 200.295 167.141 200.295 167.141Z" fill="#2F2E41"/>
<path opacity="0.2" d="M191.422 164.183C191.422 164.183 195.647 167.564 199.45 168.409C203.253 169.254 204.521 171.367 204.521 171.367" stroke="black" stroke-width="2" stroke-miterlimit="10"/>
<path d="M197.38 148.295L197.718 166.186C197.729 166.777 197.973 167.34 198.397 167.752C198.822 168.163 199.391 168.39 199.982 168.384L233.276 168.01C233.844 168.003 234.387 167.782 234.798 167.39C235.208 166.998 235.454 166.465 235.487 165.899L236.498 148.382C236.515 148.078 236.47 147.773 236.366 147.486C236.262 147.2 236.1 146.938 235.89 146.716C235.681 146.494 235.429 146.317 235.149 146.197C234.868 146.076 234.567 146.014 234.262 146.014H199.62C199.322 146.014 199.027 146.073 198.753 146.188C198.478 146.303 198.23 146.472 198.021 146.685C197.813 146.897 197.648 147.149 197.538 147.425C197.428 147.702 197.375 147.998 197.38 148.295Z" fill="#575A89"/>
<path d="M215.181 93.2403C215.181 93.2403 215.723 95.0454 212.654 96.6699C209.585 98.2945 208.683 104.432 212.293 106.237C215.903 108.042 216.986 110.388 215.181 112.013C213.376 113.638 210.127 117.97 214.459 119.053C218.791 120.136 219.333 122.302 218.069 123.204C216.806 124.107 220.957 121.58 220.957 121.58C220.957 121.58 221.679 125.912 225.47 124.829C229.261 123.746 233.043 104.059 228.817 98.9882C224.888 94.2734 215.181 93.2403 215.181 93.2403Z" fill="#2F2E41"/>
<path d="M214.028 91.3823C214.029 88.7378 221.941 90.638 225.333 94.3304C227.682 96.8872 231.25 100.734 228.26 103.446C225.27 106.157 233.385 109.712 235.561 110.789C237.737 111.867 242.034 115.163 238.154 117.374C234.274 119.585 234.337 121.817 235.797 122.345C237.257 122.874 232.578 121.559 232.578 121.559C232.578 121.559 233.051 125.926 229.108 125.905C225.166 125.884 213.856 104.218 216.558 98.1964C219.07 92.5969 214.028 91.3823 214.028 91.3823Z" fill="#2F2E41"/>
<path d="M215.742 90.8028C205.162 90.1657 204.1 98.1297 204.1 98.1297C204.173 102.739 211.492 100.493 213.525 101.18C215.977 99.4157 220.704 96.0776 224.085 93.6954C221.631 91.9671 218.739 90.9646 215.742 90.8028Z" fill="#2F2E41"/>
<path d="M212.727 141.623C212.727 141.623 203.237 97.144 143.834 64.8782" stroke="#3F3D56" stroke-width="2" stroke-miterlimit="10"/>
<path d="M146.282 63.9081L146.401 64.3957L143.998 64.9784L144.755 67.3325L144.277 67.4857L143.356 64.6184L146.282 63.9081Z" fill="#3F3D56"/>
<path d="M17.1681 187.07C17.1681 192.704 13.8193 194.671 9.68798 194.671C9.59228 194.671 9.49673 194.67 9.40133 194.668C9.20991 194.664 9.02032 194.654 8.833 194.642C5.10455 194.378 2.20782 192.31 2.20782 187.07C2.20782 181.648 9.13653 174.807 9.65699 174.3L9.6579 174.299C9.67796 174.28 9.68799 174.27 9.68799 174.27C9.68799 174.27 17.1681 181.437 17.1681 187.07Z" fill="#6C63FF"/>
<path d="M9.41544 193.809L12.1513 189.986L9.4086 194.229L9.40131 194.668C9.20989 194.663 9.0203 194.654 8.83299 194.642L9.12786 189.005L9.12558 188.962L9.1306 188.953L9.1584 188.421L6.40887 184.168L9.16705 188.022L9.17344 188.135L9.39629 183.876L7.04237 179.482L9.42501 183.129L9.65698 174.3L9.65789 174.27V174.299L9.61916 181.261L11.9626 178.501L9.60958 181.861L9.5476 185.674L11.7356 182.015L9.53849 186.235L9.50385 188.355L12.6804 183.262L9.492 189.094L9.41544 193.809Z" fill="#3F3D56"/>
<path d="M52.8465 185.611L54.4466 184.422C54.4466 184.422 55.5058 190.338 54.3239 191.225C53.142 192.111 48.7099 193.589 48.7099 195.361C48.7099 197.134 38.6639 199.498 38.3684 196.839C38.0729 194.179 39.2548 192.702 39.2548 192.702C39.2548 192.702 43.9824 187.975 44.5733 187.088C45.1643 186.202 46.6416 184.429 46.6416 184.429L52.8465 185.611Z" fill="#2F2E41"/>
<path d="M29.2088 112.038C29.2088 112.038 29.2531 112.298 29.3299 112.774C29.4009 113.197 29.4984 113.793 29.6166 114.529C30.8576 122.102 34.4771 144.395 34.2318 145.131C33.9364 146.018 31.8681 149.268 34.2318 150.154C34.4593 150.24 34.7046 150.518 34.9675 150.955C35.4751 151.897 35.8935 152.884 36.2174 153.904C37.6268 157.993 39.1337 164.538 40.0054 169.07C40.3865 171.062 40.6465 172.663 40.7233 173.502C40.75 173.696 40.753 173.893 40.7322 174.087C40.4367 175.269 42.505 179.406 43.3915 180.588C44.2779 181.77 45.7552 182.952 45.4598 184.133C45.1643 185.315 52.8466 188.566 53.733 186.497C54.6194 184.429 54.6194 183.247 54.9149 182.656C55.2103 182.065 55.5058 177.929 54.0284 177.338C52.5511 176.747 53.4375 166.405 51.9601 164.337C51.4667 163.648 50.7133 161.317 49.9243 158.513C49.6141 157.414 49.3009 156.244 48.9936 155.071C47.7467 150.264 46.6416 145.427 46.6416 145.427L46.9371 110.856L30.6862 108.788L30.2696 109.707L29.4393 111.53L29.2088 112.038Z" fill="#2F2E41"/>
<path d="M28.3224 168.769C28.3224 168.769 25.9586 166.405 24.7767 168.769C23.5949 171.133 22.413 180.292 20.3447 182.361C18.2764 184.429 15.6171 194.77 18.5718 195.361C21.5266 195.952 24.7767 194.475 25.0722 192.702C25.3677 190.929 31.5726 181.77 31.5726 180.883C31.5726 179.997 27.436 176.747 27.436 176.747L28.3224 168.769Z" fill="#2F2E41"/>
<path d="M64.6654 95.7873C64.6654 95.7873 60.8243 130.358 59.9379 133.608C59.0514 136.858 54.3239 149.268 52.8465 151.336C51.3692 153.404 41.9141 170.246 40.7322 171.133C39.5503 172.019 37.1865 174.383 37.1865 174.383C37.1865 174.383 32.7544 178.815 32.1635 179.701C31.5726 180.588 26.5495 177.929 26.2541 176.156C25.9586 174.383 26.5495 171.428 26.845 170.246C27.1405 169.064 26.2541 167.292 27.1405 166.405C28.0269 165.519 32.459 161.087 32.459 159.018C32.459 156.95 40.1412 144.836 43.096 142.176C46.0507 139.517 45.4597 135.085 45.4597 135.085V117.061L29.2088 112.038C29.2088 112.038 30.0952 97.8556 32.1635 97.8556C34.2318 97.8556 61.4152 93.1281 64.6654 95.7873Z" fill="#2F2E41"/>
<path d="M40.7322 46.4435C46.1173 46.4435 50.4828 42.078 50.4828 36.6929C50.4828 31.3078 46.1173 26.9423 40.7322 26.9423C35.3471 26.9423 30.9816 31.3078 30.9816 36.6929C30.9816 42.078 35.3471 46.4435 40.7322 46.4435Z" fill="#9F616A"/>
<path d="M43.9824 44.3752C43.9824 44.3752 45.1643 48.8073 46.6416 49.9892C48.119 51.1711 42.8005 56.1941 42.8005 56.1941L32.7545 56.785L30.9816 51.1711C30.9816 51.1711 34.2318 44.6707 33.3454 40.5341C32.459 36.3974 43.9824 44.3752 43.9824 44.3752Z" fill="#9F616A"/>
<path d="M48.119 49.3983C48.119 49.3983 45.4598 49.6937 44.8688 50.5801C44.2779 51.4666 40.1413 54.1258 36.8911 53.5349C33.6409 52.9439 31.5726 52.0575 30.9816 52.353C30.3907 52.6484 29.2088 58.8534 29.2088 58.8534L32.459 68.3085L31.8681 94.31L30.9816 101.401C30.9816 101.401 29.2088 99.0375 36.3001 100.515C43.3915 101.992 52.5511 99.333 55.5058 99.0375C58.4605 98.7421 63.4836 97.8557 63.779 96.0828C64.0745 94.31 62.8926 87.8096 62.8926 87.8096L58.1651 68.013L55.2103 57.376L48.119 49.3983Z" fill="#6C63FF"/>
<path d="M45.3242 48.0646C45.3242 48.0646 47.8235 46.739 48.7099 47.9209C49.5964 49.1027 60.8243 50.8756 60.8243 51.762C60.8243 52.6484 63.1881 76.5817 62.5971 78.65C62.0062 80.7183 63.779 83.082 63.779 83.082L65.8473 91.9462C65.8473 91.9462 71.4613 108.788 69.0975 109.379C66.7337 109.97 64.6654 109.379 63.779 109.379C62.8926 109.379 63.1881 98.1511 60.8243 95.1964C58.4605 92.2417 55.2103 84.8549 54.6194 83.3775C54.0284 81.9002 46.6416 61.5126 46.9371 59.1488C47.2326 56.785 45.3242 48.0646 45.3242 48.0646Z" fill="#D0CDE1"/>
<path d="M33.0499 49.3983C33.0499 49.3983 30.6862 49.3983 30.3907 49.9892C30.0952 50.5801 27.1405 54.4213 25.9586 55.3077C24.7767 56.1941 20.6401 60.0352 20.6401 60.9217C20.6401 61.8081 29.2088 68.3085 29.2088 68.3085C29.2088 68.3085 32.7545 85.7413 30.9816 91.6507C29.2088 97.5602 26.5496 111.743 27.7315 112.629C28.9133 113.516 31.5726 113.811 31.5726 112.629C31.5726 111.447 33.3454 98.7421 34.8228 96.0828C36.3001 93.4236 40.7322 76.5817 38.9594 71.8541C37.1866 67.1266 33.0499 49.3983 33.0499 49.3983Z" fill="#D0CDE1"/>
<path d="M72.0522 78.6499C72.0522 78.6499 72.3477 87.8095 69.0975 92.5371C65.8473 97.2646 63.779 102.583 63.779 102.583C63.779 102.583 58.4605 101.106 57.5741 99.3329C56.6877 97.5601 51.0737 99.0374 51.0737 98.4465C51.0737 97.8556 57.8696 94.9008 58.4605 94.3099C59.0515 93.719 61.1198 93.719 62.3017 92.5371C63.4836 91.3552 63.779 88.6959 63.779 88.6959L64.9609 81.0137L72.0522 78.6499Z" fill="#9F616A"/>
<path d="M47.4478 30.6809C48.198 30.6128 48.9716 30.5378 49.6345 30.1803C51.12 29.3792 51.5139 27.0979 50.3831 25.8451C50.0713 25.5263 49.7226 25.2459 49.3443 25.0098L47.0983 23.481C46.105 22.8049 45.0882 22.1177 43.9296 21.799C42.8817 21.5107 41.7749 21.5403 40.6902 21.6078C38.5844 21.7386 36.4656 22.009 34.485 22.736C32.5045 23.4631 30.6569 24.6794 29.4574 26.415C27.5557 29.1666 27.5296 32.8775 28.5769 36.054C29.6243 39.2305 31.6138 41.9966 33.5742 44.7066L34.5914 39.7435C34.682 39.3014 34.7991 38.8169 35.1668 38.5553C36.0806 37.9051 37.1984 39.2401 38.3199 39.2315C39.0405 39.2259 39.6455 38.6332 39.9186 37.9663C40.1916 37.2995 40.2096 36.561 40.2728 35.8431C40.4066 34.3226 40.9381 32.207 42.378 31.3685C43.7197 30.5871 45.9397 30.8179 47.4478 30.6809Z" fill="#2F2E41"/>
<path opacity="0.1" d="M46.9009 112.277C46.9009 112.277 45.903 141.142 45.312 142.029C44.7211 142.915 45.312 112.186 45.312 112.186L46.9009 112.277Z" fill="black"/>
<path d="M58.4605 51.762H60.8243C60.8243 51.762 70.8703 65.3537 69.6885 66.2401C68.5066 67.1265 69.6885 69.4903 69.6885 69.4903L72.0522 73.9224C72.0522 73.9224 75.0069 76.5816 74.1205 77.1726C73.2341 77.7635 72.0522 80.1273 72.0522 80.1273C72.0522 80.1273 66.1428 79.2409 64.37 82.7865L60.5377 77.9486L58.4605 51.762Z" fill="#D0CDE1"/>
<path d="M59.296 56.1338L51.1849 59.4832L57.4266 74.5985L65.5377 71.2491L59.296 56.1338Z" fill="#2F2E41"/>
<path d="M58.3453 64.999C59.2412 64.629 59.692 63.6619 59.3521 62.8388C59.0123 62.0158 58.0105 61.6485 57.1145 62.0185C56.2186 62.3884 55.7678 63.3556 56.1077 64.1786C56.4476 65.0016 57.4494 65.3689 58.3453 64.999Z" fill="#6C63FF"/>
<path d="M52.5511 75.3998C52.5511 75.3998 31.2771 93.1281 27.7314 87.5141C24.1857 81.9001 31.5725 77.1726 31.5725 77.1726C31.5725 77.1726 38.0729 77.4681 45.4597 72.7405L52.8465 69.4903C52.8465 69.4903 59.5901 59.8626 61.8881 63.5288C64.1861 67.1949 57.9655 73.5755 52.5511 75.3998Z" fill="#9F616A"/>
<path d="M23.8903 59.7397L20.6401 60.9216V69.7858L19.4582 71.5586C19.4582 71.5586 19.7537 75.1043 20.6401 75.9907C21.5265 76.8771 23.2993 76.5816 22.7084 78.65C22.3532 79.9984 22.253 81.4013 22.4129 82.7866C22.4129 82.7866 27.7314 89.5824 28.0269 88.696C28.3223 87.8096 32.459 76.8771 33.0499 76.8771C33.6408 76.8771 27.1405 59.7397 27.1405 59.7397H23.8903Z" fill="#D0CDE1"/>
<path d="M62.7449 104.504C62.7449 104.504 65.8 101.549 64.2724 101.401C62.7449 101.254 57.4264 98.2988 56.5399 99.7762C55.6535 101.254 62.7449 104.504 62.7449 104.504Z" fill="#2F2E41"/>
<path d="M126.901 74.3819C126.988 73.1387 125.154 71.9984 122.806 71.8349C120.458 71.6715 118.484 72.5469 118.397 73.7902C118.311 75.0334 120.144 76.1737 122.493 76.3371C124.841 76.5006 126.815 75.6252 126.901 74.3819Z" fill="#57B894"/>
<path d="M138.385 82.7211C129.049 78.4327 119.461 77.7655 109.621 80.7195L110.439 68.9638C120.015 66.7862 130.021 67.4825 139.203 70.9654L138.385 82.7211Z" stroke="#3F3D56" stroke-width="2" stroke-miterlimit="10"/>
<path d="M134.552 80.0115C127.814 76.9164 120.894 76.4348 113.792 78.5668L114.383 70.0823C121.294 68.5106 128.516 69.0132 135.143 71.5269L134.552 80.0115Z" stroke="#3F3D56" stroke-width="2" stroke-miterlimit="10"/>
<path d="M128.472 73.4859C128.558 72.2427 126.725 71.1024 124.376 70.9389C122.028 70.7755 120.054 71.6509 119.968 72.8942C119.881 74.1374 121.715 75.2777 124.063 75.4412C126.411 75.6046 128.385 74.7292 128.472 73.4859Z" stroke="#3F3D56" stroke-width="2" stroke-miterlimit="10"/>
<path d="M123.985 62.2716C126.291 61.8008 127.959 60.4293 127.71 59.2083C127.46 57.9872 125.389 57.3789 123.082 57.8497C120.776 58.3204 119.108 59.6919 119.357 60.913C119.606 62.1341 121.678 62.7423 123.985 62.2716Z" fill="#57B894"/>
<path d="M141.006 64.1714C130.863 62.5368 121.445 64.4588 112.754 69.9374L110.398 58.3912C119.042 53.7314 128.87 51.7256 138.649 52.6253L141.006 64.1714Z" stroke="#3F3D56" stroke-width="2" stroke-miterlimit="10"/>
<path d="M136.588 62.5858C129.267 61.4061 122.47 62.7932 116.198 66.7474L114.497 58.4141C120.736 55.0509 127.829 53.6032 134.887 54.2525L136.588 62.5858Z" stroke="#3F3D56" stroke-width="2" stroke-miterlimit="10"/>
<path d="M125.258 60.988C127.564 60.5173 129.232 59.1458 128.983 57.9247C128.734 56.7036 126.662 56.0953 124.355 56.5661C122.049 57.0368 120.381 58.4083 120.63 59.6294C120.88 60.8505 122.951 61.4588 125.258 60.988Z" stroke="#3F3D56" stroke-width="2" stroke-miterlimit="10"/>
<path d="M120.85 48.1397C123.204 48.1397 125.113 47.1294 125.113 45.8831C125.113 44.6369 123.204 43.6266 120.85 43.6266C118.496 43.6266 116.588 44.6369 116.588 45.8831C116.588 47.1294 118.496 48.1397 120.85 48.1397Z" fill="#57B894"/>
<path d="M137.148 53.4049C127.536 49.775 117.925 49.775 108.314 53.4049V41.6208C117.716 38.7837 127.746 38.7837 137.148 41.6208V53.4049Z" stroke="#3F3D56" stroke-width="2" stroke-miterlimit="10"/>
<path d="M133.136 50.9679C126.199 48.348 119.262 48.348 112.326 50.9679V42.4628C119.111 40.4152 126.35 40.4152 133.136 42.4628V50.9679Z" stroke="#3F3D56" stroke-width="2" stroke-miterlimit="10"/>
<path d="M122.355 47.1367C124.709 47.1367 126.617 46.1265 126.617 44.8802C126.617 43.6339 124.709 42.6237 122.355 42.6237C120.001 42.6237 118.092 43.6339 118.092 44.8802C118.092 46.1265 120.001 47.1367 122.355 47.1367Z" stroke="#3F3D56" stroke-width="2" stroke-miterlimit="10"/>
<path d="M104.032 53.6785C104.032 53.6785 85.6047 51.1575 72.4451 58.8695" stroke="#3F3D56" stroke-width="2" stroke-miterlimit="10"/>
<path d="M72.8883 56.278L73.3669 56.4294L72.6188 58.786L75.0242 59.3599L74.9071 59.848L71.9779 59.1483L72.8883 56.278Z" fill="#3F3D56"/>
</g>
<defs>
<clipPath id="clip0">
<rect width="275.549" height="200" fill="white"/>
</clipPath>
</defs>
</svg>
