<svg width="116" height="114" viewBox="0 0 116 114" fill="none" xmlns="http://www.w3.org/2000/svg">
<path fill-rule="evenodd" clip-rule="evenodd" d="M18.8193 14.4912C21.311 15.3287 23.6786 15.4351 25.3554 14.8219C24.9261 13.0888 23.514 11.1855 21.4263 9.58808C22.2638 7.09637 22.3702 4.72879 21.757 3.052C20.0239 3.48126 18.1206 4.89336 16.5232 6.98103C14.0315 6.14353 11.6639 6.03718 9.98712 6.65041C10.4164 8.38344 11.8285 10.2868 13.9161 11.8842C13.0786 14.3759 12.9723 16.7435 13.5855 18.4203C15.3186 17.991 17.2219 16.5789 18.8193 14.4912ZM111.409 34.5561C113.217 34.7327 114.828 34.4363 115.862 33.7626C115.303 32.6624 114.056 31.6002 112.402 30.8491C112.579 29.041 112.282 27.4301 111.609 26.3963C110.508 26.9548 109.446 28.2016 108.695 29.8558C106.887 29.6792 105.276 29.9756 104.242 30.6493C104.801 31.7495 106.048 32.8117 107.702 33.5628C107.525 35.3709 107.822 36.9818 108.495 38.0156C109.596 37.4571 110.658 36.2103 111.409 34.5561ZM8.45569 58.7671C7.24111 58.4436 5.91872 57.4263 4.81999 55.9372C3.05582 56.4961 1.38801 56.5418 0.215271 56.0896C0.538714 54.875 1.55606 53.5526 3.04516 52.4539C2.48627 50.6897 2.4405 49.0219 2.89275 47.8492C4.10733 48.1726 5.42971 49.19 6.52845 50.6791C8.29262 50.1202 9.96043 50.0744 11.1332 50.5267C10.8097 51.7412 9.79238 53.0636 8.30327 54.1624C8.86216 55.9265 8.90793 57.5943 8.45569 58.7671Z" fill="#ACA9D1"/>
<g clip-path="url(#clip0)">
<path d="M80.3912 25.2323H79.8078V9.2501C79.8078 8.03536 79.5686 6.83251 79.1037 5.71023C78.6389 4.58796 77.9575 3.56823 77.0985 2.70928C76.2396 1.85033 75.2199 1.16897 74.0976 0.704113C72.9753 0.239254 71.7724 -4.50357e-06 70.5577 0H36.6972C35.4825 -2.93709e-06 34.2796 0.239257 33.1573 0.704116C32.0351 1.16898 31.0153 1.85033 30.1564 2.70928C29.2974 3.56824 28.6161 4.58796 28.1512 5.71023C27.6863 6.83251 27.4471 8.03536 27.4471 9.2501V96.9299C27.4471 98.1447 27.6863 99.3475 28.1512 100.47C28.6161 101.592 29.2974 102.612 30.1564 103.471C31.0153 104.33 32.0351 105.011 33.1573 105.476C34.2796 105.941 35.4825 106.18 36.6972 106.18H70.5577C71.7725 106.18 72.9753 105.941 74.0976 105.476C75.2199 105.011 76.2396 104.33 77.0985 103.471C77.9575 102.612 78.6389 101.592 79.1037 100.47C79.5686 99.3475 79.8078 98.1447 79.8078 96.9299V36.6088H80.3912V25.2323Z" fill="#3F3D56"/>
<path d="M110.095 101.82H3.03638V102.119H110.095V101.82Z" fill="#3F3D56"/>
<path opacity="0.2" d="M77.8392 9.31509V96.866C77.84 97.7734 77.6619 98.6721 77.315 99.5106C76.9681 100.349 76.4593 101.111 75.8177 101.753C75.1761 102.394 74.4142 102.903 73.5757 103.25C72.7372 103.597 71.8385 103.775 70.9311 103.774H36.908C36.0006 103.775 35.102 103.596 34.2636 103.25C33.4252 102.903 32.6634 102.394 32.0218 101.752C31.3802 101.111 30.8714 100.349 30.5244 99.5104C30.1775 98.6719 29.9992 97.7734 29.9999 96.866V9.31509C29.9992 8.40773 30.1775 7.50914 30.5244 6.67072C30.8714 5.8323 31.3802 5.0705 32.0218 4.4289C32.6634 3.78729 33.4252 3.27847 34.2636 2.93153C35.102 2.58459 36.0006 2.40635 36.908 2.40699H41.0353C40.832 2.9053 40.7544 3.44596 40.8093 3.98132C40.8643 4.51669 41.05 5.03033 41.3503 5.47698C41.6505 5.92363 42.056 6.28959 42.531 6.54261C43.0059 6.79563 43.5359 6.92794 44.074 6.9279H63.4728C64.011 6.92794 64.5409 6.79563 65.0159 6.54261C65.4909 6.28959 65.8964 5.92363 66.1966 5.47698C66.4968 5.03033 66.6826 4.51669 66.7375 3.98132C66.7924 3.44596 66.7149 2.9053 66.5116 2.40699H70.9311C71.8385 2.40617 72.7372 2.5843 73.5757 2.93118C74.4142 3.27805 75.1761 3.78687 75.8177 4.42851C76.4593 5.07015 76.9682 5.83201 77.315 6.67051C77.6619 7.50901 77.84 8.40768 77.8392 9.31509Z" fill="black"/>
<path d="M13.6705 102.103L13.5104 102.043C13.4753 102.03 9.97533 100.689 8.33581 97.6483C6.69622 94.6076 7.49906 90.9466 7.50736 90.9101L7.54514 90.7433L7.7051 90.8033C7.74026 90.8166 11.2401 92.1575 12.8797 95.1981C14.5193 98.2387 13.7165 101.9 13.7082 101.936L13.6705 102.103ZM8.59835 97.5067C9.9845 100.078 12.7503 101.395 13.451 101.696C13.5842 100.945 14.0021 97.9079 12.6172 95.3396C11.2324 92.7716 8.46555 91.4518 7.76451 91.1502C7.6312 91.9017 7.21351 94.9386 8.59835 97.5067Z" fill="#3F3D56"/>
<path d="M9.58877 96.5817C12.5352 98.3543 13.67 101.875 13.67 101.875C13.67 101.875 10.0276 102.522 7.0812 100.75C4.13477 98.9769 3 95.4559 3 95.4559C3 95.4559 6.64234 94.809 9.58877 96.5817Z" fill="#6C63FF"/>
<path d="M38.5839 2.40699V103.774H36.908C36.4696 103.775 36.0322 103.733 35.6018 103.65V2.53075C36.0322 2.44775 36.4696 2.40631 36.908 2.40699L38.5839 2.40699Z" fill="#3F3D56"/>
<path d="M54.6874 6.92786H51.7053V103.774H54.6874V6.92786Z" fill="#3F3D56"/>
<path d="M73.3258 2.83343V103.348C72.5592 103.631 71.7483 103.775 70.9311 103.774H70.3436V2.40699H70.9311C71.7483 2.40593 72.5592 2.55033 73.3258 2.83343Z" fill="#3F3D56"/>
<path d="M77.8392 19.2858H29.9998V22.268H77.8392V19.2858Z" fill="#3F3D56"/>
<path d="M77.8392 53.133H29.9998V56.1151H77.8392V53.133Z" fill="#3F3D56"/>
<path d="M76.3079 69.8329H52.3018V72.8151H76.3079V69.8329Z" fill="#3F3D56"/>
<path d="M77.8392 31.9599H51.7053V34.942H77.8392V31.9599Z" fill="#3F3D56"/>
<path d="M53.86 22.0683L53.514 22.2681L51.7054 23.3119L38.584 30.888L35.6019 32.6101L29.9999 35.8443V32.3999L35.6019 29.1658L38.584 27.4451L47.5498 22.2681L51.7054 19.869L52.3689 19.4858L53.86 22.0683Z" fill="#3F3D56"/>
<path d="M77.8392 85.7874H29.9998V88.7695H77.8392V85.7874Z" fill="#3F3D56"/>
<path d="M88.2364 32.109C88.2364 41.5791 71.0891 62.6758 71.0891 62.6758C71.0891 62.6758 53.9419 41.5791 53.9419 32.109C53.9419 27.5612 55.7485 23.1998 58.9642 19.984C62.1799 16.7683 66.5414 14.9617 71.0891 14.9617C75.6369 14.9617 79.9984 16.7683 83.2141 19.984C86.4298 23.1998 88.2364 27.5612 88.2364 32.109Z" fill="#6C63FF"/>
<path opacity="0.2" d="M71.0891 41.5027C76.6889 41.5027 81.2284 36.9632 81.2284 31.3635C81.2284 25.7637 76.6889 21.2242 71.0891 21.2242C65.4894 21.2242 60.9499 25.7637 60.9499 31.3635C60.9499 36.9632 65.4894 41.5027 71.0891 41.5027Z" fill="black"/>
<path d="M70.7559 35.3659C72.8421 35.3659 74.5332 33.6747 74.5332 31.5885C74.5332 29.5023 72.8421 27.8112 70.7559 27.8112C68.6697 27.8112 66.9785 29.5023 66.9785 31.5885C66.9785 33.6747 68.6697 35.3659 70.7559 35.3659Z" fill="#6C63FF"/>
<path d="M76.6529 42.5464C76.8108 41.7266 76.7856 40.882 76.5791 40.073C76.3725 39.2641 75.9898 38.5108 75.4582 37.867C74.9266 37.2232 74.2592 36.7048 73.5039 36.349C72.7486 35.9932 71.9241 35.8087 71.0891 35.8087C70.2542 35.8087 69.4296 35.9932 68.6743 36.349C67.9191 36.7048 67.2517 37.2232 66.7201 37.867C66.1885 38.5108 65.8057 39.2641 65.5992 40.073C65.3927 40.882 65.3675 41.7266 65.5254 42.5464H76.6529Z" fill="#6C63FF"/>
<path d="M88.9581 18.3083C88.9581 18.3083 86.264 17.3461 84.5321 21.1947C82.8002 25.0434 80.1062 29.2769 80.1062 29.2769L81.6457 29.6617C81.6457 29.6617 82.0305 26.9677 82.9927 26.5828L82.6078 30.0466C82.6078 30.0466 94.1537 34.0877 99.3494 29.6617L99.157 28.3147C99.157 28.3147 99.9267 28.5071 99.9267 29.6617L100.504 29.0844C100.504 29.0844 99.9267 27.9299 98.1948 26.3904C97.0581 25.38 96.6674 23.4576 96.5332 22.2558C96.4326 21.2522 96.0311 20.3024 95.3813 19.5311C94.2303 18.1972 92.1332 16.7795 88.9581 18.3083Z" fill="#2F2E41"/>
<path d="M105.309 40.0862C105.309 40.0862 110.379 44.4103 111.124 46.9451C111.87 49.48 108.291 49.7782 108.291 49.7782L100.538 50.5237C100.538 50.5237 100.389 54.1023 99.0466 54.5496C97.7047 54.9969 98.7742 48.6319 98.7742 48.6319L106.353 46.4978L102.923 42.9193L105.309 40.0862Z" fill="#FBBEBE"/>
<path d="M81.6011 44.5594L81.0047 52.462L77.7244 65.8816C77.7244 65.8816 74.7422 71.995 77.2771 72.1441C79.8119 72.2932 79.6628 66.3289 79.6628 66.3289L84.4342 53.6549L84.8815 45.0067L81.6011 44.5594Z" fill="#FBBEBE"/>
<path d="M84.2851 101.816V107.631L87.8637 106.737L86.8199 101.369L84.2851 101.816Z" fill="#FBBEBE"/>
<path d="M103.371 101.816V107.631L106.949 106.737L105.906 101.369L103.371 101.816Z" fill="#FBBEBE"/>
<path d="M89.9511 30.6925C92.6686 30.6925 94.8716 28.4895 94.8716 25.772C94.8716 23.0545 92.6686 20.8515 89.9511 20.8515C87.2336 20.8515 85.0306 23.0545 85.0306 25.772C85.0306 28.4895 87.2336 30.6925 89.9511 30.6925Z" fill="#FBBEBE"/>
<path d="M87.7145 28.1577C87.7145 28.1577 89.5038 34.5692 86.6708 36.2094C83.8378 37.8496 93.8279 39.0424 96.5118 34.1219C96.5118 34.1219 91.7404 32.4817 93.0824 28.1577H87.7145Z" fill="#FBBEBE"/>
<path d="M84.2851 36.955L83.3905 36.6567C83.3905 36.6567 81.6012 37.4023 81.6012 38.7442C81.6012 40.0862 81.303 45.454 81.303 45.454L85.3289 45.9013L84.2851 36.955Z" fill="#575A89"/>
<path d="M84.8815 52.9017C84.8815 52.9017 79.961 59.1718 79.961 66.7763C79.961 74.3807 81.1539 101.965 81.1539 101.965C81.1539 101.965 85.627 104.053 88.311 101.518L90.6967 70.2057L100.09 102.562C100.09 102.562 104.564 103.456 106.651 101.965L102.625 81.0905C102.625 81.0905 102.476 56.3388 98.0029 54.5495C93.5297 52.7603 84.8815 52.9017 84.8815 52.9017Z" fill="#2F2E41"/>
<path d="M88.1619 105.842C88.1619 105.842 84.2851 103.755 83.9869 106.588C83.6887 109.421 83.5396 111.21 83.5396 111.21C83.5396 111.21 83.0922 114.64 87.2672 113.894C91.4422 113.148 89.9511 111.061 89.9511 111.061C89.9511 111.061 88.4601 108.675 88.4601 108.079C88.4601 107.482 88.1619 105.842 88.1619 105.842Z" fill="#2F2E41"/>
<path d="M102.989 105.774C102.989 105.774 106.517 103.14 107.228 105.899C107.939 108.657 108.35 110.405 108.35 110.405C108.35 110.405 109.296 113.732 105.057 113.607C100.817 113.483 101.986 111.199 101.986 111.199C101.986 111.199 103.11 108.62 103.023 108.03C102.935 107.44 102.989 105.774 102.989 105.774Z" fill="#2F2E41"/>
<path d="M98.5994 34.8675C98.5994 34.8675 100.538 33.8237 102.476 36.0603L106.353 40.5335L103.371 43.8139L97.7047 40.3844L98.5994 34.8675Z" fill="#575A89"/>
<path d="M84.6341 25.8032C86.376 24.5425 87.786 23.0905 88.7187 21.3633C88.7187 21.3633 91.9154 24.9152 93.869 25.0928C95.8225 25.2704 94.0466 20.8305 94.0466 20.8305L90.4947 19.9426L87.1204 20.2978L84.4565 22.0737L84.6341 25.8032Z" fill="#2F2E41"/>
<path d="M95.7663 33.8237C95.7663 33.8237 93.6796 37.1229 87.4168 35.5479L83.8628 36.5267L83.3904 36.6568C83.3904 36.6568 83.8378 45.6031 85.0306 47.2433C86.2235 48.8835 85.9253 49.7781 85.627 49.9272C85.3288 50.0763 84.5833 49.7781 85.0306 50.5237C85.4779 51.2692 86.0744 50.8219 85.4779 51.2692C84.8815 51.7165 84.5833 53.3567 84.5833 53.3567L98.5993 55.146C98.5993 55.146 98.152 49.3308 99.3448 46.3487C100.538 43.3665 100.836 42.1737 100.836 42.1737L99.9413 34.7184L95.7663 33.8237Z" fill="#575A89"/>
<path d="M72.5802 75.0517C75.1331 75.0517 77.2026 72.9823 77.2026 70.4294C77.2026 67.8766 75.1331 65.8071 72.5802 65.8071C70.0274 65.8071 67.9579 67.8766 67.9579 70.4294C67.9579 72.9823 70.0274 75.0517 72.5802 75.0517Z" fill="#6C63FF"/>
</g>
<defs>
<clipPath id="clip0">
<rect width="108.226" height="114" fill="white" transform="translate(3)"/>
</clipPath>
</defs>
</svg>
