<svg width="241" height="59" viewBox="0 0 241 59" fill="none" xmlns="http://www.w3.org/2000/svg">
<path d="M74.3398 45.502C74.7676 45.502 75.1191 45.1562 75.1191 44.7285C75.1191 44.3008 74.7676 43.9551 74.3398 43.9551C73.9121 43.9551 73.5605 44.3008 73.5605 44.7285C73.5605 45.1562 73.9121 45.502 74.3398 45.502ZM76.9824 45.502C77.4102 45.502 77.7617 45.1562 77.7617 44.7285C77.7617 44.3008 77.4102 43.9551 76.9824 43.9551C76.5547 43.9551 76.2031 44.3008 76.2031 44.7285C76.2031 45.1562 76.5547 45.502 76.9824 45.502ZM75.6641 46.3398C73.2383 46.3398 71.7148 48.0449 71.7148 50.7695C71.7148 53.4883 73.2031 55.2051 75.6641 55.2051C78.1074 55.2051 79.6074 53.4824 79.6074 50.7695C79.6074 48.0508 78.0957 46.3398 75.6641 46.3398ZM75.6641 47.5C77.2637 47.5 78.2656 48.7656 78.2656 50.7695C78.2656 52.7559 77.2695 54.0449 75.6641 54.0449C74.0352 54.0449 73.0566 52.7559 73.0566 50.7695C73.0566 48.7656 74.0645 47.5 75.6641 47.5ZM81.0957 55H86.1465V53.9863H82.6777V53.8867L86.1113 49.5098V48.6367H81.1191V49.6504H84.6055V49.7441L81.0957 54.1738V55ZM87.8867 55H89.1465V46.1406H87.8867V55ZM95.2227 53.2949C94.9883 53.8105 94.4668 54.0918 93.7051 54.0918C92.6973 54.0918 92.0469 53.3652 92.0059 52.2109V52.1523H96.5117V51.7188C96.5117 49.7266 95.4395 48.5137 93.6641 48.5137C91.8652 48.5137 90.7227 49.8086 90.7227 51.8301C90.7227 53.8633 91.8418 55.123 93.6699 55.123C95.1289 55.123 96.1602 54.4199 96.4355 53.2949H95.2227ZM93.6582 49.5391C94.5898 49.5391 95.1992 50.2129 95.2285 51.2441H92.0059C92.0762 50.2188 92.7266 49.5391 93.6582 49.5391ZM100.355 55.1055C101.234 55.1055 101.979 54.6895 102.359 53.9922H102.459V55H103.666V46.1406H102.406V49.6445H102.312C101.967 48.9473 101.229 48.5254 100.355 48.5254C98.7441 48.5254 97.707 49.8086 97.707 51.8125C97.707 53.8281 98.7324 55.1055 100.355 55.1055ZM100.713 49.6035C101.768 49.6035 102.43 50.459 102.43 51.8184C102.43 53.1895 101.773 54.0273 100.713 54.0273C99.6465 54.0273 99.0078 53.2012 99.0078 51.8184C99.0078 50.4414 99.6523 49.6035 100.713 49.6035ZM106.209 47.5C106.648 47.5 107.006 47.1426 107.006 46.709C107.006 46.2695 106.648 45.9121 106.209 45.9121C105.77 45.9121 105.412 46.2695 105.412 46.709C105.412 47.1426 105.77 47.5 106.209 47.5ZM105.582 55H106.836V48.6367H105.582V55ZM109.291 45.7422C109.291 46.9316 110.053 47.7637 111.43 47.7637C112.807 47.7637 113.562 46.9316 113.562 45.7422H112.549C112.543 46.4512 112.191 46.9316 111.43 46.9316C110.668 46.9316 110.311 46.4512 110.311 45.7422H109.291ZM111.377 57.4316C113.182 57.4316 114.324 56.5117 114.324 55.0645V48.6367H113.117V49.6504H113.018C112.66 48.959 111.893 48.5254 111.014 48.5254C109.385 48.5254 108.365 49.8086 108.365 51.7363C108.365 53.6465 109.373 54.9062 111.002 54.9062C111.881 54.9062 112.584 54.5254 112.971 53.834H113.064V55.0586C113.064 55.9199 112.443 56.4355 111.395 56.4355C110.545 56.4355 110.012 56.1309 109.906 55.6504H108.617C108.752 56.7227 109.783 57.4316 111.377 57.4316ZM111.359 53.8633C110.275 53.8633 109.666 53.0371 109.666 51.7363C109.666 50.4355 110.275 49.6035 111.359 49.6035C112.432 49.6035 113.088 50.4355 113.088 51.7363C113.088 53.0371 112.438 53.8633 111.359 53.8633ZM116.803 47.5C117.242 47.5 117.6 47.1426 117.6 46.709C117.6 46.2695 117.242 45.9121 116.803 45.9121C116.363 45.9121 116.006 46.2695 116.006 46.709C116.006 47.1426 116.363 47.5 116.803 47.5ZM116.176 55H117.43V48.6367H116.176V55ZM119.281 55H120.541V51.2676C120.541 50.2422 121.133 49.6094 122.064 49.6094C122.996 49.6094 123.441 50.125 123.441 51.1797V55H124.701V50.8809C124.701 49.3633 123.916 48.5137 122.492 48.5137C121.531 48.5137 120.898 48.9414 120.588 49.6445H120.494V48.6367H119.281V55ZM131.521 55.1055C132.359 55.1055 133.057 54.7422 133.438 54.0977H133.537V55H134.75V50.6465C134.75 49.3105 133.848 48.5137 132.248 48.5137C130.801 48.5137 129.77 49.2109 129.641 50.2832H130.859C131 49.8203 131.486 49.5566 132.189 49.5566C133.051 49.5566 133.496 49.9492 133.496 50.6465V51.2031L131.768 51.3086C130.25 51.4023 129.395 52.0645 129.395 53.207C129.395 54.3672 130.291 55.1055 131.521 55.1055ZM131.844 54.0918C131.158 54.0918 130.66 53.7461 130.66 53.1543C130.66 52.5742 131.059 52.2637 131.938 52.2051L133.496 52.0996V52.6504C133.496 53.4707 132.793 54.0918 131.844 54.0918ZM139.854 48.5254C138.986 48.5254 138.236 48.9648 137.85 49.6914H137.756V48.6367H136.543V57.1211H137.803V54.0391H137.902C138.236 54.7129 138.957 55.1055 139.865 55.1055C141.477 55.1055 142.502 53.8281 142.502 51.8184C142.502 49.7969 141.477 48.5254 139.854 48.5254ZM139.496 54.0273C138.441 54.0273 137.779 53.1777 137.779 51.8184C137.779 50.4531 138.441 49.6035 139.502 49.6035C140.568 49.6035 141.207 50.4355 141.207 51.8184C141.207 53.2012 140.568 54.0273 139.496 54.0273ZM145.783 55.1055C146.621 55.1055 147.318 54.7422 147.699 54.0977H147.799V55H149.012V50.6465C149.012 49.3105 148.109 48.5137 146.51 48.5137C145.062 48.5137 144.031 49.2109 143.902 50.2832H145.121C145.262 49.8203 145.748 49.5566 146.451 49.5566C147.312 49.5566 147.758 49.9492 147.758 50.6465V51.2031L146.029 51.3086C144.512 51.4023 143.656 52.0645 143.656 53.207C143.656 54.3672 144.553 55.1055 145.783 55.1055ZM146.105 54.0918C145.42 54.0918 144.922 53.7461 144.922 53.1543C144.922 52.5742 145.32 52.2637 146.199 52.2051L147.758 52.0996V52.6504C147.758 53.4707 147.055 54.0918 146.105 54.0918ZM150.805 55H152.064V51.1973C152.064 50.3008 152.738 49.6855 153.693 49.6855C153.916 49.6855 154.291 49.7266 154.396 49.7559V48.5723C154.262 48.543 154.021 48.5254 153.834 48.5254C153.002 48.5254 152.293 48.9766 152.111 49.6035H152.018V48.6367H150.805V55ZM156.383 47.0312V48.6543H155.369V49.6621H156.383V53.3242C156.383 54.5488 156.939 55.041 158.34 55.041C158.586 55.041 158.82 55.0117 159.025 54.9766V53.9746C158.85 53.9922 158.738 54.0039 158.545 54.0039C157.918 54.0039 157.643 53.7051 157.643 53.0195V49.6621H159.025V48.6543H157.643V47.0312H156.383ZM160.508 55H161.768V51.0918C161.768 50.2598 162.348 49.6094 163.115 49.6094C163.865 49.6094 164.346 50.0605 164.346 50.7871V55H165.582V50.9746C165.582 50.207 166.115 49.6094 166.93 49.6094C167.756 49.6094 168.166 50.0371 168.166 50.916V55H169.426V50.6113C169.426 49.2871 168.676 48.5137 167.387 48.5137C166.502 48.5137 165.77 48.9648 165.447 49.6504H165.348C165.066 48.9648 164.463 48.5137 163.59 48.5137C162.74 48.5137 162.096 48.9355 161.814 49.6504H161.721V48.6367H160.508V55ZM172.959 55.1055C173.797 55.1055 174.494 54.7422 174.875 54.0977H174.975V55H176.188V50.6465C176.188 49.3105 175.285 48.5137 173.686 48.5137C172.238 48.5137 171.207 49.2109 171.078 50.2832H172.297C172.438 49.8203 172.924 49.5566 173.627 49.5566C174.488 49.5566 174.934 49.9492 174.934 50.6465V51.2031L173.205 51.3086C171.688 51.4023 170.832 52.0645 170.832 53.207C170.832 54.3672 171.729 55.1055 172.959 55.1055ZM173.281 54.0918C172.596 54.0918 172.098 53.7461 172.098 53.1543C172.098 52.5742 172.496 52.2637 173.375 52.2051L174.934 52.0996V52.6504C174.934 53.4707 174.23 54.0918 173.281 54.0918ZM177.98 55H179.24V51.2676C179.24 50.2422 179.832 49.6094 180.764 49.6094C181.695 49.6094 182.141 50.125 182.141 51.1797V55H183.4V50.8809C183.4 49.3633 182.615 48.5137 181.191 48.5137C180.23 48.5137 179.598 48.9414 179.287 49.6445H179.193V48.6367H177.98V55ZM188.516 55H189.775V51.2734C189.775 50.2773 190.35 49.6152 191.381 49.6152C192.271 49.6152 192.746 50.1367 192.746 51.1855V55H194.006V50.8867C194.006 49.3809 193.168 48.5195 191.809 48.5195C190.848 48.5195 190.174 48.9414 189.863 49.6504H189.764V46.1406H188.516V55ZM197.545 55.1055C198.383 55.1055 199.08 54.7422 199.461 54.0977H199.561V55H200.773V50.6465C200.773 49.3105 199.871 48.5137 198.271 48.5137C196.824 48.5137 195.793 49.2109 195.664 50.2832H196.883C197.023 49.8203 197.51 49.5566 198.213 49.5566C199.074 49.5566 199.52 49.9492 199.52 50.6465V51.2031L197.791 51.3086C196.273 51.4023 195.418 52.0645 195.418 53.207C195.418 54.3672 196.314 55.1055 197.545 55.1055ZM197.867 54.0918C197.182 54.0918 196.684 53.7461 196.684 53.1543C196.684 52.5742 197.082 52.2637 197.961 52.2051L199.52 52.0996V52.6504C199.52 53.4707 198.816 54.0918 197.867 54.0918ZM202.988 57.3086C204.289 57.3086 204.893 56.8223 205.438 55.293L207.816 48.6367H206.48L204.887 53.7344H204.787L203.188 48.6367H201.816L204.125 55.0176L204.031 55.3457C203.814 56.0195 203.475 56.2715 202.877 56.2715C202.76 56.2715 202.566 56.2656 202.467 56.248V57.2793C202.584 57.2969 202.883 57.3086 202.988 57.3086ZM210.646 55.1055C211.484 55.1055 212.182 54.7422 212.562 54.0977H212.662V55H213.875V50.6465C213.875 49.3105 212.973 48.5137 211.373 48.5137C209.926 48.5137 208.895 49.2109 208.766 50.2832H209.984C210.125 49.8203 210.611 49.5566 211.314 49.5566C212.176 49.5566 212.621 49.9492 212.621 50.6465V51.2031L210.893 51.3086C209.375 51.4023 208.52 52.0645 208.52 53.207C208.52 54.3672 209.416 55.1055 210.646 55.1055ZM210.969 54.0918C210.283 54.0918 209.785 53.7461 209.785 53.1543C209.785 52.5742 210.184 52.2637 211.062 52.2051L212.621 52.0996V52.6504C212.621 53.4707 211.918 54.0918 210.969 54.0918ZM216.113 47.0312V48.6543H215.1V49.6621H216.113V53.3242C216.113 54.5488 216.67 55.041 218.07 55.041C218.316 55.041 218.551 55.0117 218.756 54.9766V53.9746C218.58 53.9922 218.469 54.0039 218.275 54.0039C217.648 54.0039 217.373 53.7051 217.373 53.0195V49.6621H218.756V48.6543H217.373V47.0312H216.113ZM220.262 55H221.516V48.6367H220.262V55Z" fill="#293858" fill-opacity="0.7"/>
<path d="M60.875 34.2988C63.3887 34.2988 65.498 33.2266 66.5 31.4336H66.8164V34H71.7734V20.7812C71.7734 16.6504 68.873 14.2246 63.7402 14.2246C58.8711 14.2246 55.584 16.457 55.25 20.0078H59.9609C60.3828 18.7949 61.6133 18.1445 63.459 18.1445C65.5684 18.1445 66.7285 19.1113 66.7285 20.7812V22.3809L62.0352 22.6621C57.2188 22.9434 54.5293 24.9824 54.5293 28.4805C54.5293 32.0137 57.1484 34.2988 60.875 34.2988ZM62.5625 30.5547C60.7871 30.5547 59.5391 29.6582 59.5391 28.1641C59.5391 26.7402 60.6113 25.9141 62.8086 25.7734L66.7285 25.5098V26.9512C66.7285 28.9902 64.9355 30.5547 62.5625 30.5547ZM87.998 14.3301C85.3262 14.3301 83.1289 15.6484 82.0742 17.8281H81.7578V14.6465H76.8008V40.416H81.916V31.0469H82.2324C83.1816 33.0859 85.3086 34.2988 88.0859 34.2988C92.9375 34.2988 95.9082 30.5371 95.9082 24.3145C95.9082 18.0742 92.9023 14.3301 87.998 14.3301ZM86.2578 30.168C83.5508 30.168 81.8633 27.9531 81.8633 24.332C81.8633 20.7109 83.5508 18.4785 86.2754 18.4785C89 18.4785 90.6523 20.6758 90.6523 24.3145C90.6523 27.9707 89.0176 30.168 86.2578 30.168ZM111.271 14.3301C108.6 14.3301 106.402 15.6484 105.348 17.8281H105.031V14.6465H100.074V40.416H105.189V31.0469H105.506C106.455 33.0859 108.582 34.2988 111.359 34.2988C116.211 34.2988 119.182 30.5371 119.182 24.3145C119.182 18.0742 116.176 14.3301 111.271 14.3301ZM109.531 30.168C106.824 30.168 105.137 27.9531 105.137 24.332C105.137 20.7109 106.824 18.4785 109.549 18.4785C112.273 18.4785 113.926 20.6758 113.926 24.3145C113.926 27.9707 112.291 30.168 109.531 30.168ZM128.902 34.334C131.434 34.334 133.508 33.2266 134.738 31.2051H135.02V34H137.902V21.0273C137.902 17.0898 135.318 14.7168 130.695 14.7168C126.652 14.7168 123.664 16.7207 123.26 19.7617H126.318C126.74 18.2676 128.322 17.4062 130.59 17.4062C133.42 17.4062 134.879 18.6895 134.879 21.0273V22.75L129.412 23.084C125 23.3477 122.504 25.2988 122.504 28.6914C122.504 32.1543 125.229 34.334 128.902 34.334ZM129.465 31.6797C127.268 31.6797 125.633 30.5547 125.633 28.6211C125.633 26.7227 126.898 25.7207 129.781 25.5273L134.879 25.1934V26.9336C134.879 29.6406 132.576 31.6797 129.465 31.6797ZM143.492 34H146.516V22.2578C146.516 19.5859 148.607 17.6523 151.49 17.6523C152.088 17.6523 153.178 17.7578 153.424 17.8281V14.8047C153.037 14.752 152.404 14.7168 151.912 14.7168C149.398 14.7168 147.219 16.0176 146.656 17.8633H146.375V15.0508H143.492V34ZM159.523 10.1465V15.0508H156.465V17.582H159.523V29.0781C159.523 32.6992 161.088 34.1406 164.99 34.1406C165.588 34.1406 166.168 34.0703 166.766 33.9648V31.416C166.203 31.4688 165.904 31.4863 165.359 31.4863C163.391 31.4863 162.547 30.5371 162.547 28.3047V17.582H166.766V15.0508H162.547V10.1465H159.523ZM171.336 34H174.359V22.2578C174.359 19.5859 176.275 17.4414 178.754 17.4414C181.145 17.4414 182.709 18.8828 182.709 21.1328V34H185.732V21.8184C185.732 19.4102 187.49 17.4414 190.127 17.4414C192.799 17.4414 194.117 18.8125 194.117 21.6074V34H197.141V20.9043C197.141 16.9316 194.979 14.7168 191.111 14.7168C188.492 14.7168 186.33 16.0352 185.311 18.0391H185.029C184.15 16.0703 182.357 14.7168 179.791 14.7168C177.26 14.7168 175.361 15.9297 174.5 18.0391H174.219V15.0508H171.336V34ZM207.934 34.334C210.465 34.334 212.539 33.2266 213.77 31.2051H214.051V34H216.934V21.0273C216.934 17.0898 214.35 14.7168 209.727 14.7168C205.684 14.7168 202.695 16.7207 202.291 19.7617H205.35C205.771 18.2676 207.354 17.4062 209.621 17.4062C212.451 17.4062 213.91 18.6895 213.91 21.0273V22.75L208.443 23.084C204.031 23.3477 201.535 25.2988 201.535 28.6914C201.535 32.1543 204.26 34.334 207.934 34.334ZM208.496 31.6797C206.299 31.6797 204.664 30.5547 204.664 28.6211C204.664 26.7227 205.93 25.7207 208.812 25.5273L213.91 25.1934V26.9336C213.91 29.6406 211.607 31.6797 208.496 31.6797ZM222.523 34H225.547V22.7852C225.547 19.4629 227.498 17.4414 230.521 17.4414C233.545 17.4414 234.986 19.0586 234.986 22.4688V34H238.01V21.7305C238.01 17.2305 235.637 14.7168 231.383 14.7168C228.482 14.7168 226.637 15.9473 225.688 18.0391H225.406V15.0508H222.523V34Z" fill="#262F56"/>
<path d="M42.7495 9.5H20.2495C17.7678 9.5 15.7495 11.5182 15.7495 14V26.5685L5.15877 37.1593C4.8442 37.4739 4.62998 37.8748 4.54321 38.3112C4.45643 38.7476 4.50099 39.1999 4.67125 39.611C4.8415 40.022 5.12982 40.3734 5.49974 40.6207C5.86966 40.8679 6.30458 40.9999 6.74952 41V52.25C6.74952 52.8467 6.98657 53.419 7.40853 53.841C7.83049 54.2629 8.40278 54.5 8.99952 54.5H44.9995C45.5963 54.5 46.1686 54.2629 46.5905 53.841C47.0125 53.419 47.2495 52.8467 47.2495 52.25V14C47.2495 11.5182 45.2313 9.5 42.7495 9.5ZM24.7495 50H11.2495V37.4315L17.9995 30.6815L24.7495 37.4315V50ZM42.7495 50H29.2495V41C29.6949 41.001 30.1306 40.8696 30.5012 40.6226C30.8719 40.3755 31.1607 40.0239 31.3312 39.6124C31.5016 39.2008 31.5459 38.748 31.4585 38.3112C31.3711 37.8744 31.1559 37.4735 30.8403 37.1593L20.2495 26.5685V14H42.7495V50Z" fill="#262F56"/>
<path d="M24.75 18.5H29.25V23H24.75V18.5ZM33.75 18.5H38.25V23H33.75V18.5ZM33.75 27.5697H38.25V32H33.75V27.5697ZM33.75 36.5H38.25V41H33.75V36.5ZM15.75 38.75H20.25V43.25H15.75V38.75Z" fill="#262F56"/>
</svg>
