<svg width="30" height="34" viewBox="0 0 30 34" fill="none" xmlns="http://www.w3.org/2000/svg">
<path fill-rule="evenodd" clip-rule="evenodd" d="M27 31H21V12.43L24 9.43L27 12.43V31ZM19.586 11H4.414L6.414 9H21.586L19.586 11ZM3 31H19V13H3V31ZM7 4.02C7 3.46 7.448 3 8 3H22C22.552 3 23 3.46 23 4.02V7H7V4.02ZM25 7.6V4.02C25 2.36 23.657 1 22 1H8C6.343 1 5 2.36 5 4.02V7.6L1.293 11.31C1.107 11.49 1 11.75 1 12.02V32.02C1 32.28 1.107 32.53 1.293 32.71C1.479 32.9 1.737 33 2 33H19.999C20 33 20 33 20 33H28C28.263 33 28.521 32.9 28.707 32.71C28.893 32.53 29 32.28 29 32.02V12.02C29 11.75 28.893 11.49 28.707 11.31L25 7.6Z" fill="#262F56"/>
<path d="M21 31H20.5V31.5H21V31ZM21 12.43L20.6464 12.0764L20.5 12.2229V12.43H21ZM24 9.43L24.3536 9.07645L24 8.72289L23.6464 9.07645L24 9.43ZM27 12.43H27.5V12.2229L27.3536 12.0764L27 12.43ZM4.414 11L4.06045 10.6464L3.20689 11.5H4.414V11ZM6.414 9V8.5H6.20689L6.06045 8.64645L6.414 9ZM21.586 9L21.9396 9.35355L22.7931 8.5H21.586V9ZM3 31H2.5V31.5H3V31ZM19 31V31.5H19.5V31H19ZM19 13H19.5V12.5H19V13ZM3 13V12.5H2.5V13H3ZM23 7V7.5H23.5V7H23ZM7 7H6.5V7.5H7V7ZM5 7.6L5.3537 7.95341L5.5 7.80699V7.6H5ZM1.293 11.31L1.64076 11.6694L1.6467 11.6634L1.293 11.31ZM1.293 32.71L1.65042 32.3601L1.64071 32.3507L1.293 32.71ZM28.707 32.71L28.3592 32.3506L28.3497 32.3602L28.707 32.71ZM28.707 11.31L28.3533 11.6635L28.3593 11.6693L28.707 11.31ZM27 30.5H21V31.5H27V30.5ZM21.5 31V12.43H20.5V31H21.5ZM21.3536 12.7836L24.3536 9.78355L23.6464 9.07645L20.6464 12.0764L21.3536 12.7836ZM23.6464 9.78355L26.6464 12.7836L27.3536 12.0764L24.3536 9.07645L23.6464 9.78355ZM26.5 12.43V31H27.5V12.43H26.5ZM19.586 10.5H4.414V11.5H19.586V10.5ZM4.76755 11.3536L6.76755 9.35355L6.06045 8.64645L4.06045 10.6464L4.76755 11.3536ZM6.414 9.5H21.586V8.5H6.414V9.5ZM21.2324 8.64645L19.2324 10.6464L19.9396 11.3536L21.9396 9.35355L21.2324 8.64645ZM3 31.5H19V30.5H3V31.5ZM19.5 31V13H18.5V31H19.5ZM19 12.5H3V13.5H19V12.5ZM2.5 13V31H3.5V13H2.5ZM7.5 4.02C7.5 3.72578 7.73439 3.5 8 3.5V2.5C7.16161 2.5 6.5 3.19422 6.5 4.02H7.5ZM8 3.5H22V2.5H8V3.5ZM22 3.5C22.2656 3.5 22.5 3.72578 22.5 4.02H23.5C23.5 3.19422 22.8384 2.5 22 2.5V3.5ZM22.5 4.02V7H23.5V4.02H22.5ZM23 6.5H7V7.5H23V6.5ZM7.5 7V4.02H6.5V7H7.5ZM25.5 7.6V4.02H24.5V7.6H25.5ZM25.5 4.02C25.5 2.08787 23.9371 0.5 22 0.5V1.5C23.3769 1.5 24.5 2.63213 24.5 4.02H25.5ZM22 0.5H8V1.5H22V0.5ZM8 0.5C6.06287 0.5 4.5 2.08787 4.5 4.02H5.5C5.5 2.63213 6.62313 1.5 8 1.5V0.5ZM4.5 4.02V7.6H5.5V4.02H4.5ZM4.6463 7.24659L0.939304 10.9566L1.6467 11.6634L5.3537 7.95341L4.6463 7.24659ZM0.945289 10.9507C0.656929 11.2298 0.5 11.6217 0.5 12.02H1.5C1.5 11.8783 1.55707 11.7502 1.64071 11.6693L0.945289 10.9507ZM0.5 12.02V32.02H1.5V12.02H0.5ZM0.5 32.02C0.5 32.4165 0.662698 32.7958 0.945289 33.0693L1.64071 32.3507C1.5513 32.2642 1.5 32.1435 1.5 32.02H0.5ZM0.935706 33.0598C1.2227 33.3529 1.6128 33.5 2 33.5V32.5C1.8612 32.5 1.7353 32.4471 1.65029 32.3602L0.935706 33.0598ZM2 33.5H19.999V32.5H2V33.5ZM19.999 33.5C19.999 33.5 19.999 33.5 19.999 33.5C19.999 33.5 19.999 33.5 19.999 33.5C19.999 33.5 19.999 33.5 19.999 33.5C19.999 33.5 19.999 33.5 19.999 33.5C19.999 33.5 19.999 33.5 19.999 33.5C19.999 33.5 19.999 33.5 19.999 33.5C19.999 33.5 19.999 33.5 19.999 33.5C19.999 33.5 19.999 33.5 19.999 33.5C19.999 33.5 19.9991 33.5 19.9991 33.5C19.9991 33.5 19.9991 33.5 19.9991 33.5C19.9991 33.5 19.9991 33.5 19.9991 33.5C19.9991 33.5 19.9991 33.5 19.9991 33.5C19.9991 33.5 19.9991 33.5 19.9991 33.5C19.9991 33.5 19.9991 33.5 19.9991 33.5C19.9991 33.5 19.9991 33.5 19.9991 33.5C19.9991 33.5 19.9991 33.5 19.9991 33.5C19.9991 33.5 19.9991 33.5 19.9991 33.5C19.9991 33.5 19.9991 33.5 19.9991 33.5C19.9991 33.5 19.9991 33.5 19.9991 33.5C19.9991 33.5 19.9991 33.5 19.9991 33.5C19.9991 33.5 19.9991 33.5 19.9991 33.5C19.9991 33.5 19.9991 33.5 19.9991 33.5C19.9991 33.5 19.9991 33.5 19.9991 33.5C19.9991 33.5 19.9991 33.5 19.9991 33.5C19.9991 33.5 19.9991 33.5 19.9991 33.5C19.9991 33.5 19.9991 33.5 19.9991 33.5C19.9991 33.5 19.9991 33.5 19.9992 33.5C19.9992 33.5 19.9992 33.5 19.9992 33.5C19.9992 33.5 19.9992 33.5 19.9992 33.5C19.9992 33.5 19.9992 33.5 19.9992 33.5C19.9992 33.5 19.9992 33.5 19.9992 33.5C19.9992 33.5 19.9992 33.5 19.9992 33.5C19.9992 33.5 19.9992 33.5 19.9992 33.5C19.9992 33.5 19.9992 33.5 19.9992 33.5C19.9992 33.5 19.9992 33.5 19.9992 33.5C19.9992 33.5 19.9992 33.5 19.9992 33.5C19.9992 33.5 19.9992 33.5 19.9992 33.5C19.9992 33.5 19.9992 33.5 19.9992 33.5C19.9992 33.5 19.9992 33.5 19.9992 33.5C19.9992 33.5 19.9992 33.5 19.9992 33.5C19.9992 33.5 19.9992 33.5 19.9992 33.5C19.9992 33.5 19.9992 33.5 19.9992 33.5C19.9992 33.5 19.9992 33.5 19.9992 33.5C19.9992 33.5 19.9992 33.5 19.9992 33.5C19.9992 33.5 19.9992 33.5 19.9992 33.5C19.9992 33.5 19.9992 33.5 19.9992 33.5C19.9992 33.5 19.9993 33.5 19.9993 33.5C19.9993 33.5 19.9993 33.5 19.9993 33.5C19.9993 33.5 19.9993 33.5 19.9993 33.5C19.9993 33.5 19.9993 33.5 19.9993 33.5C19.9993 33.5 19.9993 33.5 19.9993 33.5C19.9993 33.5 19.9993 33.5 19.9993 33.5C19.9993 33.5 19.9993 33.5 19.9993 33.5C19.9993 33.5 19.9993 33.5 19.9993 33.5C19.9993 33.5 19.9993 33.5 19.9993 33.5C19.9993 33.5 19.9993 33.5 19.9993 33.5C19.9993 33.5 19.9993 33.5 19.9993 33.5C19.9993 33.5 19.9993 33.5 19.9993 33.5C19.9993 33.5 19.9993 33.5 19.9993 33.5C19.9993 33.5 19.9993 33.5 19.9993 33.5C19.9993 33.5 19.9993 33.5 19.9993 33.5C19.9993 33.5 19.9993 33.5 19.9993 33.5C19.9993 33.5 19.9993 33.5 19.9993 33.5C19.9993 33.5 19.9993 33.5 19.9993 33.5C19.9993 33.5 19.9993 33.5 19.9993 33.5C19.9993 33.5 19.9993 33.5 19.9993 33.5C19.9993 33.5 19.9993 33.5 19.9993 33.5C19.9993 33.5 19.9993 33.5 19.9993 33.5C19.9993 33.5 19.9994 33.5 19.9994 33.5C19.9994 33.5 19.9994 33.5 19.9994 33.5C19.9994 33.5 19.9994 33.5 19.9994 33.5C19.9994 33.5 19.9994 33.5 19.9994 33.5C19.9994 33.5 19.9994 33.5 19.9994 33.5C19.9994 33.5 19.9994 33.5 19.9994 33.5C19.9994 33.5 19.9994 33.5 19.9994 33.5C19.9994 33.5 19.9994 33.5 19.9994 33.5C19.9994 33.5 19.9994 33.5 19.9994 33.5C19.9994 33.5 19.9994 33.5 19.9994 33.5C19.9994 33.5 19.9994 33.5 19.9994 33.5C19.9994 33.5 19.9994 33.5 19.9994 33.5C19.9994 33.5 19.9994 33.5 19.9994 33.5C19.9994 33.5 19.9994 33.5 19.9994 33.5C19.9994 33.5 19.9994 33.5 19.9994 33.5C19.9994 33.5 19.9994 33.5 19.9994 33.5C19.9994 33.5 19.9994 33.5 19.9994 33.5C19.9994 33.5 19.9994 33.5 19.9994 33.5C19.9994 33.5 19.9994 33.5 19.9994 33.5C19.9994 33.5 19.9994 33.5 19.9994 33.5C19.9994 33.5 19.9994 33.5 19.9994 33.5C19.9994 33.5 19.9994 33.5 19.9994 33.5C19.9994 33.5 19.9994 33.5 19.9994 33.5C19.9994 33.5 19.9994 33.5 19.9994 33.5C19.9995 33.5 19.9995 33.5 19.9995 33.5C19.9995 33.5 19.9995 33.5 19.9995 33.5C19.9995 33.5 19.9995 33.5 19.9995 33.5C19.9995 33.5 19.9995 33.5 19.9995 33.5C19.9995 33.5 19.9995 33.5 19.9995 33.5C19.9995 33.5 19.9995 33.5 19.9995 33.5C19.9995 33.5 19.9995 33.5 19.9995 33.5C19.9995 33.5 19.9995 33.5 19.9995 33.5C19.9995 33.5 19.9995 33.5 19.9995 33.5C19.9995 33.5 19.9995 33.5 19.9995 33.5C19.9995 33.5 19.9995 33.5 19.9995 33.5C19.9995 33.5 19.9995 33.5 19.9995 33.5C19.9995 33.5 19.9995 33.5 19.9995 33.5C19.9995 33.5 19.9995 33.5 19.9995 33.5C19.9995 33.5 19.9995 33.5 19.9995 33.5C19.9995 33.5 19.9995 33.5 19.9995 33.5C19.9995 33.5 19.9995 33.5 19.9995 33.5H19.9995C19.9995 33.5 19.9995 33.5 19.9995 33.5C19.9995 33.5 19.9995 33.5 19.9995 33.5C19.9995 33.5 19.9995 33.5 19.9995 33.5C19.9995 33.5 19.9995 33.5 19.9995 33.5C19.9995 33.5 19.9995 33.5 19.9995 33.5C19.9995 33.5 19.9995 33.5 19.9995 33.5C19.9995 33.5 19.9995 33.5 19.9995 33.5H19.9995C19.9995 33.5 19.9995 33.5 19.9995 33.5C19.9995 33.5 19.9995 33.5 19.9996 33.5C19.9996 33.5 19.9996 33.5 19.9996 33.5C19.9996 33.5 19.9996 33.5 19.9996 33.5H19.9996C19.9996 33.5 19.9996 33.5 19.9996 33.5C19.9996 33.5 19.9996 33.5 19.9996 33.5C19.9996 33.5 19.9996 33.5 19.9996 33.5H19.9996C19.9996 33.5 19.9996 33.5 19.9996 33.5C19.9996 33.5 19.9996 33.5 19.9996 33.5H19.9996C19.9996 33.5 19.9996 33.5 19.9996 33.5C19.9996 33.5 19.9996 33.5 19.9996 33.5C19.9996 33.5 19.9996 33.5 19.9996 33.5H19.9996C19.9996 33.5 19.9996 33.5 19.9996 33.5C19.9996 33.5 19.9996 33.5 19.9996 33.5H19.9996C19.9996 33.5 19.9996 33.5 19.9996 33.5C19.9996 33.5 19.9996 33.5 19.9996 33.5H19.9996C19.9996 33.5 19.9996 33.5 19.9996 33.5H19.9996C19.9996 33.5 19.9996 33.5 19.9996 33.5C19.9996 33.5 19.9996 33.5 19.9996 33.5H19.9996C19.9996 33.5 19.9996 33.5 19.9996 33.5H19.9996C19.9996 33.5 19.9996 33.5 19.9996 33.5H19.9996C19.9996 33.5 19.9996 33.5 19.9996 33.5H19.9996C19.9997 33.5 19.9997 33.5 19.9997 33.5H19.9997C19.9997 33.5 19.9997 33.5 19.9997 33.5H19.9997C19.9997 33.5 19.9997 33.5 19.9997 33.5H19.9997C19.9997 33.5 19.9997 33.5 19.9997 33.5H19.9997C19.9997 33.5 19.9997 33.5 19.9997 33.5H19.9997C19.9997 33.5 19.9997 33.5 19.9997 33.5H19.9997C19.9997 33.5 19.9997 33.5 19.9997 33.5H19.9997H19.9997C19.9997 33.5 19.9997 33.5 19.9997 33.5H19.9997C19.9997 33.5 19.9997 33.5 19.9997 33.5H19.9997H19.9997C19.9997 33.5 19.9997 33.5 19.9997 33.5H19.9997H19.9997C19.9997 33.5 19.9997 33.5 19.9997 33.5H19.9997H19.9997C19.9997 33.5 19.9997 33.5 19.9997 33.5H19.9997H19.9997C19.9997 33.5 19.9997 33.5 19.9997 33.5C19.9997 33.5 19.9997 33.5 19.9997 33.5H19.9997C19.9997 33.5 19.9997 33.5 19.9997 33.5C19.9997 33.5 19.9997 33.5 19.9997 33.5C19.9997 33.5 19.9997 33.5 19.9997 33.5H19.9997C19.9997 33.5 19.9997 33.5 19.9997 33.5C19.9997 33.5 19.9997 33.5 19.9998 33.5C19.9998 33.5 19.9998 33.5 19.9998 33.5H19.9998H19.9998C19.9998 33.5 19.9998 33.5 19.9998 33.5C19.9998 33.5 19.9998 33.5 19.9998 33.5C19.9998 33.5 19.9998 33.5 19.9998 33.5H19.9998H19.9998H19.9998C19.9998 33.5 19.9998 33.5 19.9998 33.5C19.9998 33.5 19.9998 33.5 19.9998 33.5C19.9998 33.5 19.9998 33.5 19.9998 33.5C19.9998 33.5 19.9998 33.5 19.9998 33.5H19.9998H19.9998H19.9998C19.9998 33.5 19.9998 33.5 19.9998 33.5C19.9998 33.5 19.9998 33.5 19.9998 33.5C19.9998 33.5 19.9998 33.5 19.9998 33.5C19.9998 33.5 19.9998 33.5 19.9998 33.5C19.9998 33.5 19.9998 33.5 19.9998 33.5C19.9998 33.5 19.9998 33.5 19.9998 33.5C19.9998 33.5 19.9998 33.5 19.9998 33.5C19.9998 33.5 19.9998 33.5 19.9998 33.5C19.9998 33.5 19.9998 33.5 19.9998 33.5C19.9998 33.5 19.9998 33.5 19.9998 33.5H19.9998H19.9998H19.9998H19.9998H19.9998H19.9998H19.9998H19.9998H19.9998H19.9998C19.9998 33.5 19.9998 33.5 19.9998 33.5C19.9998 33.5 19.9998 33.5 19.9998 33.5C19.9998 33.5 19.9998 33.5 19.9998 33.5C19.9998 33.5 19.9998 33.5 19.9998 33.5C19.9998 33.5 19.9998 33.5 19.9998 33.5C19.9998 33.5 19.9998 33.5 19.9998 33.5C19.9998 33.5 19.9998 33.5 19.9998 33.5C19.9998 33.5 19.9998 33.5 19.9998 33.5C19.9998 33.5 19.9998 33.5 19.9998 33.5H19.9998H19.9998H19.9998C19.9998 33.5 19.9998 33.5 19.9998 33.5C19.9998 33.5 19.9998 33.5 19.9999 33.5C19.9999 33.5 19.9999 33.5 19.9999 33.5C19.9999 33.5 19.9999 33.5 19.9999 33.5H19.9999H19.9999C19.9999 33.5 19.9999 33.5 19.9999 33.5C19.9999 33.5 19.9999 33.5 19.9999 33.5C19.9999 33.5 19.9999 33.5 19.9999 33.5H19.9999C19.9999 33.5 19.9999 33.5 19.9999 33.5C19.9999 33.5 19.9999 33.5 19.9999 33.5C19.9999 33.5 19.9999 33.5 19.9999 33.5H19.9999C19.9999 33.5 19.9999 33.5 19.9999 33.5C19.9999 33.5 19.9999 33.5 19.9999 33.5H19.9999C19.9999 33.5 19.9999 33.5 19.9999 33.5C19.9999 33.5 19.9999 33.5 19.9999 33.5H19.9999C19.9999 33.5 19.9999 33.5 19.9999 33.5C19.9999 33.5 19.9999 33.5 19.9999 33.5C19.9999 33.5 19.9999 33.5 19.9999 33.5C19.9999 33.5 19.9999 33.5 19.9999 33.5H19.9999C19.9999 33.5 19.9999 33.5 19.9999 33.5H19.9999C19.9999 33.5 19.9999 33.5 19.9999 33.5H19.9999C19.9999 33.5 19.9999 33.5 19.9999 33.5H19.9999C19.9999 33.5 19.9999 33.5 19.9999 33.5C19.9999 33.5 19.9999 33.5 19.9999 33.5H19.9999C19.9999 33.5 19.9999 33.5 19.9999 33.5C19.9999 33.5 19.9999 33.5 19.9999 33.5H19.9999C19.9999 33.5 19.9999 33.5 19.9999 33.5C19.9999 33.5 19.9999 33.5 19.9999 33.5C19.9999 33.5 19.9999 33.5 19.9999 33.5H19.9999H19.9999C19.9999 33.5 19.9999 33.5 19.9999 33.5C19.9999 33.5 19.9999 33.5 19.9999 33.5C19.9999 33.5 19.9999 33.5 19.9999 33.5C19.9999 33.5 19.9999 33.5 19.9999 33.5C19.9999 33.5 19.9999 33.5 19.9999 33.5C19.9999 33.5 19.9999 33.5 19.9999 33.5C19.9999 33.5 19.9999 33.5 19.9999 33.5H19.9999H19.9999C19.9999 33.5 19.9999 33.5 19.9999 33.5C19.9999 33.5 19.9999 33.5 19.9999 33.5H20C20 33.5 20 33.5 20 33.5H20C20 33.5 20 33.5 20 33.5H20C20 33.5 20 33.5 20 33.5C20 33.5 20 33.5 20 33.5C20 33.5 20 33.5 20 33.5C20 33.5 20 33.5 20 33.5C20 33.5 20 33.5 20 33.5C20 33.5 20 33.5 20 33.5H20C20 33.5 20 33.5 20 33.5H20H20H20C20 33.5 20 33.5 20 33.5C20 33.5 20 33.5 20 33.5C20 33.5 20 33.5 20 33.5H20C20 33.5 20 33.5 20 33.5C20 33.5 20 33.5 20 33.5C20 33.5 20 33.5 20 33.5H20H20C20 33.5 20 33.5 20 33.5H20C20 33 20 32.5 20 33C20 33.5 20 33 20 32.5H20C20 32.5 20 32.5 20 32.5H20H20C20 32.5 20 32.5 20 32.5C20 32.5 20 32.5 20 32.5C20 32.5 20 32.5 20 32.5H20C20 32.5 20 32.5 20 32.5C20 32.5 20 32.5 20 32.5C20 32.5 20 32.5 20 32.5H20H20H20C20 32.5 20 32.5 20 32.5H20C20 32.5 20 32.5 20 32.5C20 32.5 20 32.5 20 32.5C20 32.5 20 32.5 20 32.5C20 32.5 20 32.5 20 32.5C20 32.5 20 32.5 20 32.5C20 32.5 20 32.5 20 32.5H20C20 32.5 20 32.5 20 32.5H20C20 32.5 20 32.5 20 32.5H19.9999C19.9999 32.5 19.9999 32.5 19.9999 32.5C19.9999 32.5 19.9999 32.5 19.9999 32.5H19.9999H19.9999C19.9999 32.5 19.9999 32.5 19.9999 32.5C19.9999 32.5 19.9999 32.5 19.9999 32.5C19.9999 32.5 19.9999 32.5 19.9999 32.5C19.9999 32.5 19.9999 32.5 19.9999 32.5C19.9999 32.5 19.9999 32.5 19.9999 32.5C19.9999 32.5 19.9999 32.5 19.9999 32.5C19.9999 32.5 19.9999 32.5 19.9999 32.5H19.9999H19.9999C19.9999 32.5 19.9999 32.5 19.9999 32.5C19.9999 32.5 19.9999 32.5 19.9999 32.5C19.9999 32.5 19.9999 32.5 19.9999 32.5H19.9999C19.9999 32.5 19.9999 32.5 19.9999 32.5C19.9999 32.5 19.9999 32.5 19.9999 32.5H19.9999C19.9999 32.5 19.9999 32.5 19.9999 32.5C19.9999 32.5 19.9999 32.5 19.9999 32.5H19.9999C19.9999 32.5 19.9999 32.5 19.9999 32.5H19.9999C19.9999 32.5 19.9999 32.5 19.9999 32.5H19.9999C19.9999 32.5 19.9999 32.5 19.9999 32.5H19.9999C19.9999 32.5 19.9999 32.5 19.9999 32.5C19.9999 32.5 19.9999 32.5 19.9999 32.5C19.9999 32.5 19.9999 32.5 19.9999 32.5C19.9999 32.5 19.9999 32.5 19.9999 32.5H19.9999C19.9999 32.5 19.9999 32.5 19.9999 32.5C19.9999 32.5 19.9999 32.5 19.9999 32.5H19.9999C19.9999 32.5 19.9999 32.5 19.9999 32.5C19.9999 32.5 19.9999 32.5 19.9999 32.5H19.9999C19.9999 32.5 19.9999 32.5 19.9999 32.5C19.9999 32.5 19.9999 32.5 19.9999 32.5C19.9999 32.5 19.9999 32.5 19.9999 32.5H19.9999C19.9999 32.5 19.9999 32.5 19.9999 32.5C19.9999 32.5 19.9999 32.5 19.9999 32.5C19.9999 32.5 19.9999 32.5 19.9999 32.5H19.9999H19.9999C19.9999 32.5 19.9999 32.5 19.9999 32.5C19.9999 32.5 19.9999 32.5 19.9999 32.5C19.9998 32.5 19.9998 32.5 19.9998 32.5C19.9998 32.5 19.9998 32.5 19.9998 32.5H19.9998H19.9998H19.9998C19.9998 32.5 19.9998 32.5 19.9998 32.5C19.9998 32.5 19.9998 32.5 19.9998 32.5C19.9998 32.5 19.9998 32.5 19.9998 32.5C19.9998 32.5 19.9998 32.5 19.9998 32.5C19.9998 32.5 19.9998 32.5 19.9998 32.5C19.9998 32.5 19.9998 32.5 19.9998 32.5C19.9998 32.5 19.9998 32.5 19.9998 32.5C19.9998 32.5 19.9998 32.5 19.9998 32.5C19.9998 32.5 19.9998 32.5 19.9998 32.5H19.9998H19.9998H19.9998H19.9998H19.9998H19.9998H19.9998H19.9998H19.9998H19.9998C19.9998 32.5 19.9998 32.5 19.9998 32.5C19.9998 32.5 19.9998 32.5 19.9998 32.5C19.9998 32.5 19.9998 32.5 19.9998 32.5C19.9998 32.5 19.9998 32.5 19.9998 32.5C19.9998 32.5 19.9998 32.5 19.9998 32.5C19.9998 32.5 19.9998 32.5 19.9998 32.5C19.9998 32.5 19.9998 32.5 19.9998 32.5C19.9998 32.5 19.9998 32.5 19.9998 32.5C19.9998 32.5 19.9998 32.5 19.9998 32.5C19.9998 32.5 19.9998 32.5 19.9998 32.5H19.9998H19.9998H19.9998C19.9998 32.5 19.9998 32.5 19.9998 32.5C19.9998 32.5 19.9998 32.5 19.9998 32.5C19.9998 32.5 19.9998 32.5 19.9998 32.5C19.9998 32.5 19.9998 32.5 19.9998 32.5H19.9998H19.9998H19.9998C19.9998 32.5 19.9998 32.5 19.9998 32.5C19.9998 32.5 19.9998 32.5 19.9998 32.5C19.9998 32.5 19.9998 32.5 19.9998 32.5H19.9998H19.9998C19.9998 32.5 19.9998 32.5 19.9998 32.5C19.9997 32.5 19.9997 32.5 19.9997 32.5C19.9997 32.5 19.9997 32.5 19.9997 32.5H19.9997C19.9997 32.5 19.9997 32.5 19.9997 32.5C19.9997 32.5 19.9997 32.5 19.9997 32.5C19.9997 32.5 19.9997 32.5 19.9997 32.5H19.9997C19.9997 32.5 19.9997 32.5 19.9997 32.5C19.9997 32.5 19.9997 32.5 19.9997 32.5H19.9997H19.9997C19.9997 32.5 19.9997 32.5 19.9997 32.5H19.9997H19.9997C19.9997 32.5 19.9997 32.5 19.9997 32.5H19.9997H19.9997C19.9997 32.5 19.9997 32.5 19.9997 32.5H19.9997H19.9997C19.9997 32.5 19.9997 32.5 19.9997 32.5H19.9997C19.9997 32.5 19.9997 32.5 19.9997 32.5H19.9997H19.9997C19.9997 32.5 19.9997 32.5 19.9997 32.5H19.9997C19.9997 32.5 19.9997 32.5 19.9997 32.5H19.9997C19.9997 32.5 19.9997 32.5 19.9997 32.5H19.9997C19.9997 32.5 19.9997 32.5 19.9997 32.5H19.9997C19.9997 32.5 19.9997 32.5 19.9997 32.5H19.9997C19.9997 32.5 19.9997 32.5 19.9997 32.5H19.9997C19.9997 32.5 19.9997 32.5 19.9996 32.5H19.9996C19.9996 32.5 19.9996 32.5 19.9996 32.5H19.9996C19.9996 32.5 19.9996 32.5 19.9996 32.5H19.9996C19.9996 32.5 19.9996 32.5 19.9996 32.5H19.9996C19.9996 32.5 19.9996 32.5 19.9996 32.5C19.9996 32.5 19.9996 32.5 19.9996 32.5H19.9996C19.9996 32.5 19.9996 32.5 19.9996 32.5H19.9996C19.9996 32.5 19.9996 32.5 19.9996 32.5C19.9996 32.5 19.9996 32.5 19.9996 32.5H19.9996C19.9996 32.5 19.9996 32.5 19.9996 32.5C19.9996 32.5 19.9996 32.5 19.9996 32.5H19.9996C19.9996 32.5 19.9996 32.5 19.9996 32.5C19.9996 32.5 19.9996 32.5 19.9996 32.5C19.9996 32.5 19.9996 32.5 19.9996 32.5H19.9996C19.9996 32.5 19.9996 32.5 19.9996 32.5C19.9996 32.5 19.9996 32.5 19.9996 32.5H19.9996C19.9996 32.5 19.9996 32.5 19.9996 32.5C19.9996 32.5 19.9996 32.5 19.9996 32.5C19.9996 32.5 19.9996 32.5 19.9996 32.5H19.9996C19.9996 32.5 19.9996 32.5 19.9996 32.5C19.9996 32.5 19.9996 32.5 19.9996 32.5C19.9995 32.5 19.9995 32.5 19.9995 32.5C19.9995 32.5 19.9995 32.5 19.9995 32.5H19.9995C19.9995 32.5 19.9995 32.5 19.9995 32.5C19.9995 32.5 19.9995 32.5 19.9995 32.5C19.9995 32.5 19.9995 32.5 19.9995 32.5C19.9995 32.5 19.9995 32.5 19.9995 32.5C19.9995 32.5 19.9995 32.5 19.9995 32.5C19.9995 32.5 19.9995 32.5 19.9995 32.5C19.9995 32.5 19.9995 32.5 19.9995 32.5H19.9995C19.9995 32.5 19.9995 32.5 19.9995 32.5C19.9995 32.5 19.9995 32.5 19.9995 32.5C19.9995 32.5 19.9995 32.5 19.9995 32.5C19.9995 32.5 19.9995 32.5 19.9995 32.5C19.9995 32.5 19.9995 32.5 19.9995 32.5C19.9995 32.5 19.9995 32.5 19.9995 32.5C19.9995 32.5 19.9995 32.5 19.9995 32.5C19.9995 32.5 19.9995 32.5 19.9995 32.5C19.9995 32.5 19.9995 32.5 19.9995 32.5C19.9995 32.5 19.9995 32.5 19.9995 32.5C19.9995 32.5 19.9995 32.5 19.9995 32.5C19.9995 32.5 19.9995 32.5 19.9995 32.5C19.9995 32.5 19.9995 32.5 19.9995 32.5C19.9995 32.5 19.9995 32.5 19.9995 32.5C19.9995 32.5 19.9995 32.5 19.9995 32.5C19.9995 32.5 19.9995 32.5 19.9995 32.5C19.9995 32.5 19.9995 32.5 19.9994 32.5C19.9994 32.5 19.9994 32.5 19.9994 32.5C19.9994 32.5 19.9994 32.5 19.9994 32.5C19.9994 32.5 19.9994 32.5 19.9994 32.5C19.9994 32.5 19.9994 32.5 19.9994 32.5C19.9994 32.5 19.9994 32.5 19.9994 32.5C19.9994 32.5 19.9994 32.5 19.9994 32.5C19.9994 32.5 19.9994 32.5 19.9994 32.5C19.9994 32.5 19.9994 32.5 19.9994 32.5C19.9994 32.5 19.9994 32.5 19.9994 32.5C19.9994 32.5 19.9994 32.5 19.9994 32.5C19.9994 32.5 19.9994 32.5 19.9994 32.5C19.9994 32.5 19.9994 32.5 19.9994 32.5C19.9994 32.5 19.9994 32.5 19.9994 32.5C19.9994 32.5 19.9994 32.5 19.9994 32.5C19.9994 32.5 19.9994 32.5 19.9994 32.5C19.9994 32.5 19.9994 32.5 19.9994 32.5C19.9994 32.5 19.9994 32.5 19.9994 32.5C19.9994 32.5 19.9994 32.5 19.9994 32.5C19.9994 32.5 19.9994 32.5 19.9994 32.5C19.9994 32.5 19.9994 32.5 19.9994 32.5C19.9994 32.5 19.9994 32.5 19.9994 32.5C19.9994 32.5 19.9994 32.5 19.9994 32.5C19.9994 32.5 19.9994 32.5 19.9994 32.5C19.9994 32.5 19.9993 32.5 19.9993 32.5C19.9993 32.5 19.9993 32.5 19.9993 32.5C19.9993 32.5 19.9993 32.5 19.9993 32.5C19.9993 32.5 19.9993 32.5 19.9993 32.5C19.9993 32.5 19.9993 32.5 19.9993 32.5C19.9993 32.5 19.9993 32.5 19.9993 32.5C19.9993 32.5 19.9993 32.5 19.9993 32.5C19.9993 32.5 19.9993 32.5 19.9993 32.5C19.9993 32.5 19.9993 32.5 19.9993 32.5C19.9993 32.5 19.9993 32.5 19.9993 32.5C19.9993 32.5 19.9993 32.5 19.9993 32.5C19.9993 32.5 19.9993 32.5 19.9993 32.5C19.9993 32.5 19.9993 32.5 19.9993 32.5C19.9993 32.5 19.9993 32.5 19.9993 32.5C19.9993 32.5 19.9993 32.5 19.9993 32.5C19.9993 32.5 19.9993 32.5 19.9993 32.5C19.9993 32.5 19.9993 32.5 19.9993 32.5C19.9993 32.5 19.9993 32.5 19.9993 32.5C19.9993 32.5 19.9993 32.5 19.9993 32.5C19.9993 32.5 19.9993 32.5 19.9993 32.5C19.9993 32.5 19.9993 32.5 19.9993 32.5C19.9993 32.5 19.9993 32.5 19.9993 32.5C19.9993 32.5 19.9992 32.5 19.9992 32.5C19.9992 32.5 19.9992 32.5 19.9992 32.5C19.9992 32.5 19.9992 32.5 19.9992 32.5C19.9992 32.5 19.9992 32.5 19.9992 32.5C19.9992 32.5 19.9992 32.5 19.9992 32.5C19.9992 32.5 19.9992 32.5 19.9992 32.5C19.9992 32.5 19.9992 32.5 19.9992 32.5C19.9992 32.5 19.9992 32.5 19.9992 32.5C19.9992 32.5 19.9992 32.5 19.9992 32.5C19.9992 32.5 19.9992 32.5 19.9992 32.5C19.9992 32.5 19.9992 32.5 19.9992 32.5C19.9992 32.5 19.9992 32.5 19.9992 32.5C19.9992 32.5 19.9992 32.5 19.9992 32.5C19.9992 32.5 19.9992 32.5 19.9992 32.5C19.9992 32.5 19.9992 32.5 19.9992 32.5C19.9992 32.5 19.9992 32.5 19.9992 32.5C19.9992 32.5 19.9992 32.5 19.9992 32.5C19.9992 32.5 19.9992 32.5 19.9992 32.5C19.9992 32.5 19.9992 32.5 19.9992 32.5C19.9992 32.5 19.9992 32.5 19.9992 32.5C19.9991 32.5 19.9991 32.5 19.9991 32.5C19.9991 32.5 19.9991 32.5 19.9991 32.5C19.9991 32.5 19.9991 32.5 19.9991 32.5C19.9991 32.5 19.9991 32.5 19.9991 32.5C19.9991 32.5 19.9991 32.5 19.9991 32.5C19.9991 32.5 19.9991 32.5 19.9991 32.5C19.9991 32.5 19.9991 32.5 19.9991 32.5C19.9991 32.5 19.9991 32.5 19.9991 32.5C19.9991 32.5 19.9991 32.5 19.9991 32.5C19.9991 32.5 19.9991 32.5 19.9991 32.5C19.9991 32.5 19.9991 32.5 19.9991 32.5C19.9991 32.5 19.9991 32.5 19.9991 32.5C19.9991 32.5 19.9991 32.5 19.9991 32.5C19.9991 32.5 19.9991 32.5 19.9991 32.5C19.9991 32.5 19.9991 32.5 19.9991 32.5C19.9991 32.5 19.9991 32.5 19.9991 32.5C19.9991 32.5 19.9991 32.5 19.9991 32.5C19.9991 32.5 19.9991 32.5 19.9991 32.5C19.9991 32.5 19.999 32.5 19.999 32.5C19.999 32.5 19.999 32.5 19.999 32.5C19.999 32.5 19.999 32.5 19.999 32.5C19.999 32.5 19.999 32.5 19.999 32.5C19.999 32.5 19.999 32.5 19.999 32.5C19.999 32.5 19.999 32.5 19.999 32.5C19.999 32.5 19.999 32.5 19.999 32.5C19.999 32.5 19.999 32.5 19.999 32.5C19.999 32.5 19.999 32.5 19.999 32.5V33.5ZM20 33.5H28V32.5H20V33.5ZM28 33.5C28.3872 33.5 28.7773 33.3529 29.0643 33.0598L28.3497 32.3602C28.2647 32.4471 28.1388 32.5 28 32.5V33.5ZM29.0547 33.0693C29.3373 32.7958 29.5 32.4165 29.5 32.02H28.5C28.5 32.1435 28.4487 32.2642 28.3593 32.3507L29.0547 33.0693ZM29.5 32.02V12.02H28.5V32.02H29.5ZM29.5 12.02C29.5 11.6217 29.3431 11.2298 29.0547 10.9507L28.3593 11.6693C28.4429 11.7502 28.5 11.8783 28.5 12.02H29.5ZM29.0607 10.9566L25.3537 7.24659L24.6463 7.95341L28.3533 11.6634L29.0607 10.9566Z" fill="#262F56"/>
<path fill-rule="evenodd" clip-rule="evenodd" d="M9.225 22.32C9.576 21.61 10.327 20.73 11 19.99C11.358 20.39 11.736 20.81 12.071 21.25C12.361 21.62 12.613 22 12.776 22.32C12.942 22.64 13.004 22.9 13 23.02C12.998 24.12 12.1 25.01 11 25.02C9.9 25.01 9.002 24.12 9 23.02C8.996 22.9 9.058 22.64 9.225 22.32ZM11 27.02C13.209 27.01 14.998 25.22 15 23.02C14.996 22.42 14.803 21.9 14.559 21.41C13.816 19.97 12.441 18.63 11.739 17.85C11.549 17.64 11.282 17.52 11 17.52C10.718 17.52 10.451 17.64 10.261 17.85C9.797 18.36 9.022 19.15 8.347 20.02C8.008 20.46 7.69 20.92 7.441 21.41C7.197 21.9 7.004 22.42 7 23.02C7.002 25.22 8.792 27.01 11 27.02Z" fill="#262F56"/>
<path d="M11 19.99L11.3726 19.6566L11.003 19.2436L10.6301 19.6536L11 19.99ZM12.071 21.25L11.6731 21.5529L11.6775 21.5585L12.071 21.25ZM12.776 22.32L12.3305 22.547L12.3322 22.5503L12.776 22.32ZM13 23.02L12.5003 23.0034L12.5 23.0112L12.5 23.0191L13 23.02ZM11 25.02L10.9955 25.5201L11.0045 25.52L11 25.02ZM9 23.02L9.5 23.0191L9.49998 23.0112L9.49972 23.0034L9 23.02ZM15 23.02L15.5 23.0205L15.5 23.0167L15 23.02ZM14.559 21.41L15.0066 21.1871L15.0033 21.1808L14.559 21.41ZM11.739 17.85L12.1106 17.5155L12.1098 17.5146L11.739 17.85ZM10.261 17.85L10.6308 18.1865L10.6318 18.1855L10.261 17.85ZM8.347 20.02L7.95196 19.7135L7.95092 19.7149L8.347 20.02ZM7.441 21.41L6.99524 21.1835L6.99342 21.1871L7.441 21.41ZM7 23.02L6.5 23.0167L6.5 23.0205L7 23.02ZM9.67322 22.5416C9.98821 21.9044 10.6899 21.0741 11.3699 20.3264L10.6301 19.6536C9.9641 20.3859 9.16379 21.3156 8.77678 22.0984L9.67322 22.5416ZM10.6274 20.3235C10.9886 20.7271 11.3525 21.1317 11.6732 21.5529L12.4688 20.9471C12.1195 20.4883 11.7274 20.053 11.3726 19.6566L10.6274 20.3235ZM11.6775 21.5585C11.9544 21.9118 12.1864 22.2642 12.3305 22.547L13.2215 22.0931C13.0396 21.7358 12.7676 21.3282 12.4645 20.9416L11.6775 21.5585ZM12.3322 22.5503C12.4018 22.6845 12.4465 22.8003 12.4726 22.8878C12.5015 22.9851 12.4997 23.0209 12.5003 23.0034L13.4997 23.0367C13.5079 22.7908 13.4014 22.4398 13.2198 22.0898L12.3322 22.5503ZM12.5 23.0191C12.4985 23.8404 11.8262 24.5125 10.9955 24.52L11.0045 25.52C12.3738 25.5076 13.4975 24.3996 13.5 23.0209L12.5 23.0191ZM11.0045 24.52C10.1738 24.5125 9.50149 23.8404 9.5 23.0191L8.5 23.0209C8.50251 24.3996 9.62617 25.5076 10.9955 25.52L11.0045 24.52ZM9.49972 23.0034C9.50031 23.021 9.49842 22.9852 9.52743 22.8882C9.55352 22.801 9.59833 22.6854 9.66827 22.5513L8.78173 22.0887C8.59879 22.4392 8.49207 22.7905 8.50028 23.0367L9.49972 23.0034ZM11.0023 27.52C13.4847 27.5088 15.4977 25.4972 15.5 23.0205L14.5 23.0196C14.4983 24.9429 12.9333 26.5113 10.9977 26.52L11.0023 27.52ZM15.5 23.0167C15.4953 22.3073 15.2658 21.7077 15.0066 21.1871L14.1114 21.6329C14.3402 22.0923 14.4967 22.5327 14.5 23.0234L15.5 23.0167ZM15.0033 21.1808C14.2217 19.6658 12.7762 18.255 12.1106 17.5155L11.3674 18.1845C12.1058 19.005 13.4103 20.2742 14.1147 21.6393L15.0033 21.1808ZM12.1098 17.5146C11.8264 17.2014 11.4254 17.02 11 17.02V18.02C11.1386 18.02 11.2716 18.0786 11.3682 18.1855L12.1098 17.5146ZM11 17.02C10.5746 17.02 10.1736 17.2014 9.89023 17.5146L10.6318 18.1855C10.7284 18.0786 10.8614 18.02 11 18.02V17.02ZM9.89116 17.5135C9.44408 18.0049 8.64297 18.8229 7.95196 19.7135L8.74204 20.3265C9.40103 19.4772 10.1499 18.7151 10.6308 18.1865L9.89116 17.5135ZM7.95092 19.7149C7.6026 20.167 7.26403 20.6546 6.99525 21.1835L7.88675 21.6365C8.11597 21.1854 8.4134 20.7531 8.74308 20.3252L7.95092 19.7149ZM6.99342 21.1871C6.73419 21.7077 6.50474 22.3073 6.50001 23.0167L7.49999 23.0234C7.50326 22.5327 7.65981 22.0923 7.88858 21.6329L6.99342 21.1871ZM6.5 23.0205C6.50225 25.4973 8.51636 27.5088 10.9977 27.52L11.0023 26.52C9.06764 26.5113 7.50175 24.9428 7.5 23.0196L6.5 23.0205Z" fill="#262F56"/>
</svg>
