<svg width="202" height="200" viewBox="0 0 202 200" fill="none" xmlns="http://www.w3.org/2000/svg">
<g clip-path="url(#clip0)">
<path d="M137.986 34.5007H125.226H117.569V49.6756V68.3512H126.836V49.6756H137.986V34.5007Z" fill="url(#paint0_linear)"/>
<path d="M136.373 34.5007H125.627H119.179V48.4711V65.6653H125.627V48.4711H136.373V34.5007Z" fill="#FFCC80"/>
<path d="M115.418 109.996H94.9998V200H115.418V109.996Z" fill="url(#paint1_linear)"/>
<path d="M114.073 109.996H96.8792V198.39H114.073V109.996Z" fill="#ECEFF1"/>
<path d="M162.918 39.8726H70.9632C67.8023 39.9533 64.6873 40.6475 61.7913 41.9166C52.4439 46.0594 47.0033 52.5618 45.4669 66.9821V100.298L21.101 100.04C16.2009 100.04 14.4094 107.744 14.4094 112.951H179.001V56.9625C179.001 47.5245 171.81 39.8726 162.918 39.8726Z" fill="url(#paint2_linear)"/>
<path d="M74.3103 43.3652H165.42C168.38 43.3652 171.219 44.5411 173.312 46.6342C175.405 48.7273 176.581 51.5661 176.581 54.5262V109.996H74.3103V43.3652Z" fill="#6C63FF"/>
<path d="M72.1566 43.3652C78.712 43.3652 84.9989 45.9693 89.6342 50.6047C94.2696 55.24 96.8737 61.5269 96.8737 68.0823V97.8997C96.8737 101.108 95.5992 104.185 93.3307 106.453C91.0621 108.722 87.9854 109.996 84.7772 109.996H59.5361C56.3279 109.996 53.2511 108.722 50.9825 106.453C48.714 104.185 47.4395 101.108 47.4395 97.8997V68.0823C47.4395 61.5269 50.0437 55.24 54.679 50.6047C59.3144 45.9693 65.6012 43.3652 72.1566 43.3652Z" fill="#6C63FF"/>
<path opacity="0.2" d="M72.1566 43.3652C78.712 43.3652 84.9989 45.9693 89.6342 50.6047C94.2696 55.24 96.8737 61.5269 96.8737 68.0823V97.8997C96.8737 101.108 95.5992 104.185 93.3307 106.453C91.0621 108.722 87.9854 109.996 84.7772 109.996H59.5361C56.3279 109.996 53.2511 108.722 50.9825 106.453C48.714 104.185 47.4395 101.108 47.4395 97.8997V68.0823C47.4395 61.5269 50.0437 55.24 54.679 50.6047C59.3144 45.9693 65.6012 43.3652 72.1566 43.3652Z" fill="black"/>
<path d="M47.6397 56.0853L45.0977 76.9691L79.0788 81.1053L81.6208 60.2216L47.6397 56.0853Z" fill="url(#paint3_linear)"/>
<path d="M47.9936 56.6552L45.6214 76.1445L78.4504 80.1405L80.8227 60.6512L47.9936 56.6552Z" fill="#FAF8E4"/>
<g opacity="0.6">
<path opacity="0.6" d="M48.8547 61.4094L53.0325 61.918L53.4088 58.8268L49.231 58.3183L48.8547 61.4094Z" fill="#6C63FF"/>
<path opacity="0.6" d="M51.5492 67.8388L67.5878 69.791L67.7098 68.7888L51.6712 66.8365L51.5492 67.8388Z" fill="#6C63FF"/>
<path opacity="0.6" d="M55.6295 70.5406L67.3242 71.9641L67.4054 71.2968L55.7107 69.8733L55.6295 70.5406Z" fill="#6C63FF"/>
</g>
<path d="M61.4855 60.6792L58.9435 81.563L92.9245 85.6992L95.4665 64.8155L61.4855 60.6792Z" fill="url(#paint4_linear)"/>
<path d="M61.8394 61.2517L59.4671 80.7411L92.2961 84.7371L94.6684 65.2477L61.8394 61.2517Z" fill="#FAF8E4"/>
<g opacity="0.6">
<path opacity="0.6" d="M62.7027 66.0065L66.8805 66.5151L67.2568 63.4239L63.0789 62.9154L62.7027 66.0065Z" fill="#6C63FF"/>
<path opacity="0.6" d="M65.3971 72.4361L81.4357 74.3883L81.5577 73.3861L65.5191 71.4338L65.3971 72.4361Z" fill="#6C63FF"/>
<path opacity="0.6" d="M69.472 75.1373L81.1667 76.5609L81.2479 75.8936L69.5532 74.4701L69.472 75.1373Z" fill="#6C63FF"/>
</g>
<path d="M32.0667 62.6426L28.621 90.9506L74.6807 96.557L78.1264 68.249L32.0667 62.6426Z" fill="url(#paint5_linear)"/>
<path d="M32.5487 63.4106L29.3328 89.8312L73.832 95.2478L77.0479 68.8271L32.5487 63.4106Z" fill="white"/>
<g opacity="0.6">
<path opacity="0.6" d="M33.716 69.8573L39.3782 70.5465L39.888 66.3578L34.2259 65.6685L33.716 69.8573Z" fill="#6C63FF"/>
<path opacity="0.6" d="M37.3638 78.5751L59.1055 81.2216L59.2709 79.8625L37.5293 77.2161L37.3638 78.5751Z" fill="#6C63FF"/>
<path opacity="0.6" d="M42.8962 82.2353L58.7496 84.165L58.86 83.258L43.0065 81.3283L42.8962 82.2353Z" fill="#6C63FF"/>
</g>
<path d="M50.8355 68.8692L47.3898 97.1772L93.4496 102.784L96.8953 74.4756L50.8355 68.8692Z" fill="url(#paint6_linear)"/>
<path d="M51.3145 69.6424L48.0985 96.063L92.5977 101.48L95.8137 75.0589L51.3145 69.6424Z" fill="white"/>
<g opacity="0.6">
<path opacity="0.6" d="M52.4836 76.0881L58.1458 76.7773L58.6556 72.5886L52.9935 71.8994L52.4836 76.0881Z" fill="#6C63FF"/>
<path opacity="0.6" d="M56.1315 84.806L77.8731 87.4524L78.0386 86.0934L56.2969 83.4469L56.1315 84.806Z" fill="#6C63FF"/>
<path opacity="0.6" d="M61.6634 88.466L77.5169 90.3957L77.6273 89.4888L61.7738 87.5591L61.6634 88.466Z" fill="#6C63FF"/>
</g>
<path opacity="0.2" d="M71.8932 43.6341C68.6598 43.6315 65.4575 44.2655 62.469 45.4997C63.6331 45.3327 64.8075 45.2484 65.9835 45.2473C69.2294 45.2473 72.4435 45.8867 75.4423 47.1288C78.4411 48.371 81.1659 50.1916 83.4611 52.4868C85.7563 54.782 87.577 57.5068 88.8191 60.5056C90.0613 63.5044 90.7006 66.7185 90.7006 69.9644V109.198H96.6103V68.3512C96.6103 61.7958 94.0062 55.5089 89.3708 50.8736C84.7355 46.2382 78.4486 43.6341 71.8932 43.6341Z" fill="black"/>
<path d="M25.9517 101.398H96.8792V109.996H17.3533C17.3533 107.716 18.2592 105.529 19.8717 103.916C21.4842 102.304 23.6712 101.398 25.9517 101.398Z" fill="#6C63FF"/>
<path opacity="0.2" d="M25.9517 101.398H96.8792V109.996H17.3533C17.3533 107.716 18.2592 105.529 19.8717 103.916C21.4842 102.304 23.6712 101.398 25.9517 101.398Z" fill="white"/>
<path d="M180.356 19.3643L179.541 19.7621L179.634 19.5948L179.563 19.6167L179.664 19.5426L190.644 0L196.258 4.78758L201.076 9.24592L199.693 9.92085L201.246 12.6617L180.356 19.3643Z" fill="url(#paint7_linear)"/>
<path d="M195.704 5.29785L200.104 9.38032L180.153 19.2984L190.771 5.69019L195.704 5.29785Z" fill="#6C63FF"/>
<path opacity="0.2" d="M195.704 5.29785L200.104 9.38032L180.153 19.2984L190.771 5.69019L195.704 5.29785Z" fill="black"/>
<path d="M190.568 0.919128L180.153 19.2985L195.704 5.29791L190.568 0.919128Z" fill="#6C63FF"/>
<path d="M200.233 12.5383L180.175 19.1641L196.941 6.64777L200.233 12.5383Z" fill="#6C63FF"/>
<path d="M33.3813 23.861L34.6928 24.0641L34.4898 23.872H34.6022L34.4267 23.8117L10.5958 1.21265L4.81227 10.3406L0 18.6674L2.2278 19.0131L1.24011 23.5236L33.3813 23.861Z" fill="url(#paint8_linear)"/>
<path d="M5.81094 10.8154L1.4157 18.4343L33.6365 23.6801L12.8839 9.22955L5.81094 10.8154Z" fill="#6C63FF"/>
<path opacity="0.2" d="M5.81094 10.8154L1.4157 18.4343L33.6365 23.6801L12.8839 9.22955L5.81094 10.8154Z" fill="black"/>
<path d="M11.1033 2.46649L33.6365 23.68L5.81094 10.8153L11.1033 2.46649Z" fill="#6C63FF"/>
<path d="M2.60367 22.9118L33.5487 23.5044L4.66137 13.2433L2.60367 22.9118Z" fill="#6C63FF"/>
</g>
<defs>
<linearGradient id="paint0_linear" x1="9626.77" y1="8467.68" x2="9626.77" y2="4291.2" gradientUnits="userSpaceOnUse">
<stop stop-color="#808080" stop-opacity="0.25"/>
<stop offset="0.54" stop-color="#808080" stop-opacity="0.12"/>
<stop offset="1" stop-color="#808080" stop-opacity="0.1"/>
</linearGradient>
<linearGradient id="paint1_linear" x1="105.209" y1="200" x2="105.209" y2="109.996" gradientUnits="userSpaceOnUse">
<stop stop-color="#808080" stop-opacity="0.25"/>
<stop offset="0.54" stop-color="#808080" stop-opacity="0.12"/>
<stop offset="1" stop-color="#808080" stop-opacity="0.1"/>
</linearGradient>
<linearGradient id="paint2_linear" x1="39229.9" y1="26481.1" x2="137976" y2="26481.1" gradientUnits="userSpaceOnUse">
<stop stop-color="#808080" stop-opacity="0.25"/>
<stop offset="0.54" stop-color="#808080" stop-opacity="0.12"/>
<stop offset="1" stop-color="#808080" stop-opacity="0.1"/>
</linearGradient>
<linearGradient id="paint3_linear" x1="-7067.31" y1="12368.3" x2="-6750.14" y2="9762.68" gradientUnits="userSpaceOnUse">
<stop stop-color="#808080" stop-opacity="0.25"/>
<stop offset="0.54" stop-color="#808080" stop-opacity="0.12"/>
<stop offset="1" stop-color="#808080" stop-opacity="0.1"/>
</linearGradient>
<linearGradient id="paint4_linear" x1="-6036.69" y1="12861.5" x2="-5719.53" y2="10255.9" gradientUnits="userSpaceOnUse">
<stop stop-color="#808080" stop-opacity="0.25"/>
<stop offset="0.54" stop-color="#808080" stop-opacity="0.12"/>
<stop offset="1" stop-color="#808080" stop-opacity="0.1"/>
</linearGradient>
<linearGradient id="paint5_linear" x1="-10788.5" y1="19311.6" x2="-10205.7" y2="14524.2" gradientUnits="userSpaceOnUse">
<stop stop-color="#808080" stop-opacity="0.25"/>
<stop offset="0.54" stop-color="#808080" stop-opacity="0.12"/>
<stop offset="1" stop-color="#808080" stop-opacity="0.1"/>
</linearGradient>
<linearGradient id="paint6_linear" x1="-8887.89" y1="20216.3" x2="-8305.15" y2="15428.8" gradientUnits="userSpaceOnUse">
<stop stop-color="#808080" stop-opacity="0.25"/>
<stop offset="0.54" stop-color="#808080" stop-opacity="0.12"/>
<stop offset="1" stop-color="#808080" stop-opacity="0.1"/>
</linearGradient>
<linearGradient id="paint7_linear" x1="-3145.3" y1="15090.7" x2="-4036.69" y2="14328.3" gradientUnits="userSpaceOnUse">
<stop stop-color="#808080" stop-opacity="0.25"/>
<stop offset="0.54" stop-color="#808080" stop-opacity="0.12"/>
<stop offset="1" stop-color="#808080" stop-opacity="0.1"/>
</linearGradient>
<linearGradient id="paint8_linear" x1="1348.67" y1="17405.6" x2="2412.27" y2="15727.1" gradientUnits="userSpaceOnUse">
<stop stop-color="#808080" stop-opacity="0.25"/>
<stop offset="0.54" stop-color="#808080" stop-opacity="0.12"/>
<stop offset="1" stop-color="#808080" stop-opacity="0.1"/>
</linearGradient>
<clipPath id="clip0">
<rect width="201.246" height="200" fill="white"/>
</clipPath>
</defs>
</svg>
