<svg width="37" height="42" viewBox="0 0 37 42" fill="none" xmlns="http://www.w3.org/2000/svg">
<path d="M35.5473 37.0486H30.1026V3.0572H25.788V0.997114C25.788 0.688101 25.6339 0.379088 25.4284 0.224582C25.1716 0.0185731 24.8634 -0.0329259 24.6066 0.0185762L7.60483 3.1087C7.09118 3.21171 6.78299 3.62373 6.78299 4.13875V37.1001H1.80061C1.2356 37.1001 0.773315 37.5636 0.773315 38.1302C0.773315 38.6967 1.2356 39.1602 1.80061 39.1602H11.149C11.2004 39.1602 11.3031 39.1602 11.3545 39.1602L24.658 41.5808C24.7093 41.5808 24.7607 41.5808 24.8634 41.5808C25.1202 41.5808 25.3257 41.4778 25.5311 41.3233C25.788 41.1173 25.8907 40.8598 25.8907 40.5508V39.1602H29.178H30.2053H35.65C36.215 39.1602 36.6773 38.6967 36.6773 38.1302C36.6773 37.5636 36.1123 37.0486 35.5473 37.0486ZM23.7334 39.2632L8.78621 36.5336V4.96278L23.7334 2.23318V39.2632ZM28.048 37.0486H25.788V5.11728H28.048V37.0486ZM21.0624 22.9885C21.5761 22.9885 21.987 22.319 21.987 21.495C21.987 20.6709 21.5761 20.0014 21.0624 20.0014C20.5488 20.0014 20.1378 20.6709 20.1378 21.495C20.1378 22.319 20.5488 22.9885 21.0624 22.9885Z" fill="#394D65"/>
</svg>
