<svg width="39" height="32" viewBox="0 0 39 32" fill="none" xmlns="http://www.w3.org/2000/svg">
<path d="M35.3366 10.5839H25.4505L22.6146 0L20.5458 0.55425L23.2331 10.5839H15.316L18.0033 0.55425L15.9345 0L13.0985 10.5839H3.21242C1.44088 10.5839 0 12.0247 0 13.7963C0 15.3806 1.15347 16.6973 2.6646 16.9586L6.42484 32H32.1902L35.953 16.9479C37.4303 16.6592 38.5491 15.3567 38.5491 13.7963C38.5491 12.0247 37.1082 10.5839 35.3366 10.5839ZM6.25651 18.0795H11.151L11.6864 22.3627H7.32732L6.25651 18.0795ZM8.93353 28.7876L7.86272 24.5044H11.9541L12.4895 28.7876H8.93353ZM18.2367 28.7876H14.6478L14.1124 24.5044H18.2371L18.2367 28.7876ZM18.2367 22.3627H13.8443L13.3088 18.0795H18.2367V22.3627ZM23.9677 28.7876H20.3783V24.5044H24.5031L23.9677 28.7876ZM24.7708 22.3627H20.3783V18.0795H25.3057L24.7708 22.3627ZM29.6819 28.7876H26.126L26.6614 24.5044H30.7527L29.6819 28.7876ZM31.2881 22.3627H26.9287L27.4641 18.0795H32.3589L31.2881 22.3627ZM35.3366 14.8671H3.21242C2.62176 14.8671 2.14161 14.3865 2.14161 13.7963C2.14161 13.206 2.62176 12.7255 3.21242 12.7255H35.3366C35.9273 12.7255 36.4074 13.206 36.4074 13.7963C36.4074 14.3865 35.9273 14.8671 35.3366 14.8671Z" fill="#262F56"/>
</svg>
