<svg width="258" height="200" viewBox="0 0 258 200" fill="none" xmlns="http://www.w3.org/2000/svg">
<g clip-path="url(#clip0)">
<path d="M21.804 199.735H257.484" stroke="#3F3D56" stroke-width="2" stroke-miterlimit="10"/>
<path d="M190.765 114.259L139.631 50.3607C137.309 52.4841 134.449 53.9285 131.361 54.5363C121.735 56.4322 112.334 49.8584 110.363 39.8533C108.971 32.7809 111.667 25.8909 116.766 21.7875L99.3304 0L0 84.8931L91.4347 199.152L190.765 114.259Z" fill="#F2F2F2"/>
<path d="M164.4 19.022C166.563 19.022 168.316 17.2686 168.316 15.1058C168.316 12.9429 166.563 11.1896 164.4 11.1896C162.237 11.1896 160.484 12.9429 160.484 15.1058C160.484 17.2686 162.237 19.022 164.4 19.022Z" stroke="#3F3D56" stroke-width="2" stroke-miterlimit="10"/>
<path d="M216.154 132.881C218.317 132.881 220.07 131.128 220.07 128.965C220.07 126.802 218.317 125.049 216.154 125.049C213.991 125.049 212.238 126.802 212.238 128.965C212.238 131.128 213.991 132.881 216.154 132.881Z" stroke="#3F3D56" stroke-width="2" stroke-miterlimit="10"/>
<path d="M45.3036 28.842C47.4664 28.842 49.2198 27.0887 49.2198 24.9258C49.2198 22.7629 47.4664 21.0096 45.3036 21.0096C43.1407 21.0096 41.3874 22.7629 41.3874 24.9258C41.3874 27.0887 43.1407 28.842 45.3036 28.842Z" stroke="#3F3D56" stroke-width="2" stroke-miterlimit="10"/>
<path d="M127.229 51.5005C135.191 51.5005 141.645 45.0465 141.645 37.085C141.645 29.1235 135.191 22.6694 127.229 22.6694C119.268 22.6694 112.814 29.1235 112.814 37.085C112.814 45.0465 119.268 51.5005 127.229 51.5005Z" fill="#F2F2F2"/>
<path d="M41.6379 29.0299H105.499C108.58 29.0299 111.57 30.0784 113.977 32.0029C116.384 33.9275 118.064 36.6136 118.742 39.6198L151.009 182.744C151.361 184.305 151.367 185.925 151.027 187.488C150.687 189.052 150.009 190.523 149.041 191.797C148.073 193.071 146.837 194.118 145.422 194.864C144.006 195.61 142.444 196.037 140.846 196.116L75.1967 199.351C71.6813 199.524 68.2231 198.412 65.4672 196.223C62.7114 194.034 60.8462 190.916 60.2197 187.453L41.9156 86.2625L40.5538 86.6516L37.0515 67.4722L38.4532 67.1217L33.3439 38.8758C33.1251 37.666 33.1758 36.4228 33.4926 35.2348C33.8093 34.0468 34.3842 32.9434 35.1763 32.0031C35.9684 31.0628 36.9581 30.3088 38.0751 29.7949C39.192 29.281 40.4085 29.0198 41.6379 29.0299Z" fill="#3F3D56"/>
<path d="M97.0914 32.1154H104.546C106.687 32.1154 108.763 32.8475 110.43 34.1903C112.098 35.533 113.256 37.4056 113.712 39.4972L144.684 181.454C144.863 182.271 144.863 183.117 144.684 183.935C144.505 184.752 144.152 185.521 143.649 186.189C143.146 186.858 142.505 187.41 141.769 187.807C141.033 188.205 140.22 188.439 139.385 188.494L73.9481 192.783C72.102 192.904 70.276 192.341 68.8185 191.201C67.3611 190.062 66.3742 188.425 66.0462 186.605L39.6173 39.8785C39.4462 38.9288 39.4857 37.9532 39.7329 37.0204C39.98 36.0877 40.4289 35.2205 41.0478 34.4802C41.6667 33.7398 42.4406 33.1444 43.3147 32.7357C44.1889 32.3271 45.1421 32.1154 46.1071 32.1154H53.1788C53.8632 32.1154 54.5286 32.341 55.0718 32.7573C55.6151 33.1737 56.0059 33.7575 56.1839 34.4184C56.341 35.0019 56.686 35.5173 57.1656 35.8848C57.6452 36.2524 58.2326 36.4516 58.8369 36.4516H92.4088C93.5921 36.4516 94.7317 36.005 95.5998 35.201C96.468 34.3971 97.0007 33.2951 97.0914 32.1154L97.0914 32.1154Z" fill="#6C63FF"/>
<path d="M117.939 68.8064H50.2269V69.14H117.939V68.8064Z" fill="white"/>
<path d="M120.607 79.6469H52.2283V79.9805H120.607V79.6469Z" fill="white"/>
<path d="M128.108 116.672L57.2281 118.172L57.2351 118.506L128.116 117.005L128.108 116.672Z" fill="white"/>
<path d="M130.276 126.511L58.0616 128.179L58.0693 128.513L130.284 126.845L130.276 126.511Z" fill="white"/>
<path opacity="0.1" d="M86.0007 154.947C86.0007 159.149 87.67 163.179 90.6413 166.15C93.6126 169.122 97.6425 170.791 101.845 170.791C106.047 170.791 110.077 169.122 113.048 166.15C116.019 163.179 117.688 159.149 117.688 154.947C117.688 154.749 117.685 154.552 117.677 154.355C117.522 150.207 115.745 146.286 112.729 143.434C109.713 140.582 105.698 139.028 101.548 139.106C97.3982 139.183 93.4443 140.887 90.5369 143.849C87.6295 146.811 86.0007 150.796 86.0007 154.947H86.0007Z" fill="black"/>
<path opacity="0.1" d="M87.5017 161.118C87.5017 161.316 87.5051 161.513 87.5134 161.71C89.0503 164.965 91.65 167.6 94.8844 169.181C98.1188 170.762 101.795 171.195 105.308 170.407C108.821 169.62 111.961 167.66 114.211 164.85C116.462 162.04 117.688 158.547 117.688 154.947C117.688 154.748 117.685 154.552 117.677 154.355C116.14 151.099 113.54 148.464 110.306 146.883C107.071 145.302 103.395 144.87 99.8821 145.657C96.3692 146.445 93.2291 148.405 90.9788 151.215C88.7285 154.025 87.5022 157.518 87.5017 161.118H87.5017Z" fill="black"/>
<path d="M183.914 72.1151C189.308 72.1151 193.681 67.7423 193.681 62.3482C193.681 56.9541 189.308 52.5813 183.914 52.5813C178.52 52.5813 174.147 56.9541 174.147 62.3482C174.147 67.7423 178.52 72.1151 183.914 72.1151Z" fill="#2F2E41"/>
<path d="M194.45 184.739L196.308 192.701H191.796L189.938 183.678L194.45 184.739Z" fill="#9F616A"/>
<path d="M172.687 184.739V192.171L168.175 192.701V184.739H172.687Z" fill="#9F616A"/>
<path d="M195.777 100.34C195.777 100.34 195.247 111.753 194.716 112.549C194.185 113.345 189.408 124.758 189.408 124.758L187.019 117.326C187.019 117.326 190.735 111.222 190.204 107.772C189.673 104.321 190.007 100.076 190.007 100.076L195.777 100.34Z" fill="#9F616A"/>
<path d="M180.649 72.7381C184.753 72.7381 188.081 69.4109 188.081 65.3067C188.081 61.2025 184.753 57.8754 180.649 57.8754C176.545 57.8754 173.218 61.2025 173.218 65.3067C173.218 69.4109 176.545 72.7381 180.649 72.7381Z" fill="#9F616A"/>
<path d="M186.754 66.103C186.754 66.103 186.488 76.7192 188.346 78.3116C190.204 79.904 177.73 78.577 177.73 78.577C177.73 78.577 180.384 71.1457 178.261 69.5532C176.137 67.9608 186.754 66.103 186.754 66.103Z" fill="#9F616A"/>
<path d="M176.934 78.0461C176.934 78.0461 178.526 75.1267 180.649 75.3921C182.772 75.6575 189.673 76.1883 189.938 76.7191C190.204 77.2499 191 79.1077 191.531 79.6385C192.062 80.1694 196.043 80.9656 196.308 84.1504C196.574 87.3353 186.754 106.71 186.754 106.71C186.754 106.71 188.081 111.222 187.815 112.283C187.55 113.345 189.142 116.53 188.877 117.857C188.611 119.184 192.858 127.146 190.735 137.497V154.218C190.735 154.218 197.901 183.147 195.777 185.27C193.654 187.393 186.488 186.066 185.161 185.27C183.834 184.474 178.261 144.398 178.261 144.398L175.607 130.862L175.341 160.587C175.341 160.587 175.872 185.535 174.014 186.332C172.156 187.128 164.99 187.393 164.459 185.801C164.045 184.559 162.017 151.513 161.144 137.028C160.842 132.028 161.235 127.011 162.313 122.119C163.418 117.109 165.021 111.222 166.848 108.833C170.298 104.321 172.422 89.9894 172.422 89.9894L167.91 81.7618C167.91 81.7618 170.564 79.1077 172.156 79.1077C173.749 79.1077 176.934 78.0461 176.934 78.0461Z" fill="#2F2E41"/>
<path d="M194.716 82.2927L196.115 83.2453C196.115 83.2453 197.104 100.34 196.308 101.402C195.512 102.463 189.976 101.945 189.559 101.01C189.142 100.075 194.716 82.2927 194.716 82.2927Z" fill="#2F2E41"/>
<path d="M171.048 97.8358C171.825 103.225 172.505 108.023 168.533 112.363C164.541 116.756 160.038 120.656 155.121 123.981C154.634 125.271 147.481 134.749 147.118 130.968C146.754 127.188 149.225 124.224 152.737 121.027C156.248 117.83 161.161 110.894 163.933 107.088C166.705 103.282 165.564 100.909 165.468 97.7294C165.372 94.5504 169.958 97.8743 171.048 97.8358Z" fill="#9F616A"/>
<path d="M168.175 187.871C168.175 187.871 167.91 190.844 167.114 191.64C166.317 192.436 164.194 193.498 164.459 196.417C164.725 199.337 166.45 199.469 166.45 199.469L166.317 198.806L167.114 199.071L167.246 199.469H174.678C174.678 199.469 174.81 196.682 174.545 195.355C174.279 194.028 174.279 187.659 173.483 187.924C172.687 188.189 170.564 188.455 170.033 189.517C169.502 190.578 167.91 190.206 168.175 187.871Z" fill="#2F2E41"/>
<path d="M195.247 187.871C195.247 187.871 195.512 190.844 196.308 191.64C197.104 192.436 199.228 193.498 198.962 196.417C198.697 199.337 196.972 199.469 196.972 199.469L197.104 198.806L196.308 199.071L196.175 199.469H188.744C188.744 199.469 188.611 196.682 188.877 195.355C189.142 194.028 189.142 187.659 189.938 187.924C190.735 188.189 192.858 188.455 193.389 189.517C193.919 190.578 195.512 190.206 195.247 187.871Z" fill="#2F2E41"/>
<path d="M171.625 80.9656L167.91 81.7619C167.91 81.7619 167.91 87.6008 166.848 89.9894C165.787 92.3781 163.929 97.9516 164.725 98.217C165.521 98.4824 172.952 102.198 173.483 100.075C174.014 97.9516 175.341 80.9656 171.625 80.9656Z" fill="#2F2E41"/>
<path d="M194.494 59.2553C199.889 59.2553 204.261 54.8825 204.261 49.4884C204.261 44.0943 199.889 39.7216 194.494 39.7216C189.1 39.7216 184.728 44.0943 184.728 49.4884C184.728 54.8825 189.1 59.2553 194.494 59.2553Z" fill="#2F2E41"/>
<path d="M202.919 57.576C201.655 58.4897 200.19 59.0873 198.648 59.3189C197.105 59.5505 195.53 59.4094 194.053 58.9073C192.576 58.4051 191.241 57.5567 190.16 56.4328C189.078 55.309 188.281 53.9425 187.836 52.4476C188.005 53.7872 188.449 55.0774 189.141 56.2367C189.834 57.3959 190.759 58.399 191.858 59.1827C192.958 59.9664 194.208 60.5136 195.529 60.7898C196.851 61.066 198.215 61.0652 199.537 60.7875C200.858 60.5097 202.108 59.961 203.206 59.176C204.305 58.391 205.228 57.3868 205.919 56.2267C206.61 55.0666 207.053 53.7759 207.22 52.4361C207.387 51.0962 207.274 49.7363 206.889 48.4423C207.108 50.1809 206.854 51.9463 206.156 53.5534C205.457 55.1604 204.339 56.5499 202.919 57.576Z" fill="#2F2E41"/>
<path d="M186.518 71.1383C190.474 71.1383 193.681 67.9316 193.681 63.976C193.681 60.0203 190.474 56.8136 186.518 56.8136C182.562 56.8136 179.356 60.0203 179.356 63.976C179.356 67.9316 182.562 71.1383 186.518 71.1383Z" fill="#2F2E41"/>
<path d="M180.495 66.2549C184.001 66.2549 186.844 64.0321 186.844 61.2901C186.844 58.5481 184.001 56.3253 180.495 56.3253C176.989 56.3253 174.147 58.5481 174.147 61.2901C174.147 64.0321 176.989 66.2549 180.495 66.2549Z" fill="#2F2E41"/>
<path d="M178.802 68.5093C179.467 68.5093 180.007 67.5549 180.007 66.3776C180.007 65.2003 179.467 64.2458 178.802 64.2458C178.136 64.2458 177.597 65.2003 177.597 66.3776C177.597 67.5549 178.136 68.5093 178.802 68.5093Z" fill="#A0616A"/>
</g>
<defs>
<clipPath id="clip0">
<rect width="257.484" height="200" fill="white"/>
</clipPath>
</defs>
</svg>
