<svg width="16" height="21" viewBox="0 0 16 21" fill="none" xmlns="http://www.w3.org/2000/svg">
<path fill-rule="evenodd" clip-rule="evenodd" d="M1.46521 0.114569C1.33016 0.0434702 1.17687 0.00236106 1.01419 9.88283e-05C1.00947 3.31757e-05 1.00474 0 1 0M0.990303 4.63649e-05C0.744914 0.00237752 0.520661 0.0930929 0.347845 0.241891C0.310699 0.273841 0.276142 0.308319 0.244366 0.344983C0.0921328 0.520448 0 0.749464 0 1V15V20C0 20.5523 0.447715 21 1 21C1.55228 21 2 20.5523 2 20V15.618L15.4472 8.89443C15.786 8.72503 16 8.37877 16 8C16 7.62123 15.786 7.27496 15.4472 7.10557L1.46521 0.114569" fill="#262F56"/>
</svg>
